<mxfile host="app.diagrams.net" modified="2024-06-13T19:50:23.446Z" agent="Mozilla/5.0 (Windows NT 10.0; Win64; x64) AppleWebKit/537.36 (KHTML, like Gecko) Chrome/124.0.0.0 Safari/537.36" etag="GVjlgh7Eij0dptg1U0oN" version="24.5.3" type="github">
  <diagram name="Page-1" id="KA9MUQs0WtmKmJ9l_T3D">
    <mxGraphModel dx="1969" dy="908" grid="1" gridSize="10" guides="1" tooltips="1" connect="1" arrows="1" fold="1" page="1" pageScale="1" pageWidth="850" pageHeight="1100" math="0" shadow="0">
      <root>
        <mxCell id="0" />
        <mxCell id="1" parent="0" />
        <mxCell id="PggwrddvNXkIzDLoVm9X-275" value="" style="shape=image;verticalLabelPosition=bottom;labelBackgroundColor=default;verticalAlign=top;aspect=fixed;imageAspect=0;image=data:image/png,iVBORw0KGgoAAAANSUhEUgAABdEAAALkCAIAAABvJ+vNAAAAA3NCSVQICAjb4U/gAAAAEHRFWHRTb2Z0d2FyZQBTaHV0dGVyY4LQCQAAIABJREFUeNrs3X9UE3e6P/C3TDJkNCEmEoKhiZHUKEKhggoFoWlZEU+xiitt7dZ2t9uld7fWP75tPfd7++3u7fa495629p5ju/eeurZ7W7u1XWytlR4RS4tQqRSFhYJI3GAgJYLBxEBwwiSD3z8CCIo/q1bgef1jMpmZhE8+GWeeeT7PZ0ogEAAhhBBCCCGEEEIIuaHCqAkIIYQQQgghhBBCbjgJNQEhhBBCyM2w+Nm/UCOQMeUuuvOPj99H7UAIIRMe5bkQQgghhBBCCCGE3HgUcyGEEEIIIYQQQgi58SjmQgghhBBCCCGEEHLjUcyFEEIIIYQQQggh5MajmAshhBBCCCGEEELIjUfzFhFCCCGEEEKu1nNv76NGmOSi1fIXCjKoN5Lb2eanl90mn4RiLoQQQgghhJCrVdnYTo0wyRm106k3EnKVaGwRIYQQQsjtZ/59B/7nyX+fP3KR4tEXflv7wl0zqXEIIYSQcYJiLoQQQgghhBBCCCE3Ho0tIuT6LX72L9QIhBAyklrBlfzpMWqHq2TOzH35AZ1RyfQ6Trz5ztd7ukT2jrve+Je0FO7skaO9/YNrcZa1eS/fM73fceJ7KRAAwOQ8/eTz/ME3pYnPz+/61+e+ts5JffnR+JRoptdx4u33v/7kB9x1f+6/P6CbLRWdjpZNbx20zk79j0fj75rBCJ1df33/i/89IVLjE0IIIbcAxVwIIYQQQn4admvTX0/XnuRVjz59/7+t+ue+t0+vWbsknev464dHe+/JSAcAsPPTXs6a3n344NtNkb96FHAMbht5T8azrSc+3/dPO2d8/l+SjfX7n3jnbHrBA8+v7ar6r95frjJENh14orTXeAfsPGdZlrwQx/711RbhDkVvJwVcCCGEkFuEYi6EEEIIIT8JLiUz8emF2kgp2KkInzpVIUGKHt3fHn7ziBNu7Zr4uQB0d2gV6NpSdLS0hw1fGP8yN7T12X/+4b++/jYIzM5KmYrIhfe9txCAJDwQaQzaq07033d32r9LW/73s5qTEL5v6u7Pn/fiWmbnF4ff5qnlCSGEkFtk3MRcVr/88Q/dPfSFEQDfvfkbagRCCCHj3uxFL2cbnLt2rC0V1/zbY89f6+Y9Z08Hh58EDxcV/aFJBCAE+3shfPtfO6yZi559YP7LG7WKf//0w9JPV/8w/+kHkn/1Lwbjtg+eOyJQ8xNCCCG3ANXQJYQQQgj5KUgABDFVcVfKghXRAIDg6SMORCYt+GXKnY/mGHUAAOcPXb3QPrpqviUt7VHzWPvpbD9yVnJXZuJdMzidXr9ijkLAjJz7Y+Q/NL39VVe/lDMq2bvS5t4V6Prwi3+2IFw3Yyq1PSGEEHJrUMyFEEIIIeSncKLh7aazc5fl/sf94p5vPf0A0Ltz56GqoO7pRxfedcLREAAA4ejhTd+eiVyY8W/3iFVNZ/sv3g9v3/TWoSrMfvn//PytxxcsVAIIn5uW8cbGh/6Sp2qpqP7rCcwwJ7747M8/enauwtqw5dAZantyK81Ie+DA5gdWRADAjDnzfz6HozYhP1lvpB5Ibjmq50IIIYQQ8lMInvnkrb99MvTsw9A/J+rW/7+6wUWlFQCA3tL3i0rfDy06+CYA4OTbfykdsSffibrn/lQ3ct9v/um9N0c8Pfn+R/e+Ty1Ofhq9J1p2VuL7swAUy1Zl/Px41yfHqaoQ+UlQDyQ/AYq5EEIIIYQQQm6YGUOTlwudJza9+eX35sRfLcPpivYZyx54NlYSHvtQ7bKu//qg56nHZh/e9t5zRwR52gP7n4jc88YHfzpOk2qRG0pt/Ldf37sidiq8nqovyj68I3u4B77+4qcf9kxf8ej9zy7UKgI933978A877SfvSP1kY8ye9zrSCxLZ0o9+WcGseHTpswsjFYGe7ysr/u9njtPUpOTa0dgiQm4idvZdb/3hyW+3PPnJ2rk/f/qRTx7Xy8HkPP2b2j+kmql1CCGEEDLxcMbn/yU5JXDi9W1fb6n8p9U9/ILQUtnyPeA8vP+RTV/tqm75+qxk4d06Fmx6ki7ce2IfBVzIjWZcmLYm9uzONz9Zv6Nh3wn3yB74uRvG+5e+fA/3/Wf7/7DvjDF76YtpHABItRsenS3UN3xiPWu8f+m/Lez/8M2/P/GhU7ds6bPzGWpSch0oz4WQm4dJuT8tPaJryzsN33d2CebI8rO9NFEEIYQQQiayaEPK1OCRDys+OTIYQ5k59Iqvs7c3AJz2WH84A/TuqT/7YNLsFA73mSXOw8eOUNORG815wulE/JrHlyhKa95uEn0Y2QO5++Ij0Vn79lf/tOLswvsNK5K07A8A0PDFF+u/6gW4FQWR4dLg08+ufhoIh8QYPRVHe6lVybWimAshN4t89tw1syWQKixpBudnpwWtwtgzFTh/pJ6ZufrTZT0fNkWsuGdG+GnH2/s6UpYtSp8h2r/9av0Oyl0khBBCyHi9vOi/8nrikW9PdN8ze9kDTPrUns8PnaKWIzeccLzikX9vX5OX9quCvPQ7ivM+HNUDL7FR0Oc9e/7Z6Zb/80adHQCCQg9VgSHXY5KNLVIbH02LktPXTm6JcAmDABDgrSe6T/OM0Tz7PrOCvWCdGXMsaHjunaPO6NnPF8z+vqjkT02Ym7VomZrajxBCCCHj0A9Oa0CSvizr5yl3/nzVXfeMnCIm2C8EoJh9pyVJb+aA48f2nZ563z0GxWl76QlqOHLjzZg/f1m0UPXV4a9PQzFjKjuqBwqH67v6o+98+v47c3IWWJTB7492jU5I579v6saM2b+4e3qkcvpdd882T6UWJddjcsVczFlpz2ZqFfS1k1vi9PGj+zqD6OnYWXr0SM+l1vLs+eqf39ef+N6L/hNHdx51fn24ux/sDDqmE0IIIWQ84v+56Z2mlog7X3zqvg3zI0a/5txZ2dU/O/k/1i64iwNwas9hj2JquPMfx7+ndiM3ARth+NXjKz/aeN99gfa3PzvhG90DT361/w8V/NxVS/9z2XR7xf4/VF6YxmL/quRfKzzGB/Le25j7fFokAtSi5HpMnLFF7OwFbzyemDJjKs527dmx/0/1vZAMVaLG2Zbivf/alfjGMlU4lnzxP2lV295dX6/IefT+5wfrVFf8352O03ekfrIxpvzDjrtWJbKlH/3yKxqtR24BQQgACAIAH/QBLDUJIYQQQsazk/UVv6yvOP+88tPkytAj8chnn+Z8NuKa1nGmH8zXNLCI3KSueKgk79CoJaN7YG/pjk9Ld4x4+Yfqn/+2+vzTYG/pjs9HrUDItZs4MRehs2NncffbbjFlVe6GtQv21Vecvn/py/dMrdq1//MeTnH6jLvr6NeOOb+QNjzzzjH7adF4/9L/vIf9umj/voj5zy/LffmHD9b/AEi1v3qUrfq2YY/1LHUOQgghhBBCbs5VyPSUeN2aPD0chz75gZqDEDJxj3YT5Q9hjPPjH80zzI1gIA0HpirA6eIj0Vm7pfSf1sF1PPYAEOix/3D6JLgVI+tUp608X6f6s1CdakIIIYSQ63fu3Lktv8uldiBjkkkn/UQWEfpnf52m6/znn945aqcOQQiZuCbK4V6if/qJeXOtBx55+Wjk2l+8dw9whTEaV1enmpAfRSx9+y+lg4/P/O+f/ud/AQDnF55PtT31p3/9nz8BAIQjX9xDkyUSQsiEkHJnNDUCGVNYWNhkbwL397/cQFVcCCGT4IA/Yf4SFgAY3Zy5j8aHinXx3zt6ED1vQ86dlrS7nk2bAYgCH8SMmPuSjClacahOtfESdaoJIYQQQgghhBBCrt9EibkEHf/7VVe/eclbT9zprDjeDQCwfrH/9X/035W39I1HE+dKRUCoqmxpkc5+/tf3rolmhupUL//PZdPtZWPUqSaEEEIIIYQQQgi5bhNmKKn4/Yga1G+GRm7wpz58+6MPR6x0ur5i7XPDRdSFK9SpJoQQQgghhBBCCLleYdQEhBBCCCGEEEIIITechJqAEEIIIYQQcpWM0dOpESa5mWo59UZCrhLFXAghhBBCCCFX628bV1EjTHJTpky5HT7GwMAA9UZyKefOnbtNOiqNLSKEEEIIuc20vXXvVNVDey675Efp3L5y5szH9/hHLKoonDk17fUWanxCCCHkxqE8F0IIIYSQ243sKpb8GNErXv14rmyxbGK1muBqrqqq7+gRmWlq40JLmtJW/HmdJ0yfWWAxsoDYXlF0oC0QEf/AymQ1AF/z3t2Hu6FLX51t4gAItrKPq8T0h3NMLADA21j8eX3Evb/IMgzuv6Pib1/1JD2Yl8DZyj6ucoZpU1fmmOVAx8GPygNpj8S2f3SgbWD40wy/DyGEkEmMYi6EXL+Db/ySGoEQQka6TfJ4xwl/xUvLCrc1tPtl5qUvvvf++iR89/rKhzd955+VlegHtAD8Fy2peHb2w12PPdVftO3M+kMHHmt7/YkNmyva/NMTH9vy/ptLu956+PFNFe1+mWHpq/v+vrjioYc37rf6ZYbFz3287/mk82/duXND7gvKj0/+fUVXUeHDG4paZImLteO9PUVnQ62DMS990MzyPlHJQQAglTGdNqdgNLKCo9XJyGSBodXdVqs3Oj5esFrtPlPctVanCJPKWFdNlVWXYx7aNCZt9ZpkX3N5SROXmp+qZ1iO+jghhEx6FHMhhBBCyA1z7tw5aoSrJkt87LWPn0mc1f6SxbJpc8X6V9tf2lSpfark46e6XsrdDwCdH1y4BAC8xUUtf3zt46WLZn23adnvG7I+O3Fo7gcr7y7ctOJz7bb93sRXy7euUEI5q+2DbcVts54p+fg5rR9zx/4MFa9v/KAr8+1Dr83d8/iyyv5x3Z5MpDFGdsje0KyMTzDFcIAAhMl1ejhsDt6oc1o71Xo9b+sGAIidVrugS01IEHusdc3uuEXXmpHC6pPNnkO1VVZd9rTB92c5jhU5BmGMTC6/fMAlEAh0dnaO+dKUKVOkUult28pTpkxRKpX06yWEkKtEMRdCCCGEkJ+Cv37n5pe2NXjDcaYLfn8/2lva+rVLC7JmzT2zIjF8DzDGEgCAueDF51ckAWe2W9txZs/TC/YDfhlkXfo/vvpcy8ZNlrs3Z65/7+NXHnvt1e82bM6N+yDx11s/fnPFrIs/w5m29i6YV6yYO2u6f7F2U+X4blG5ybJa22FrbKja3ajNXJ6lBACl0dRTaXO4BJtbY07kGm0AAKHDau/zB776uA0AZM2dyRnR1/ZmIiLi0pMcxbVV1uRp1/xRBwYGBEEYM6IxMDBw9uzZsLAwlmVvw0amXDZCCLkm4ybmUvT/1tCtM0IIIYRMHBWbX/ig7bHyf7zifyEt9wMAhrmzws/U7KloU3r3t/Qjcawlg0KFWKbPNRvQsnhL+dYV0/1tbX6trL/lqa2HnrNuyrVs3rz/mS2JS7eUP/XitpVpG1/f8/yK9RcHXabPMmhRvGdPS1bi/u+6xneaCwSX3SlEqHRxcS5npcPhRigbQ643KWsbK32CbqGe7W4EAPCO4w7o0x9cEAmIXYf31h5zCNE6ABB5n8/HghkaGRQI+Hw+gGE47qLMFUaZkJ5kL66tdQPXGLEJDw+fPXv2ZVbo6+tzu9133HHHbRjjCAQC9PMlhJCrNG5iLufOnaOYCxnuDHSPhRBCyLiXWPBY4v4Pls2uXLom0QAA0WteebHo4U25aXvWrJilHHvJaItffP/Vtg0b4tQPQ2ku2FryXNvG3Jcqu/rDDZnP/DETFRtyNxR39YdrEx97dawsFwBZz7+6pnLD02mWzIJFc8Pbx3WDinxHY/VBr3+AmRY5Jy0pBqIHACDXmzQ11V5jagzLhAYW+ezNTmgy9UolC4DVa2pqrHZexwDorvtiVx2AiPgHLCww4KzatQsAtKlrcsZIZ1EmpCfZ99Z5bvgfM23atGnTprW1tRkMBjrtIYSQ8WvKeAlUB4NBirmQEIlEcpucfNB9HkIIudjtXIriVjp37lwwGKR2IGMKCwtjGOaKq/X19fX19UVFRd1WH/7azn/8pYVxT3T9sW73uqvNBWp5617LW4t3H3tt8fA+ilbOfML/Wuu+p6Kp79we15BTpkgkP/3N+4GBAVEUb/37Uhela8Zr+yT0ZRBCCCGETHwtRS9s3u8FAIQvfuq1pybaRNET0rRp006fPi2K4tUEaG5TsqwXP/7Yb44GUP/C3Q/7txx7M+vyW8xds+XjTG3iqGXhgH/if998R21ltdXVJzLT1Ob07GSm/tOSY32y2KWrM6IZgLeVflrVNRCZmr/cLAfgrt39RVOPdNb9BVkxzMWTncNV82mJQ5+7epEm9Pz8Cnxj8ed1Hqk+c6XFyEGwlxUdkmWvjm74uKrr/KeJXJi//Jon9LrNdRatXLBtRd2PjYxM3i56Ge0VfzvQNjD8NCL+AQtb9Xl9xL2/yDK4aj4tOdY3LXZpXkY0C1/z3t1W7fIcdcPuSq/5gZXJarhrd++1KjNWLvCVXW4TC1v1+Yi0wjBd5iPZxnFwbAyj/8wIuZnOtFSU7in9rqWzs+W7ljPUHoQQQn4qcwte2zroTQq4jB/Tpk3r7x9flXb89dseT5utmqqaOa9wzxnsf2FZ7oadnW3bH1r1Z2v7O7lTp658d1fh7Knznv0OQOe2ZSrVsm0j53Bq+eCJ3FWbvgP8LdsemjdTpZq3cpt1MnzXPntDk0uekPNgXnZqolEdipxIZXDaOkUAPrvVzcqkQ5dvYmezTZi1YB7nPGbnr+PdpDLGUVM9YlPWaFmTn3//nGmQzcrMz19jMY//gIv/u7dWzpupmqqaOe+h7dbvXsot3O+t3BA7dd4L3wFtRYX3hvrpshdKO4GW1+9WLXvh9Yfunnn3S/Xw12976O6ZKpVqdtrj21tGh1MmbRe9nJi01Wvyc+NVgC41P39NToL6wg4ntFbVdp4vHc4ZFyZreWudjedtdVY+etFCI3eFTZRx2Wvy89P1UkTMuz8/f3WmfnwEoynPhZCbeZx/Ns3yjtdgMBesn/vBxoZn6g493/Xs7NzKx+r+8crcq9zHxRm59S/dfc8HmSUnrnSbiBBCCCHjHcMw1z16guf53t5eQRCmTLlh9QQkEolWq73cGi1vPb1hT/gf9zUXKM9AOx2Ds2HNWvfiY5uLP8gsaX4zS4b6E+YPPthW8Zq2Yft3sqVb14yVduDf/9ILxSj4+NCL4W+tXFU58b9ruc6ora+1Nli5+ASjJhRyCVPrtD6nrVOMkdttvmi91mXrAwAIHcccjDE7Ls7jLLbafaZrzUgJk5uStY5DNdV2bfpQX2M5OcsxANgrzXbe399vs9l+8hbTarXTpl1u2rCWPdv2exNfLd+6QgmleZbsxaVvPeENjQDq3L6y8IP+p0qa1/tfX7nqiY1ZJ14E+it37n/u1feeXzy35S3Lhkrze83/yKx8aEHhxj0rdhdMpy562UMVy3GsyDEIYwa7z6iZ2cI0CYukjVVVtca8hOEeb05NsBXXlpXBq0xaaZID3itswnCcHDIpAE5+hT4KdHV1+f1jJB+xLMswjFQqjYiIuDVD5CjmQsjN01ZR045Ff9y6pWDxLP9Ss3fWLKDrGvcxIiOXEDJ5/biEc3gbiweTdUO7o4RzQsaNgYGBsLDryUw/ffr0uXPn5HJ5eHj4jR2adIXwTVtDG2Y9tWLxrFkYs3CzDACSnlmf+dZL27Zp2xqmr9i9YvqYV0xt7f3hi1esmDsLKxYrP2ib+F+2Mi5nta7dVt9Q/mmjMXt5GgMAGpO+u9LW0Sm38bqFemYw5sLbj3UE+gZKPjwGALzVHZd8rUdlNjIp3ewsqal2JFzzJw0PD587d+7t8Ou4fEQy6ZlXn2vZuMly9+bM9e99/MrIBL+uhpZ+7dIVWbNmYUVi+DvWljYAUC598ZWCLAClDW3wtm28Zzbgh8zc1QVMpy76Y4isLjN91u6vqmo05hFdfqHZWnKMiX9grLOKMTe5elqt9lL1XERR5Hn+1KlTERERcvlNP6GhsUWE3Cwtb234cwvQ8OcNG4saGt56YlXhtpGH4opnZ8+89/HH02aqVDPvfvyllx66e+ZU1cy0F0ovGIE0mJELnCl94d7ZKtXMtN9XeKl1CZlcKOGcEHKtAReWZSMjI6dOnXqra8HMStSirWLPd21tLRXftY24yyxTyuDv6mrr7DwDRK9ZvwL7N2+rmbXmmayxh7opZxnC+78rLW1rq9jf4O2f+N+ar9Nmd4tKfYI5munpcvpCSxm1Sc85D1fZRL05euir9NqsLi723gcffPDBB3PjI3225s5Q6EHkfT6fz8fzgzkGojC4QBgjNMFqktPnsY6aetfABG3SM/3ap7Yeai5fr63cvHl/6Bzb29be2dnpn7V4bnhXzZ6KtrbSPQ39SsNcLQDIwoe68eJZ4crFL5Y0n2huPlT+/mNzqYv+eGxMWuossbWm2Tvc4RilWg7IlfKr3+RGYBhGLpfrdLqzZ8/yPH+z/3DKc7niZfNFVan3PDTzYS9VpZ4I/7H5fIIgiKJ4fdm2DMOo1erLrDB3/XsvFsW+MGvLP95fgYpnx1jD29C1+B8nXtyzbMHGbS3v1TU/v9li2bat8pWcFWOce7Rs3vjnBvOr5Vszazbk7m+n74+QyWQcJZwDGDPhnGEYiURyfbfrp0yZMmXKlPDwcI7jZDKqQ0LIFXg8HpZlFQrFT/P2c5/a8sfKws2WuN8rzc98fGjx+ReWPpb555eeuPuevK3f/r0geun6Ncqd78x6bn3SJXY0femLry19+IVVd+9fWpBoCJ8Ed5z6HPW1h3r8kE7TzEuNU8MXOpiqTSZ5U50Yb9YwQmiJy2r1MNoFMUolA8CklTdZj3Uk6TFqsvOVegD+1gO7WgGE6e99JH2MQ7MmOXWOY//xwASdbq5rz8bclyq7+sMNmc/8MXO6DOsKzIWbLXF7ntv3j1e2vF/x+Asr4/4MQ+YzW7esmO5tGdWN39vSUPj7NPWG/nBD3pZ9f183nbroDYi6GNJSZ+0+0BZgb+Ym1yAqKurUqVNhYWHh4eE378+eRHNF179096ozW665BEZnfUWXdnFStGxix1wuzFqPdlX87au2gYj4B1YmqwH4mot3HfaE6TILso0sIHYc/PSrVv+0Obkr0zTMxVnr6Kj421c9SQ/mJSgHgwvDKwzVoL4/LyMmVIO6OXJ5NjeqBjV0mQ9nGy/5u/rx834FAgGXyyWTyULZtte3t6u4cujcdm/sC7M+9ry/AhVDZVy6Rj/49h+vJO15XPVw2yvNB9Yrty/TbZC9d2LUgNE9D6ke9r7Wus+wceYq63N1h56f2/bWvXdvTtxN9VwImVwEb7utvqHeIRqzl6cx9Z+WehIsquZKfoFFXlfJL0xnqso9SSuXmxlr6afVXUP3g0LH8WsaW1RsN+blaK17S+zK9ATxUL0s+5GMaADumk+/sOuWFqRd6b+/i4dPh9K//X5/aPj0dRxvg8FgaA9TpkyZMWPGuPjGaK5ocvlefZXpJ263WyKRXP0PRxRFl8sVHX0Tz1NvxOWD/0xbw7bHl22evuUaJpEmt41JPlc0GReu8pqxv7+/t7c3MjLyJn6SCdOmnXueXbVhZ0uXf3riilc/fr9glr9+W+HTm/Y0nJEZCrYWZW5ftdnahdyp72S+7dy3wvp6YeHm/Vb/9MQVL7699amkM9uWxW0zv5hY8+f9ie+d2Hr+UrblgydyNy8uObl1ccu2x1e+tL9LuXjxdEA5wXqkz97Q5OIW5GTr4OOZwaz1MJmMt9vcyWo13FarTyYLGyqEJDiOO5g5C2Kdzc2dizQx15ywKpUJrdU1xryMmMEFSnN2vlHoOry3ym28PydByXDszftjQ+ciWq32x6fa3oBzDtlFDy5FO0uLPfv31xegocLaj0Q6kBIyifg6bd1QqfQJ5i5ndZfTBz0wmHBeeriKgd4SzQzmlgwmnGcnKAHBVlVqa+5MyuBChyyfzwcwDMcBQwnnoap3F70hq0lOn+csqamXDoTe61pc5u661+v1+/1K5TX/NyqVSgHI5XKe510ul0ajGS/X1dR7yaUuWW/Sns+ePcuy7O3+97e8lZu2qSvxsa1b1kWDJjIntz3qohNXeHi4x+O57spZkyvmEp25fkvJK4naysIFD7/01vqCpypGlky/a5YhVCn9xJtZwHcvPP77msS3D+1O3F+Yu+HptzIPPQb0N3ywc9GWtz/OGvNa9nxVauW2lbmVEy3mMlbWOhiNLtrlsLkWqWGzi3q9xm4LxZF5u7VDbs5L0Mvte4/Z+RgTd23vNliDurrGlDeUTMpycpbzSUP561eqY+T1ei8OaYeFhU2ZMkUmk10+7XxgYMDlcul0uvH3JSU98+qv9z/xksVSVJBpDgchZFL5cQnnwgIAA86qXbsAQJu6ZgF+ooRzpVJ55syZnp6e68h2CeE47ty5c93d3Tf1ltSNMjAwQJ2XjH0ydNNO7kVRvNUFXK7D3OcPeZ4f8bTgta0F1CvIbdxjqYtOcKIoUszlis5UbNv00k5rfzi6zgB+/0Ul00cULz3TZu2COWfp3FnRWDoLm76z+h8DEJ713CvrcqaPvf/RVam3Tbiq1Mq4nNXadmvjUJn0aAAiYmJ1zsO2Dh0cjD4zmh+MuXht1q4BT9fn2+sAhFntPlPctfbp4RrU0ddTg1oqlY55MjEwMHDmzJmBgYHIyMhL3eE5c+bMLahNPST6qQNnnwo9zHrzxNnQIfuiB1jxvmfw0bp9Z9dduJMVfx96NefNQyffDD3cSkdGQiYVucmy0jQq8rBo9S8AAAl56wYnnEgrCC1ZvW7R+YN78sp1yQCA4dUGjVwLALLXhfbPJuT9YnBNJjpt9bq086uoF1240XWZPn260+lUKBTXfZ9/6tSpZ8+e9fv9VNuFkDFPh26HQR+EEDK+jpw3b+cT5Yh8Zs+m3+/s/2Nd+WMNhfc8UQlg1iwt9lTs+a5Npmzrki001I1jAAAgAElEQVReHKqU3tbW2amMNpu12Fm6v2Vp4v79bZi1xixDF4DwywzvCFWl3rOnLVG5p8HbP9HyXPhOuwsRSmOCuTuUtR4NAGFh0Sa9WF5dDda8XB1WH1rXZbV6VfOWZpo5wNdcXm61uuNMwKis9VDaOs/7fAwYhmXHSFuPSUudtftATbN0gLnWO5VTp0691Jm6UqkM1Wq51NAhnuenT59+m/fmirc2ftAQeqxd8eIrK2bRYZAQMqGwLMvz/NSpU697DxzH9fX1UcyFEEIIIbe5iRJzmZ71WJ554+/TZu8sWJOoBYC5z235Y8OIkulZSx/L/PNLT4cqpb/4/qtthRvT4vwy89JX31s/F2cqr/QGoarUD99dsbRgriHcP8H6gdhnr6vtGMxaXxinBjoAAIzGqGeOH5fHGZWMO7RmR7O9jzOZopVKAEqTlj1us3Ya5aOz1nOmAeg5tn/XMQCyOUsLxsiEGa5BPe3G/i1SqVSn03V2ds6YMSM0/n9YMBi8qUP1blhvXr+VquMSQiYwhmF+ZNVDiUQyXiYBIIQQQshkNonmLSITxtXUoPb7/T09PVFRUSMXBgKB06dP38BK/nTGTwghF7sg3n2xa52H5WKCILjd7ps6M8uPR/MWkcu4efMW/fjfF53/kCtfQ9K8RWRCXDOGdHZ2qlSqmzddNI32vAhVpZ4QZDJZd3d3IBAYeep/7tw5KmdICCETAx3PCSGEEHL7o5jLRagq9UQhk8kEQbji7VZCCCGEEHIr3cCx3qFE+OuoyX3u3Llz585d6mOMh9HohJDxgWIuZMJiGIbughJCCCGE3G5uYDjjumdAmzJlymW2pYALIeRGoZgLmbBCty+oHQghhIw/7cVbGxIL8wzDCzzfbP0yqrDAPHmbRGyvKO1OWJ6sBgB4G0vr5BaLkYXoOrS7Wp6dl6AMLS8uc8jVHERBVMWnJ8dwgOi21dTZ+sBAFKWm9KxI+976iOVZocblbWVVyMw2sQAgtFfsPh6Tl23iAMBVs7uyW6nmREFg9AvS4zQsfLaKWiRn6brK9lqhZAFGG5+ZEM0InY1VTd1hjAjtgow4ta+xvDEiNcPAUU8mhJBJj2IuhFy/6761QgghhJBrwsSYIprsbqjVALwOhyw2mwUgdlr7IuV9NnfCYDSGiYy3ZBkAwVZWZvPGJHDtB6s6DJYco3xoT95LvYXgtA9oGbvdZ4oLrczqF1oWaQBv497DDlO20d1o4+Jy5PA6mMFXBvdobXDHWiwGVmivqLTps81xc1DW7DYMfiRCCCGTGMVcCLl+lEdDCCHkx3BWFx1oBXgPklatTYniW0t2fOnkVApJ0BNUJAIB5zcfFVslKoUEHj+iALTu2l6vkvsc/tnZa5dI6ouKj/g5BCRJeQUpnLX4s+peiQSYmbrKMvNk+c6DJyUSQJGYlxevGP+NxUQbIxpsLqg1cNsc04w5LADBYfPrkhL5amunmBY9ch4gnhdZjoXgON5nXHg+4HIZPrttwJg6p6PK7o5LGBktEQUe0ggGLrtHZdIAEHzgdOdfFzzdTIyJBcBqolHTLZqN0cZpDUMBIkIIIZMZxVwIIYQQQn4autSCtalAoH77X62eFNSXuJLWPZmiQO+Rd/9yEuhtKDk6u6BwiQoB64436kPbOF2SwsJ1KoCv316tySu0RMFZ8t9lTYmp1nZ5xq/yY0MDWpxWqyRx7dokxcRpLSbapGqwu6Bh7F0RpiQGAO+wBfTpSg0fWdfcIUYbGEDsbiovP+5zi9r0zAQOXl7g5BeO8RG7G8rKjoce827EAQC8drs01iKPlkU02FwJag0AwVlXXg6flzGmZxoY3trHKkPBG0Zw1h/0IiDKY5OTDIwgMiwbeoFlAqIAcHIlbD4RaoZ6OSGETG7jKeZCtaxICI3oIYQQMiH0tn5z8KgPEng8wZkBnHFBY1YAgEITJT8J9Lr8KrMKAKTTZ6oGN1IZYkMPPSddPueBIhcAv0Qy0x+bu6r3QPH2g9Cn5lrMuuxViQdLtm8PapJzs+NVE2ISP0ZjVNXZO13oijAmMQB8dpubR1WZAyLv7nEIBuPg2KIYV01ps8AA4DiW9/EAO2pHkYnZI+u5AIDbZvf1cJVlxyHwXmtHsiYGYHULLIuU7RVlXWAAEQDDAIAmOScHAOBtLq22aSwsI4oCwAHiUPiFYUB1/AkhhIyvmAvNQUNCwsLCKOxCCCFk3Gv9stiV9Nv8WGnvEWdrLzBdA5eLh44D7/H4AShUMo/Lg1gVAmdcPuhGb67QaKbLf1awRHV+SVJuQVKgvfgvX7aa82Oj4i0F8ThVvrXEal4bPzGCLtGmyIa6OqgSkxkAXrtDlro8y8AA8FnLqu28UTu4oiYhrqm80W1IVuuMbFljhykj5rIFbcVOa5c2My9UosVdu7exQxjagDUkG49VWX05cdNkgtMLk+b8ZizLQAQTqUW9SzAZWMHVCW0yA4heN6ZpKcmFEHIt+PYj1Ud7NcmWeKn1m+pWxKYuMauoWcY9GltECCGEEPJT0Jj1ri8/2qGSKSRShQaISs3V7Nyx/ahCJgnyMgWgSM6dv7Po3VaVQoJe2YWbK1KWpeza9e52qRQSeWJ2vsq644ADEgSD8zNm4tSRon3WoATBoC45RTpx2syo8jnERA0DwGV1RpjjBuMacqOJKbf7tEMrcsZEbXOd1ZdtNqUv5Ksr9zYxLANGNS89eYzaLmKnrUcbNxRMUZuN/sMOPn7oVbk5MWJvbbspwxjR5HBDw3XU1hzvQVjYwACjX5DGgTEnqg9WltsZcSAyMV0OiJ32vkgzFXMBAJz6ZketYW2uYdJfTVvLKpGaYw71P1fNXqs+JyOaufJsWRBczTUNTj8DCOK0eZlpXONeu3H5YA1nb+PeRtXyjBjgwom30F5RVOfXKFlREKTG1AyzkhmceMskNu4td7ByFoxUn5hlVoPvqKk61idlwOgXZJjkrppKuz5zUTRFDW+tgLW4uD1prWWmzFO94xvk5iepRh2u2kt2tCevXRJ1fom1aOupnxUuub3CMj77ocO2PpF3u0SlRs5K9YlpTF0lMrNNbHvFR4dZS15aNAtAsJdXiempqKzkF+YkKBGKnYupC8XK+ojlWQbBVlrUHLl8ebKaAeBrLquPyDb3lDc4RdHn8rIaNctEzEldNB4miKOYCyGEEELIT0ERn18YP2pJbO662FELdEvWFi4ZtUZ+4fk1opLyn0w6/1rU2nUj1kwpWJcyARtNs2j16uGHOSNTToyWHABYnjUUOUlenh0Kv0QnWKITRuwjYXgdgDNlZwNARk7M+RXkcTkWAKblg/tnotPyogEgyWSrtfFZpuSsmFGfitHEZWXHDT/1Wo9jXqqGunioXy5Zmwug90jRQU3BJA69cHojU+nwmePkgNhp61aZkhlcebYsk2CtrPbOy84+n6nlusQ7XLQryE2plgQl4Kopru8wZbCDE2/BxXOmdEtofnUAcDU2ITHbomF4a3mNXZ9lTNA3VVl90XFy6r83XntxkevegpQxam35TnlU5tkqlRStzqAuVae6YB1D7trx8AOSG9MsRqC9Ym9fcnacHIBgG35RKe85XNORkxEzNN6TMyaqSuvsJouRaa+1TYvPkaN5+LCuZruq6105yZqh8J8mzpIdF4o0ZmfEjJvvnGIuhBBCCCGEXM21hCkr6ypWU8ZZMiZzMwVOHfmsuN4vlUKT8Uiu/ODWA4a1SfXV1hOKXbw5YVZr5dncJ5eoAM83W4u5tetSFJOjWTi9kS13+OLi5KLL7ok0pQ3WJLr8bFk+uw1mS8xV3Mq/5K4g8DzDcYzLNjjxFgQB7IgSR75uj0ybzADgIiP9VjeM0Xo9E/qs473VT5W/+5krysAFPKd8Cp0GwWDAcyqYmF+QpOq1lhQf6UXQw2t+tjY3lmvdtbUcuigp+FMehWVNbiznqd9VcjQI3sOb89Yt0aH9m50HTsrkfsdRpywpf22e3lW+s9whkQaCGsua3Nje8u0HoAo6PKqMR3Jjz6cX8q3nZ5HLTfYdaGrl+V2u+ZbceH7k1HWxroNHXe34bJfLoDt5wuXyFclScy3mET+P1l1bramFubrepl1FB32cSibzuzB7XH0fDGdcoHNU1XRohiMmjCYpDqX1HTKmacBsiWbgPb/6NHOqurmq1jWU1jVeUcyFkFuht77oS25Vvnn48Bto2vFXT+7tlgtICLkVXIf22ow5g9Pa8raySiE1J04OeBuLy/jU1aETC8FWtrsZGjkjCuI0c2qaUQ6Ivvbaw8d7RAYQGN1Ci8lTFkrWBQC0V+ztSVoeum8pug7trpZn54WeeRuLyxxyNQdREFXx6ckxHIT2g1V9CZY4JXzth8qr/YmrLQYmlMHe5BLDBgIDEfHpydGs6LUeOuwUpWGBAXl8erLGSwnnhJArnfQ0FB+ZmVc4NALiFAAozCkGjTQxP8+AgKbxr9XOJbk6Z/VRVfKvFJOnYVi9kS23e+PifDZPpFkDXMVsWXD5RJn+woiL4Dhc1hM69Is+n2zhJXYFn+1webfo9coSLBka3tYwOPGWCIZ31B7sFAOMek5yQowogmVDh3WWgSAAYCOmiTYfMP4TXfw+GApyUxUBa9EbR/T/Z228NNC0469NnqQlKnPuWjMAZ8l/H3Qg1gz4OPOyvHgpPN9sLWkNxMarkvLXJgGB1l1/qT25RIeGBlnGb/Jjpa3Yak02K5zF208m/2pdPMc37fhr9anfzfd7TiL7t+t0F4zm9IyaRY5P1DUFc/NTFABUo6auW5Ix/2CvqiA/Hmh11rdnFFiixvyT2g8cCC75zTqzFJ7y/94xzr4PEXJzapy97FC7Om34l2FcYGzcWw5zziLugpXDlHGpur2VtZ3L4679vdxud39//xgREImEYZjw8HC5/BZ1cIq5EHITTzqG02gVSQX5o5cQQiYtjSnysLVTjI5hAN5hhzFdDgBuW1dEJKwdoiYmdOqrjsu0mFiIHRV7m13GRerOmvLjykzLIuVQwEPwXOqUptPaFynvs7kTkkP3OpnIeEuWARBsZWU2b0yC2HgMc7KVEF2N9d3RRnX70HmP0rjIEscCgr283OaLjvM127kFOclqCLaySoeQbaKEc0LIlU5/XH6VOeqSL0tjM8zlB618irVdl5ItnUwtw+piZeUOt8o7VD3oyrNlgZUzfr9wwcxbrH5h9oh6LmPvigHkpoWWBNZWXskj9B9HaOItJiZteQwAiK6a0pp2TTIDQRABBhB4sBPrhqBMplIpAEhlnEqhkAKQSiVAAIFT9Qe/c/glEr7dH9QDAOSq0BRvEk4SDAJ8+5EDDS5I0HsyyAEwZKQe2LF9l0ElVVnu1SFQf8rj6S0uOgoEedlMPyCTzdTpLu7So2eRG1Ga64Kp63B1vwbe45HM1EgBQKVTSU6Nv+9Ebk4128pqHHHD/VppMmuc4pg1sBh1UqquuKpWbbrm94mIiLjUJDwDAwN+v/+HH36IiopiWZZiLlcv9LPQJKbGquQqxaQ6gpPb85TD+uVgGm1K3vyT2z+TrVvFDS9ZNnS90ttU/Fm1RyINYHbumiU66riETJKgS3OnGBPD+BwOGNO5UJikWxWXyjXUdwgxhpH//Qv+AMuxEDut3ZHxacqryDARHDa/LimRr7Z2immjUlJ4XmQ5Fu7mLpk+iQGgScjQ8Lay9uETeW7wzqkoMgwDqHXTGqzt3gTO6WD0C1gAEybhnJDxoOWkb/M+B4BNP4/TKNgbvv5NodDIPE4PYkdfukskCARDD6NS4n3FJdW8OSNvkp33sDFG2bHDTdAuVOMqZ8tS6o1CVb1Lv0hzua9zrF0N3eHjjPGhehkXT7zFsByDAcgjVX67WzRoGL7bw2riAAh9fYxyohznx7zg7a397Ai39kmLItBefPTgWGs4DxRb9b8JJcZYTwBA70kk5ucPZ6mrolQa86qC4TT2U62XeC/pyFnk1gDB0C/hwqnrrhKnkgdbPQGopPCc6g2Oy69EGZdqtpXV8+pFQ12RAXCJExxGk5yqLa5sFHWZ1/jFSySXmeuW4zilUtnV1aXRaH6SLjguBVpLStrjCywzA+1fHuBy88wcyCBv4946ebbFyAKA2F5R2pWwfJEa4G1lxR1zVmaFTu7bK4rqAhoVg4AYpl+QYVYzgK+jtvaYZ4BhRFFUxVuShYPnM9fhqjlfNH30rgRb2e5mRiPH+ZR4b3N5c0R62mC5JF9zabHTXJBtZHhb2V4rlCzAaOMzE9Sdh6o85swE9URIWx+RRovekxcsCTQdBICAteQA7v3NOoO0t/rdotqkJ1MV1GEJmfjUJm1PY4cYo3bYGWMmB0DssPbokjRKVh+odvAGEwfA3VxV7uDdvoiFljQlhO4Ae/EJsLu5ssw+GE/xwhh64LAF9OlKDR9Z19whRhsYQOxuKi8/7nOL2vTMBE5s90Ftusxxlm+vtU2Lt3AAos2Rx6oqy0VEpmYrgYmUcE4IuUknQIl5KZ/tene7FNAsWZM7PbRUM9/gKn63KNGStyRWkZiMLw+Yf6ebdG3DxJhk1XXq1FDI5Wpmy8oyxGXG1xwuKxVZFoAu0RI3VshljF0ZpMOXrElxKK3vzBmceEvtsx86bBfCwgYGBmTmhQkskBTvqCovB8Qw/YIMDhCcdkG/YEIf52X6+dLioh3tCpkCcslYwT+NOZb/8qMdR2UybvC/PJm897sd755QSGUqc2p2qiE7t/Wz7durpYBEn7HGcqn2Gj2LnDSYqNixY4czNftnF0xdB4lCowpdwso0mktnEBh+du+Rou3bqxUySRAy/Tg9EYpLN9n2eq7ydxOdvFDnrBRv9IcICwubOXNmV1fXuXPnKOZyVTztJyW6DMhkUfN/lo3LBlwuXSx6glLq9UKdUzAaWUDosPdpQ3W1fHYHo0Xr0Mn9YP6hEnDXFDd2mLIM3sbKBqTmZJ8PgLRf4h0u2hXUcemhlPiDexs7jcn+eqc2OW4wPu+z1brYwZ0KAjNYnT0kJkF3rNZhzjKyk+O78Z1y9TqrPyuqBoKQxvIAxVwImSRBl776DnefgzVaOACCo7WLFw6XdUHk3bD7THHs4IGUbyw9HGAYgJVKBTd/YaxDHTeqnkvoiGxz86gqc0Dk3T0OwWAcHFsU46opbRauGNIWOmuqWjWpmdEsINgP1bEL8/LU8ForKxvlOeenuSCEkEuQRqUUPHl+1ixLYQEAGHILfze0yO/hDRkpk7GoHROTVRAz9PDqZsuC3LDIMmpY+qLl5+/LKxOWZwCIGWNXyFo+uIA1WvKMAOSDE2+F5pUZgY1JtpzfgehqtE9LTJ8Qx/uowe4HGPIKB1vRXFBoBhC17lKzwilSnlwHALlPFo543VlS7PnZb39n5oDeI+8WNcx/MjXWsnbkVHPD73XBZ7hgFrmktb8bnHDuwqnrkvJzQw90S/LHiEgOfUJFfP6T8bd90xuG+x/YwfnhYMjIHv4pqJNX/gIj1sgZ0aezBpdlne+hGasfubDX3yARERGnTt3cIVoTJebisda29vq4o02qpCTPrs9k69YlOXZtr1fJfQ7/7OxVOuslikWPONYHmnb8pVZh0ACeUx597iNLdFJnddGB1mCwt1eSsmptSlRv9fbtrZpYVbDXeQq6WA5+eJyhVeGs3llihTTAy1ML8uNvt8tmpVEvHHYIRhMrdNr79ElqAPDaHdI5mTG2KofPZB55Di/wAsNxDFw2+7T45VeTcXLJXUHwB1g5JziP+bVDsXLeXt8Rk6B3NIRW8IEbdUiR63T+w4MBonFvRBrtJZbIozQqX8aqXBpTRMgkozTp/dV1DpnJwgLg7TYxOSfHxAEQ7OVldm+ceWhFc7ysrL7DmBYTbVI1NNl8FpP8SkdkWeryLAMDwGctq7bzRu3g+Y0mIa6pvNFtSJbL4fCJGGOckuCqrbQqF2aaQ68JvF8WoWQAKCMjYOUB5YRKOL/pLpPVTMgk1WstKf6mHUmr1lJO+i13lRNvMZpkC011fhFFbJTvSPGuJg7gg7oluZe54HMeKa5uD4QeS2Mz8pKiru8tb9R+yOVwHBcMBm9qqstEibmozKnxKo/cssSM3urhXuriCgvXqQBnSfElikWPEvTLE5flGqRwlvx3tWNJfqxusJR0046/Wj0pURLwwZnJuZYoOEveKFH89kkLh9ZdW2tPLuHai5vMa59MUQRad/3Pl63x+bG32xFWbxSqHbxJ39Xq1y9QAoDL6owwxXFqUVpu95oTlLigtjnQwYOTX3hC7rNVl3UNpqh4BZXxErsanRLPN/OyiNAZutBea9ckWeTdjqGjuuCsP+hFQJTHJicZ5AzkEdP4Lh4TIuZyPo026cIluaF4n9Sca7F+tn07pIDMnF2QqqMDHyGTJOii1wmN7nmZLEKzTcyxDI3i18+JKLW6hivJsTFJpqbKZm9MQsyi9L6aqr02hmXByEwL08Y6YLiszghz3OCxW240MeV2n3b4vMKYqG2us/qyjdq+UEGZ0RuLHYfKrD615nC5A0DEnPRFxnh5dXm5XRo2MMCaF0ZPioTzG+lmpyuT8WvyxuMUg5PFEDLuum7euqvsurqUvPyUG/CWN2o/5MoHZFEUb97+J/S8RSqDPnRde8li0Rc0hnxw4JxEJgkGR5aSdgVnBgAJJCqVKrSCXKHgACA0+s9z0uPzlxS1AvDLJEEeuN0i93K9EVUON5yCfqESgNhhdfh6esrLAN7HD05tcUFtc5YD7xMxOtFFbkrNHlHP5VK7Gp0SL2KwKJLQUduqXGBRQugeikEk54QSybzNpdU2TfZgHR5xYnRB6fk02thQjuKIxNrYwms9fhNCJlTQJSFvKE1WGZcz4s4jE5OxPAZA9lACrtycE8rPZdXmjJyRBwz58DoYzuJdlDPi7iRrtOQAwPKh/auTl2cDQNw8VFu9MXFKANxw9i4Tk/XII6M/5qh88wmVcE4IIYQQAoSFhVHM5QZc+o5dLPryhktJ81csJa2aqVEp8gqSbuMcSU5vRGWdjdGnywEIHbY+c3aoGK7YeajU2ikOzZA+XNvcqDZqe+qs3pi4y86SMdauhu7OKs3xsrLaDv0iOefv4RHDuRwevu9wWRfAu92obJRlJgzNqMGyodgMfD19nJpuoRJCyE39T8GQYbmOzSjhnBBCCCETy8DAwE3NPZwcMZdLFYvOv+yYOM1wKWlOqph+2TdQpeaaP9vxboNUCokmOS83/jasg8rpjEyNLRRy4R2tAWPq4H1KJtqsrWvuFPXDZ9Sh2ub6tOjkTHPN4dJSsCwQpl+YNUY6xpi7Gp5bPZQS3+jLNrKVDl9cXEza8tD9UsFWXsVkJkQLHbU1x3sQFjYwwOgXpHGAz+Fk9eks/fYJIYQQQgghhIxvUwKBwLj4oDe7sA25uUR3Y6VVNTxX9CUJHVcxV/Tl51of5na7JRJJRETE+b0LQnd3t053w2qmjJefDyGE3EpSqfRaj8/X6oYfz2+Gc+fOBa8qsZZMRmFhYQxz5XkKWk76Nu+zAdj08ziNgr3h69P5D7nOa8gpUySSn/7m/cDAwE0dEkLGtau8ZgTQ2tqq0WgUipuVNyGZxN/CqELQhtS8FKpeevMw6gRL2lWsx8akjawcQAghhBBCCCGEjFeTOeZChaAJIYQQQgi5Nj+y8MEPHj4gnlNyUvU06Y//MMFgcMqUKVeTNHSBgYGBgYGBMZM1vHzQ3SeETZkyawZNaH1T+sCN4g8O9AVoJAQZm5oBc3tMECehL4MQQgghhBBylX7keP+Y6bIbsp+QULTlOnYVitSMuWGEjImQcaDp3m974rkp/uAAtQMZ08C5cwxui6ALxVwIIYQQQm4z7cVbGxIL8wzDCzzfbP0yqrDAfJ37620tLzl4Mijh+aD5Z48sMUjHX5OI7RWl3QnLk0OF+r2NpXVyi8XIQnQd2l0tz85LUIaWF5c55GoOoiCq4tOTYzhAdNtq6mx9YCCKUlN6VqR9b33E8qxQ4/K2sipkZptYABDaK3Yfj8nLNnEA4KrZXdmtVHOiIDD6BelxGhY+W0UtkrN0XWV7rVCyAKONz0yIZoTOxqqm7jBGhHZBRpza11jeGJGaYaAcCUIIIRRzIeT6hYWFUSMQQgi5/SlmpuStU3CA55utxQ0p61LGXzSAiTFFNNndUKsBeB0OWWw2C0DstPZFyvts7oTBaAwTGW/JMgCCrazM5o1J4NoPVnUYLDlG+dCevJd6C8FpH9AydrvPFBdamdUvtCzSAN7GvYcdpmyju9HGxeXI4XUwg68M7tHa4I61WAys0F5RadNnm+PmoKzZbUhWU9cjhJDJjmIuhFy/gQHKZiSEkIuuja+9sMKk5awuOtAK8B4krVqbEsW3luz40smpFJKgJ6hIBALObz4qtkpUCgk8fkQBaN21vV4l9zn8s7PXLpHUFxUf8XMISJLyClI4a/Fn1b0SCTAzdZVl5snynQdPSiSAIjEvL16hCEVZAkFIZOPz9I+JNkY02FxQa+C2OaYZc1gAgsPm1yUl8tXWTjEtemTP43mR5VgIjuN9xoXnAy6X4bPbBoypczqq7O64hJHRElHgIY1g4LJ7VCYNAMEHbsTUC4Knm4kxsQBYTTRqukWzMdo4rWEoQEQIIWQyo5gLIYQQQshPQ5dasDYVCNRv/6vVk4L6ElfSuidTFOg98u5fTgK9DSVHZxcULlEhYN3xRn1oG6dLUli4TgXw9durNXmFlig4S/67rCkx1douz/hVfmwouOK0WiWJa9cmjZr60nNkX6s5O0M6PluLiTapGuwuaBh7V4QpiQHAO2wBfbpSw0fWNXeI0QYGELubysuP+9yiNj0zgYOXFzj5hVk9YndDWdnx0GPejTgAgNdul8Za5NGyiAabK0GtASA468rL4fMyxvRMA8Nb+1hlKHjDCM76g14ERHlscpKBEUSGDc3LzLBMQBQATq6EzSdCTQFIQhH+4vIAACAASURBVAiZ5MZTzIXGcZCQ26RSOiGEEPLj9LZ+c/CoDxJ4PMGZAZxxQWNWAIBCEyU/CfS6/CqzCgCk02eqBjdSGWJDDz0nXT7ngSIXAL9EMtMfm7uq90Dx9oPQp+ZazLrsVYkHS7ZvD2qSc7PjVVKgt6loV2tyQYFOOl7bi9EYVXX2The6IoxJDACf3ebmUVXmgMi7exyCwTg4tijGVVPaLDAAOI7lfTzAjtpRZGL2yHouAOC22X09XGXZcQi819qRrIkBWN0CyyJle0VZFxhABBBK4tIk5+QAALzNpdU2jYVlRFEAOEAcCr8wDCgXlhBCyPiKudA4DhISFhZGYRdCCCHjXuuXxa6k3+bHSnuPOFt7gekauFw8dBx4j8cPQKGSeVwexKoQOOPyQTd6c4VGM13+s4IlqvNLknILkgLtxX/5stWcHxsVbymIx6nyrSVW81rDiV1FR835BfGK8dxiTLQpsqGuDqrEZAaA1+6QpS7PMjAAfNayajtv1A6uqEmIaypvdBuS1TojW9bYYcqIuWwJG7HT2qXNzAuVaHHX7m3sEIY2YA3JxmNVVl9O3DSZ4PTCpDm/GcsyEMFEalHvEkwGVnB1QpvMAKLXjWlaSnIhhBBCY4sIIYQQQn4KGrPe9eVHO1QyhUSq0ABRqbmanTu2H1XIJEFepgAUybnzdxa926pSSNAru3BzRcqylF273t0ulUIiT8zOV1l3HHBAgmBwfsZMnDpStM8alCAY1CWn+I8U7Tjqm+nZ9e4RQKqzPJIbO06TXTRGlc8hJmoYAC6rM8IcNxjXkBtNTLndpx1akTMmapvrrL5ssyl9IV9dubeJYRkwqnnpyWPUdhE7bT3auKFgitps9B928PFDr8rNiRF7a9tNGcaIJocbGq6jtuZ4D8LCBgYY/YI0Dow5UX2wstzOiAORielyQOy090WaqZjLLXTqmx21hrW5N2yqr5+Y6G4+eNgRYBiIMmN6hklsLC62RmavHCpaxNvKPq2RWh7JigEQmq+LT10dihkKtrLK4bm4Lv20veKjw6wlLy2aBSDYy6vE9AWoqbP7BZ/Ly2jUHCMzLsgwKSdsl+mpfufQjF/n3Hm5Jdetr+mT6vAH779TejN2fpvgnUeaj/eAwQBUsffcre765utq/53Lf6YP/WcldjeXftl7Z97iOXIA4unvquqmJf8sfhoA4Ez9vq47ls2dMbir0U+9J77+ftp9S6KE1sNfHFPet2zOdAYAf/xrm+K+O3orWrvEgb7uPjZSIWWmxS6aqxsHJeEp5kIIIYQQ8lNQxOcXxo9aEpu7LnbUAt2StYVLRq2RX3h+jaik/CeTzr8WtXbdiDVTCtalnH/25B9SJkajaRatXj38MGdkyonRkgMAy7OGIifJy7ND4ZfoBEt0woh9JAyvA3Cm7GwAyMiJOb+CPC7HAsC0fHD/THRaXjQAJJlstTY+y5ScFTPqUzGauKzsuOGnXutxzEvVUBf/MSGUoqPmAkvUVW8QtWRt7sT58wV7g0OTnhP3/9m7v6Cm0nxf+F9Ya8UsScCFLP6EToxJG+VPkxa04wBqpuNRnGHvlmmZPcwuZ59xqql391u1L87lOXenak7V2VWzq86+6Auntl3nUHvoM9iN3W9mS7NNd0Bxm1ZwQP5onMRIJPwJsoSEXjHJwvcigKio2K2twO9zRdZ6slby5MliPb88z/N7kGyL4UXNjG9MyS9MzaoLQsxaHEc15RvPzIF3RBELn2dsVZZm5vKlkYNVhQsz77LMVXYzZK/Lw+y1m1XUDL+7jJL3313jb3Fy+HrcsO/HOQ+aHKPNRjgY1aeCLGG/rM1ZWBlEkW7OZm2cDd0t2bbpeUIVm1TSlat39729aeEsm7btK9+G2etf3sz6cWn+qqksirkQQgghhBCyAhrzvn0r6csW2avWczUlJrpPO3tjHAex6hc1ptiA87RHYnnIbHHtkYpcyf2RS/ywoQSAt+VEaH9jVbj59z1ag4BEZCKqr/lFNT/o+sYrBVujxVX7Y186JT3CQW2pJXIlUXO8WkilPOcbjlUsmSk34T7RYWis1z+W6mtVYjLU8UAwbC4SFwIfCjKNulnfSLzQoMJ0YDzDmBMfm9815p0Uimx8X29q74pPwht36oIXLo2IVYXP/QrvJed8k9FXXlFZG5/5fqXrf2r3J3FvOrbl4C935iPs+WOHj83MYDEtoxJA4tEtk53/Xxcyk8GZTZWHHTm3vvzi6jTLJPHGuz/buen2pS8uTDIsoLEc+umW6Df/3nkDDAv1NttPH0oNP9v9v79S//KvSh4/3Zqh3shJ4fGooNMsRl3SdSZV6NbstpIMxO/cjos69bgCAIjfDsUKzEWxIf+4Uv48ky43bivadK2/f/Ida86qriyKuRDyQ/ieA1wjvS1n+SN1lqeMBE94W09FDjRUaKmyCSHPEg1cvOybVeSpsJIlalScvmxfXsjpCvBZPABGV1aZMeQeL3LsFhnEh7vOzegN0/7hlQ04n5ubu3PnztPP/+233zIMk0gkvvM7UBTl3r17zzzRK77HYtmNGzdScyPLd1nv3ZNl+ZnFZmbuzd9ISFJ6fAX37ffi7+gYAHLk7p34S1lPhmGYjIyMp9619Dm7C2obq3Pnb1BOd2D/B8cMHCKeky19luP6x5+SjGnKDtUaOITaTnhGq+usFXpPaH+dPRcRjzwc0f3DMTuPhD/wsSdUXaMLeQaF8l9rlz31Mqm+VmPMJX/33njvFZcznmneuXs+8pJp1Acvh+IG47RvMtNcpvKkYi7KiHdGZxWzVPqEJygbzCufaKFAY7EVBVwXh7P3PO8rnIrGf9fme+UV9Xd7DYacp79jYftP/2Y7kAx8/mnv2E5NuOv61oO/qsxEIvDp//ICiF59dAvkmXHsOf63IovkXz69jH3v/1zPRr85/cUVy7vSLeatw++Xpb4AM9eH7pn/urZCeOI3c5mDrxka/TvvBPsvfjPIZBeXv6nLYgAwuTrtxdDdkm0bR8cU/XZ1cHQWAO6F/EndnozNsaz+a3eUvNwVX5nmkL7xzXdyvu76S/iggWIuhJCXSmutr3tCpKXFmaivKwE4S10DVRQhZGV3SsY9diMw3HlmttyRGrw+HVqSyQWAxhK4MDRlt8g9N/gyu0FkDNtWNuA8LS1NpXrGD4/xeJxhmGcWe4pkMpmenv59jvADoHyL5OnNYyUNmOPmFv7gVKpnL8JzP31Oit0HkM5yKhX7ahp2JBwTLItDTKITklZfwAGAtiA32SdhmZgLqxG1HACwaiD5yD6dZSsPAJypyuLu8soV3mFdhYN74qkfTfW1OqMuWYZyu8EaHe5yX+AP2oXUpduIc4GoemomryibCc5fT4P+cTl+2TUORZ5CIGoueq7rosZis/hcl4JFj+T2WiWenVMjFhzs6pPAIjqaVAPR8L0sSyYAcJn5ArDcFvAb8vJFFgC+vROeHf/mq8+/AZJgt97Lf/fdkv/o+uO/Kpt3Vu0vzqz4612ezn//Y2zj9n1V1oJlvm/LHHwNUeXoyw/o45M3/+Oif+Ohbal2u0Xw+8flTbfSt1Sxc6lGGh27Jd3DxZ4Q5mLSbCieq3+etsYIpp0FFy//WWukmAshZLmIyOMDXCd6W5zdMR4J1lpbX8F7nac9EZYFCmxH7CZ26VjcqvAn84Npy4/sj7acVh87VtB18nQ4V8cnZCnK247U6qUut9fLtrZK1hqbfPpjqaaxWu13n3YHwUPG1gNHqw0YeGS87urNEUoI+QHxxnKj29M1Cb7ELj7Pj+VpaWla7TNG3CUSCZZln1ns6VEbWZa/zxF+APfv308mk9SWyBOCKZxarX72NzE636nUaDRa7bM7KmnRtBtTcwA28BkrKf8d72+ePkhNK6qlkIT5nOaaXEH2h2HVAZHRCVYUwLFsMpkAOEQk6YlfkWTs8V25FSVRZ5tHtlTVLn838/RUX6sw8qIR81U34spCH1dv4lwX+njj3izEU91ZOeBTyg8eNPMA4gG3KzBd9JyjqrOKbBafq1fO3v08zyrYpD7xn62vvIIi95S7sae1xnDXn24V/ubwDi557f8GbgEaYcN0eAZbM5GYmYwgb7ktADDfvjZuFjMLK991LImn7Nh3cAemuv6l6y/bDu8Q3rC994YtMviHzwbNf1f2+PLcyx98jUVehCwtxhfaKLP5zc39lwa+zTT9iGHGUx/SrbB69zs2PQNg9kbPlVv39Nue72uw+e0i8czV68rmdyjmQgh59P/AYwNc5d4vPWJtoz0XobaPXANlNu+wpurXdabUoMhI99KxuJHw4mBaRDypI8airKmhtoJHwtvycVeoscZaLI4KdXUlQGIAADDsagtXfHDMwkEeaG7qmmisemy8roE+GULIMpTJAbfbD6RnmHbvNvDQ6I3MpZ4Mh0jpbgkhz0NbVltxuvVkEweI1UdrLDV2v7OpGWwyyVprj2jBldjUrZ+0BkUOEaiXX2pYby1wO5tarI6aRw5djrMdlg+fFEx5eqqv1SPq67rgizEqBgpn3LmHx/zKKapCc8bla4V6HogDAKYDAW6bfSGtuX5bZrs3bMnG1NA5VwAAI+yoLMWjDx+VXVRp9p2R1mRjFMxb73X+8cx19QY1MgBodlZt/6z9DzczM1jMqrHslqVd5TcP7vJ94fwjGGCD+d2DW0bbv7qhMEgq+cVWbvban77qi7JMMpnx1n7Ncqd/6sFXufEbHVenGRWbriCjuGgzEEptz8rXKaFvTdkL9w53/aMZph3zjzK26NI7x2a3ZSEx0ff1LAekq8W3fqR96GHx41GX7NLyzeNdc6u2stK+z2zqH1Iymbx///6T9ycGmj+WahqrBZDHTPefuaJx2I0qAFCGO9vHSw/vzgZkn8s5su29fanVtoY7W64kRIFBQknX76yyZDNAdKSn55o0xzCKoggl9vJ415kZ6+HS1CT+8KUzAePhVFa6hw8V97k+H2JEDZS4kmGx7TFqMD3kHsqs3DO/MHp0qN0ZstQ7jIzsc53xIksFMHkle0uzxy5ekCx7S7OfdovPsmxa2rPHEk5NTbEsm5mZubglHo9PTk7qdC/sV49nfH1CbR91WT6sNyG1spuusV7T9k+fhPR6LYCYhLKGekukt6OrLwy9rcZuiTwoDyDiOXlafeyYlXvwd0HXiQ5dalUY6fxHbcIHDTrPiTahsaFk4Svwa63z40ht6osw4T7hEhuPYvGrMeE+0WVorDPRV4IQgtR1/8xs+eH5uUX9Z3ozDz+YWwRl7JI7mK2bDWCnoyh12V9pMguO4573+vy8Xvj1/GWgcS7kKdLT0xnm2QHN66PR333pA/Db94vEFYxbed7yL+X+52WSzp90ahuOWXlqQq+4D5mWxrKv/sf7Z45zIetZvkbFMSua5Ov3+0VRfHmDZ9fZOJcHi1+sK1l6ffxKKG40qoD4SGA2rzQbAKKBIJMH/4PVtjTmXfbSLGDqkrN/xLzPMN1/rg+2g44HAZDhJ5zhsUMhu6jSblZBGek60z9mLI/1hvLKF+aXRn09YdX8QeNxRr/LvnvxN47CUt21nqBln3Et5Kd7fICrVhQ3aQ7UL4kNaq019dbEsPP3Z/2WAw+NxV1OLCZNSLAIkENBCKZUryY1PHe+pyOK8IYTEDjI4VEUFANhuuISQp6bEu4dUHbsNRfK8fYrPr3drKE6IYS82u61t815fhjWIw08gIjXfXZgYWiGaK2pNlEYhrxCs3/p9FxfaJA5ZVW2rRuoUsiCtRdzkXpb2wZjkCOypfZYtRB0n+oaZVlAW1br0HbPL35RcqDa8iCMlUgteCEC0oSUWvAi4Xef8owiGYmoqxrqS+BpavKLJiEZCU1AZ+IRgxSaLyr73afcQZZLJEX70ZrX83qfZdTHLwfjRrMqPhaY1VuzAWA6EOS27S30XQhGzZalN9NxOc7wPIOwL5BRcjh7BYPKn3goxGMJlYaPh67F8nbO75ADvSOFpfpgX6pAFPxDP1NqdLrY5fkA0aqPuTw2wFVbcaiitfVkE8eB1ZQ56gRvc0cQLJLJ4qoCaPVLx+Iul2VSrU4G3S0tsYgk5x6o1wGwFMunmppHbbWOVAnd/pqC0580d7NJGVtrjuRSzIUQstIwy2Sfy3UDAKMrK1P6oubKchWgsuzMdF0O6OxG6s88r8QcwrJC9UCWtZGDwNPEvee6rbLUNFiWPLLXWahS1g/Pf/1N7z/8S2P+6/r6Mt7c9+6b9DGR9RJzEax1DVYA/tYTPaPV5V4vW9bQYJ0PsDxY/OJhyZim7FCNgUOo7SNPsLrOxJnsDSakpnT45RIT5GRBeY09F6G2f2rT/v1xOz9/Ah3b0TZa/utjJbw80PxxR+jDmtdynLNGb4x7grJZP+6P6XdmAUDYG8o0F/HZCucOTFtKswBEfZfdk8r0tLrUXiUCIzJ4zaN3A1GfxzU+P0RlOi4Yn3AoTA1dcAflqWjmLvueLHlIVmemQi7x4Z6AaLVrJucXWwcTD/V2TSOhaEzlVoOGgSYzQx6XsSYGunC66obG6oc25Vrrji9ZcSy34dhDeyvqj1csPjq+uE9rO34MwARQYKt7aHJQbvXxD+fP0NAIADBUP3zMkvntQK69sY4ueoSQRYZ9hxf/ziqt/dnSaf6OfQtXabH8oD31J29x2KnWVu7+/ftz96kayBOaB1UBISsT85z4r5//uffa+D/+l4Ct8X/8zQ6qEkIxl1dLHu7u6AuDRWQ0xgM6x5GyrrampqRYXuMoeeKUjSUJ6thkEkhIXk+XN8qyyfDdRDEAsIIgpApotFoeAFgOABLhsCRJzpZBICmzwms7bVujN+JCcAqhuH5XFgBlxBuMzsy4XYAclX1TpeXZ83OLVD73ORkMABUPOarg4YEuGrPNsWQ9lycdKjW3SO5vv5xgGCgAGACIj/T4s3basxCfnD+eWH7wIABgeqjd4xMdltQPqfS74JPQygCEEEIIIWTdUNt+9TcdHryXN53XSAEXshqttZhLqMPp1X/QUMIlBpq9NwFwuSX2+hJMuE+0eS0NOiC5dPGLJ0gMOs8mD31Yk4sJt9/51KKcKIqi6Ui95XXPv8vrjTh3xcfoKzUA4iO+WYsjtRiuMnax3Tum7FkoaCwR2q8EzHZjtjFv5op3urAo62lDX5c7VPb8vixLidrVM6LfreFjMzIK+XBQkmcvu8YBeWoK5/rVe0vz5w+uUqViM4jOzPLZtHDAsnLtjfVUC4QQQgghZP1QW3/1W2u++u6YmuqCrEZrLeYiWkzy2U+aB9VaHhoAE90tX3qTLJJJXXkFB62lOJFa/KKm5CnLEnOGYsHjbA5r1VpWzT99/WLd/gPi6aYmDwew+qoj9td2AS9eZ2Qu+VIhFznoTxhtqdEqYPIteVeGxhT9fEFGtBahvXdMvye/fK/l0uX2dqhUQLp+175lps0ue6iFmAtUhVbzwLn+qMOoOheMFhUV7jlcCACI+9wXmL2l+fGRnks3ZpCePjfH6Hfu4YFoMKTSV6rou0kIIYQQQgiBOj8fQH4+1QRZldZMrmjyelOm+s95hcVc0U8UH1lLuaIJIWRdolzRKfeScxOzcWoPZFkZKiabf/YoacoVTV7TPiTliiavPcoV/WrJw5627tD8A95ir3nySi/kxWCyS+17VlBOVbjHXkjVRQghhBDyukpPT/8+T78Z/jahzAkZnKh9Ael0E4nEd+v/K4oyNzf3zBgxWdZr8lu4ikEOz9LHQZbvgKanvSavZH22Ud5gqzNQMySEEEIIIeQ5zc3NfZ+nb9msfiHHme9WMcx3O1RaWhrDMC/kNaxDKxly/gPg0tOU+/QJkie00tfmlVBckBBCCCHkFZvx/MvFzb85uOnCmV79YYd+Bc8Idn0aLHq/MnvdVJESOt99p+Sdt1Jjk6dvdvTyP9qXr4Jy55sLVzLKD5RkpLafdYc3CiooyTnBuOvtHDWgSKHeP4e+RTqUOc5UYts89vXVjB9X5wIA7gW+HkBVuVEFAPFgX/tfcg78WKcGgLu9zqtTmdoNSjLBiKV7tmxWYdbf149tuzZLvVcnEkAiscG0u0inQXz85uXBaYaZQ+62XTu03w78+Xpm0S79BmrZhBCy7lHMhZDv7nuOrSWErB9zc3PJZFKlohXCyVPlVB52PLYx6W3/Mnnwp8UPb9VXvf94aCYy+PkF4b1DBWuxbpg808brtyIQtAAit8PqrTtVABTp5mzWxtnQ3ZJtm1LlNhsrq3OBRODrK7emc7bzE5f/Y1K3b5d+MSfi9JNOkRi/NScyY8GobluqMJdbtm/7ZiAy8E3vbV31lsh1/4Y3D/BMPL34Rzo1A2V8qPP6XV0Fd/NqxLjvbZ0qETp/9Va03LTjDXw9fFc//5IIIYSsYxRzIeR7daKoEgghK/2Py7Lr5KKRGupPViAR9vyxw8dmZrCYllEJTHae6tIffS8n8OUXV6MsC+RUHHxj5NwtH/vVn+5aHLvv/ekPt9/QzNyC+d3ysX/zvvWrQ2LsZtcXX4WhZjYUlZcEr/pubvxTbIv1J2VvrLlVKpi8fO3V0B1s34xI4LZaf4ADEL8dihWYi2JD/nGlPG9py4vfU9gNKsRv3/52y/YHAZeniI7dmsvf+ebk5VuRbQ/lt1TiMXCZ6ZgcnxYKNgNQbZifHBNPpKs5xCN3mJwtKgBcdh567yimLcIbGf6ghE20YiAhhKz7O0CqAkIIIYSQVyB6tev61oO/qsxEIvDp//I+2DHpH9Hs/OV7b6Q69puKhLFN7/60GEj4lNEZzf/7Vz/XAjfHAACjHV/Olv/dkTd5AICYn8NafvrTgrVZX4ywRfDfnsRmZmwyU1fMALgX8id1ezI2x7L6r91R8nIZQLkTuNB5+1tpTtzz1nYeETm5QfPoADPlju/817dTf8ckvAkAiNwa57ZaM/JU2quhOyXbNwNITPZ3yojOMltK3tEzsRsyl8k/OEp8qv86tlVlQJmaY+ZXYk1XpSeUJLAhIxO3ogoECkASQsg6t5piLq/JWk2EEEIIIS9ANHwvy5IJAFxm/tIBEVurfhK5/OW/XoH+Lcc+40NhB/GNwqUjMOSZaU7M4ddJhTHZW7T9t6buQNJuMTEAomO3pHu42BPCXEyaDcVz9fNzizbf6e7+SzwdwAaevReNAw8N+2E2m6uXrucCAJHALTnCXz3/FyRiszdDb27WAVxO6b7t2mBf1wQYYA7AYt5RJXLjYkD9tlXHAwqXrswlAAaYi8+lq1gA6QwUauKEEEJWVczlNclJRgghhBDyAmiEDdPhGWzNRGJmMoK8B3s25JdVvVeWvP2nTztuGqsAJJPL37TxmVmJW5MJbEqFFFgWybXc02fyCrKv/qUf2uK3GQCRW2H17ndsegbA7I2eK7fu6XPnC24uNlzvDNzVb9tUkM99fXPMVJr/1MiUMn57Mu+tAxWbAEC68fXAnbhufnSMSr/tjesD/uiubRmqxOgssAlK5EaXb674re05DAAwWSJ8U3GdTpWYGof4NgMoEQkZeTTIhRBCCM0tIoQQQgh5FTQ7q7Z/1v6Hm5kZLGbVS3YEr3zaOQYWStL0Tj42acz3PnV+OvrWoXcfP0ZB1bv+f/vD6R4WG4r2vfeWqXCy8w+fWip/stO4Nge/bHpDkEOKKZsBcNc/mmHaMR/XyNiiS+8cm81dKMjnF+cN99+Qq7fpdlXc6+n65jrDMkjP2l7yVsbjh1XC/tmcHQsr3gpvvBG7HpKNi8cyvZXx9Z8ntvwoXzsYvotNyp//PCRtyL56NQxAnW/9kc70lvZy15+DzJyy2bRLAyjS7dmsret2MRd/6wmvrbFG9/LPJJ0/cTa3sd6yWmsqPOTuCylKNDytErNVTOY2m3HcHTAe3i1O9zud3hzHe3vyUy1c9rk+u8TZf7GvcLiz5UosW8MATIZ51x6jaqznQp+kMFCUjB2V+snL1yQlPh2WeTFLxeSV7C3NZyD72p0jO362z8AAwHDnJ+di5T87aOHnW//Fz9ulovcOF2nClz6/IGVlqZS4kmGx7TFqVn9jnHCf6DA01pte/pm8LScmDjRWr7GvfXyk58IjLSrT2z5jPVyaFb70Wfu4pba2NCtVdLrf6fTmHfzZbnG63+kK8Fk8AEZXZi/ihy95rs2AgQKhbFd24IpvVpGnwkqWqFFx+rJ9lmxgut/pkm0/2y0CQNznarnE7f3ZPkMq9B0f7vzsXGJ3vcOsGu5suZIQsxglrgglleWFq+M/HcVcCCGEEEJeCU60/c1R29It+46+BwA73//bJRv5nb/8f3am/nz/Nwsbt777q60AoLFU/XxJj9Pxm79Z23W2uWLv4YX4i/XAkrxAqvzKAwDw4+qF3W+/k/pTnbe1Mm/rkmNsXSwDbDD+uBwAfrQrf0mNbzvwNgAcmj8+k1d0IA8Aikyhfv89W8Xev654+GXlbLH9eMvio8iN29hetJla+FMNO1vC++srtC/h0JHuli6xvsbw2teBWGR3FGG6/0y/4KgqBIDw+Pwuhhc1M74xJb+QARANBCFmzQcYNWabY6Gfi+hQ34zR7jAuLFpksBcCYxfPBM2OVPcVQDQQUOUxgWDckCrGZIsIBqKWIg0AZcw3myUujMlS6Xbad4tQxi6e6RnWzwdp1ryX2WAS3hZnor6uZJVWjaqw/NEWNby4+FiWqAr5pkrLswFgyjeuEheidExOmWPfQn2GLw3Edxx0FC40pny7ERjuPDNb7ihaeMKUbzwzB94RRUwVY8TshD8032LjoUBCXGjN0Jh32UuzEB/ubO8NF+4RKeZCCCGEEELIGpFhKrOtoJh2x9u7qLKAiLfN2R1BUpLFAw01eslzyuUFy0JtcdQW3OwY8Mtya7jYXlOyZGiA3H2yGQ3HK3hg2Hmir6yxNtl6wg1dLpeITEQLDhy1G/hE6PwnTi8raFlIMeQCkHpb2waTkCXZUnvMC6xRqwAAIABJREFUGj3r8d7UtsqWilqbGHSfcgdZLpEU7UdrTKtn+JeCTKNu1jcSLzSoMB0YzzDmxMeW6xNnqKOB4LTOnKV60qGmvEH1tsrCG56AbEyNbWH0ZnUwMF1UmoX4SCCu16sDD09KZLJFPhaLA2tmvFzC7z7lCSMpRdRVDfUlyd4WZ1+SZcGa9jsEz4MGY1iy9NOw86O+sg9rDYDc3dSMo8ctfU3NfkGnhSxJbFltnVVAZKC1pSvKC2p1LIytjzX7/azH7fWyra2StaZa421xdsd4JFhrbX1F7hqo1RyzMOkdU/bkM8qYbybPmBmaXqYUn6WSgiPRfIPmSSE8Zcw7KRTZ+L7eVIMHFLVRPxdItVg5MMzodUzwkZaflc0EZAVYDXFBirkQQgghhBBCXjStpabBAiDU9lFXEII0IFvqjtmEVKdWW6YbSNbUrWScS5S3HKot4SD3NjV3S8et/rbBrfWN1QIS3uZ/6gUAwVrXYAUS/tbf94xW11YYRK6srtYAhJxto+W/PlbCywPNH3smPrSvpo5uplEfvByKG4zTvslMc5nKMx9zifouuycZpKfrSvdZsg17KhO9l9uHlJyiXeXm7McjL2HfeKbZqslOcG7ftCU1QIbJM2de8E2VlmtCAcWwWz3sm324yoNBJadsLU1Q5Ez2BhOAiOfEab9sQp8kOn5do0s1xgcN5lnkZMGhWnsuEGr76Ky3uF7d0ZGs/uCYhYPk/qj58WZfU28tFkeFuroSyL1NHrG20Z6LUNtHroGyhhJu1deqSjDrfENjSn7+WGBWV6qfCs7HXJTJAbfbD6RnmHbvNlj22rw9F870MXllu8oNWY8FSZQR74zOKmap9AlPUDaYeQBQ603pFwJRSxECIZV5FzPwcMxFmQ6Nq/KNq2QgFsVcCHk1Ip6Tp9XHjlk5qgpCyA9JCV9qH8pz7DOoAGXsYntAf7A85v58CNk8AEbYUVleqEpN8PdoHPPztKf7na6gJpvH6ppATQh5lRITvV3fBGMsKw/HknoItjr7efepppi2eP+hiudZ7EUjpOI0vCDE/BIi4ZhgEQCA21QgAIA83N3RFwaLyGjyoatTIjwhSRFnyyCQlNUFsVVWgxqjEecCUfXUTF5R9oOf+efnViz2e7PNux1mZdp77lxPxuGFBWCWdGeD8syM2wXIUXlxIggjmoU+71g0O8CY96qU4YXi8VBfZycHJttUac1eS41RGujquhlj2WQ4migGX3GkJtZxqsmltuyvsa1kTlFivu+sFVKjsgRRHZFislpiC0QOAASdwE483uwfkEbD0VBHSxhAjGULYo9kU1udmGyjPtYzElWCcX25BlOL23NK7Pse1KtKtOw5aImH+90XejWHyx9pWfGgf1yOX3aNQ5GnEIiai1QAoCo0q12BqTyMZ5gtjLRYXA5c6ZxKh0osqbSslhWHKOZCCCGErCOMWGoZcPdPFZZnR4f6Zs2VhQx8yC7a6zAv+XlUGfPO5mhmF2/PF++f4j6XyzdduOR2nxBClhPpOd3NNxy3axPDzsEuABBM1XWm6kj3yZYey/HyVDquxzsnXDISA3jIkhRNbYqGwzJ0PCKjIVasglZQS2EJJgGJu+EodAh1OL36DxpKuMRAs/cmAJZFIgkAnJAriJYj9ZZV2rtV6U2c60Ifb9ybhXjw6df2rJxMZiz+6Ob4iG/W4jhcmoVUmN07puyZ/19g0V3xXJjNLLMzzMiDM+rK9u0W11xjTAw6O3Dow5pcTLj9TgDQGmy1Bps80Nzk2dpoWWgwj7TFxc1SOAoRAJLSaBhWHRKjw1FtiZpXa5J+KQGBgzQRSS7b7AEkEwCnFcVNmgP1a22RXY1Rn3BfuJaxw84/CLk8oTln52Qi8FhqPTngU8oPHjTzAOIBtyswXZRao4zJN2f2Xb6s0u0qZfAg5sIbd+5bbTchFHMh5OXxtzb1CppoMLbV0VDN9i47hzMy4DztkVguga01R6t13FOmmx6x6RDynGrzgkvIgq2+tmTJeFzJc9LJ1h+r0AIh50ddlg/qC7wPHznkaenwA7IE65GGCmGguemmXivdRPGhtTGllBCyQry5LO/MZV/YHAoKZQc1wGM36YgHfTGdtUz2pOZpL703khUVr6JKJIQ8i1pfzDlbmoe1ai00LIfIgPN0T4Rlk0mttVYLzlCmbW5uDtkcddYltyG8xaZrdrbcFbWQE5pUqEQte9tavLGIlLTU/EIAV15TfKrlpF/QsoioAYgWk3z2k+ZBtZqHBgDEYkPYebKlzF5b7ajxn25q8nAAq686ajetsuCLqtCccflaoZ5feqWO+jyu8YW8RZlB9+WgwqgYKOqiXYWPTLWQg/6E0TbfP2XyLXlXhsaU+cEXWUa94oua89fDMrmcoVjwOJvDWlbLqnktZH/bqS6JZZNJFDuEpQ1m6ZI/uvKKmLO5dVDgILHcfCQq7GlpScYkSb2/3sIBB/Z3tzQ1ebRqNgm1/vFmD8FSLJ9qah611dYcqmhtPdnEcWA1ZQ83+1V9T6E3qvpHzIUP3Rkok30u1w2k8hYJwfa+SUalYhRklNgejehNBwLcNvt8tav02zLbvWFL9kLQJcdzWWPMBuTVXUlpiURiVbzQZDJ5//79J+9PDDR/LNX8EOm5pPMn2oTGhpLV/cHHR3ou3JiBPDUma/KzVek5O6qemvcr5+DP9mT5XJ8PQdQwADK3VZYXxocveq7NMiooSl6JLTN42T8LOTwWz8rPUqXrHuT9iu6aT3T3aN4vZaTrM/dsef3Bh/J+ZZZU7n7qsHWWZdPS0p75HqempliWzczMfPCu4/HJyUmd7oXlLnzW18ff+j/Pio2N1QIg9zY1SYfm53B26D9oMPScPK0+9gv+9O+9tg9qDVzEc7IF9cdtC2GUiOfEafWxozjVNPpguql0/kQr33C8Qpvwt/6+1/ph3ZLMd3Jvc3Ok5ni1xt/68WBF46FYy/JHTvQ2fRypbbSFmv6xp+wfjlm1IISsO/HhTue58eyq9+xGFRD3uT4fYkQNkK7WW/eYs2Sf64JS6bDIPe1DOY4qAzM/t0gVnVLyKvfuzn/61CKO4573+vzcb+BFX89fhnvJuYnZOLU2sqwMFZPNP7v/f300+rsvfQB++36RqFW98PIv5/7nxfrhMk+T5+hDpqWx7Kv/8X5ubk5RlB/sdLQywOqywj4jAL/fL4qiVvuyukXrbJzLy0zWNXG+ZdBSv1pW5lqa98u+grxf8xHw7KK99sXB51P9A8rDeb8M83m/7EvzfmlysJjoDngo71fQF8vKXnj60rxfY4V78tdGkxMMplQc8PE5nACA6EQ4EvKcbvEASXAmGYnk06abhkelaKytxQ8gxvLJxNKZoHyxTfjYE6owdYct+w2Inn/kyJHw+a7BKFhIUrIgAYAVtxoo4ELI+qQyWHRZjH4xuSiyiyofXN6jAd+UjAuuIBR5aiYYNxjn5xYVhi+1D8UZqj9CyAsT6nZ6hudjOJypqtZKY2/JqyL1trn9CyMqdI9kMSKEYi5LviutbYMxyBHZUnusWgi6T3WNsiygLat1aLvnk3WVHKi2POhsLklKF2o74bE01ukHmn/fozWISEhSzOQ4mprS4RyAoGUhRVEFACFPS4c/mYxE2IojDaZR1zdeKdgatVTVVvBe5+nzS+Z0rLpKzDEu5P1C2DcjGIXJJ+T9mllB3q+SSk1fTzBemLq1Vxn1WMj7FRxm9HrVo3m/skXGH1sleb+ew2NzOCMAAE2uKESrjiyMY0Git+lp002LCwRBW1tvXfYnZs5UZXF3tEkxa00ukHjkyP7WT8LWv68zcZHukD9C1z5C1juGYZgnXGenA0G17fA+AwMg6nV5ArIxb/5JYmnRgLt/ylCeTTW4AmlQMelUDeQJrSONKmGhZ1tX8bQCprpGE1UT+SEI1po669Nu523Hj1EtEYq5LOaKg7/1RM9odbnXy5Y1NCxMn1hM1vVMyZhQVltjAKTzJ5x9ZUfR1qtfTErXnfoXYatvsKVmNXmliuoKvSe0v86ei4S35Sz2f3DMwEU8J5p7rI221TeWIMesC6Tyfvlm84qM0fH5mMvU0AV3cHHwuXnvLiWV96t0V7lxmbxfY74ZXamoUekTF4KyMZX3S7WY9ysYVBl3qa49mvcrGGTyKtfer6jaikfmcKbCJpylxu493dQEDlBbHPW2p083zbXVWk43n+zjOLCirbbG8nDbyq0okf7Za6sRljlysUUfPvtJs6DWspxWpGsfIeQhU0PnXAEAjLDDooQyLUXzl2GN0cy4A9G8hXK8sSxv6Io36lg1yQJepfuIK3NUDWRZHEMxF0IIoZjLarQkV1yMB3SOI2VdbU1NSbG8xlHyHIu9sJpNqd6skCtE/JKEmPhwUjpE/AszNcKpmRoLYpK0OKeD5fUysArnbyzN+5WF/sXNSwefL+b9mup3n+vNrH0879eNcTkee0LeLx1CGea9qplrC8WjvsvuSQZcTsne0rVyK//QLzO51rrjS0Pn85FyzlJ7zLJkc0VD40O/9tQce+jHHZ2t/rjtSedLRCQU24rnR8FoHz6yrq7xoWhjbkMjXQEJWb/E3YcXo68qs6PevGRf4ZJ1E1RG+0EAOLxv4R9B+WEHVR8hhBBCyMpCC2vs/TyWK47LLbHXl2DCfaLNa2nQAcmH18BI1cJCUrrEYlK6pDQaTkDgMBEKawsEbVIdXkxKJ0EE/GedqZka8uJMjWQsCQBqQRAMS+Z0rE4aoz5x7sI1tcXOY/rpRVVZOZnM8nm/rAt5v4Y73Q/l/Rq47GFydpUymHlwxtR6LmTlHpp0qs1MD9+6o65atekQCSGEEEIIIWSNWWsxl8VccdpUrriJ7pYvvUkWyaSuvIKD1lKcmE/WtSTL7tKkdBH1fMXwkd7Trb3JsISKI1W8FjXFp1pP+rVaFhFt6kwLMzV4TrsJgN5acNbZ1GJ11NsezOlgLY4G2+pcZ503mpn+YaP+oSXvlww+ryxn+lee96vQnDGwJO+XRfBc4M3ZyyUoJSv3rEmnhBBCCCGEEEJeoTWTK/rF+uEyT5PvYPXkiiaEkPWIckWnUK5o8hQvKVd0/0jkn//dD+B//rxY2PiyRr7S/Q9Zn7miyZrsM4JyRb8c8rCnrTs0/4C32GtKKLhCCCGEEEJWt9DdGACOSXt5AZdUf/v7PN07Fo0rczkaVX6W+vu/mEQi8d36/4qiKIqiUqmo2axq37M1EvIDWJ8xF95gqzM8rQBXQsuLEkIIIYSQVcU7GgWwNWfjy+0/fL8BDv/qGQ1H4gdLxaO7XkDWhJmZGZZl1ernDt/cu3dPluWNGzdSs1m90tPT09PTqR7I695QqQoIIYQQQl652YFPv/pL4rsWlgf/+K+DMarFeUrE33/+bM/5r3s6Om/dBTB98+wn53rGFych3At87fri/ORC7YU6PusLLewMnf/m+pL8AU94eLf3844Lt+4tbO0/f02evTV04eue8//W8YXz8vmv/+y5Eflh33Xf7Zm+2zMA9m7PoTZACCGvCZaqgJDvjEYzEkJW6P79+3NzcwzDUFWQJ8koef9dAIgMfn5BeO9QwYoKk+VJ169xRT8p3fxgS7o6h4/4JSUvhwEQHQshS7vwfZy9NcblpgdvJ3RbnmdCTkZGYmAomPu2nl/YsKWocgsQ7Pt6dlv1Dv6Hfcu+iW//9/kggK3iRptpE7UBQgh5TVDMhZDv1YmiSiCErFB6ejpdNMjDElO9X3QOxBgW2e/8/O07f/hK/ct3N3x11Xdz459ib+TO+aZ2HT2kB+TBP/7h3sHf7FzSj57t/t9fqX/5VyXRwc8/G7ynydyg/vZu0kI1umCDlpkOjd/bnLdhYcscMvPyZ0Pj8RydCpFbUsaWrMR4alfEf1tl2pPjvzQW26J/jhkqqs3F2yM9F0PZP9ZlPP9nn5y7PhZ9ZrHglJz6wx+enVpuSea5+5BmE8N3vv1qaH7Uzi/3vEENgBBCXh8UcyGEEEIIeRWiVzt7C/b9qjIbADB7BwAy3izPz2EtP/1pAUa//T8XAkm9MXbVi53/abmBC8lr7VfVB99/T88mgx0nvqIaXaTdvs90vfvq2T+z+re2b9elhpxkvPFGuHc0odsyG7iTseUtdioVc5kMTWbqijXaBNd7a1q/PWvFJ1Gg1m8vvnn5il/40XMvJjItJ3/X5lt5+X/pHH5mmYwNzG/2bdmymacGQAghrw+KuRBCCCGEvArR8L0sS/YTdxe8XRLrvB7JjA5tKPv5sgMpvp2ObnwjnwXA5oib6KZuKT5ne3XOdnmqt3PAn7nLBADI2JKPrrFZdTSSa9iUPgEAUMZuTMRmZv/ja0CWYzcj299+rmShG/S7t95qH/AXq1/dW9VsYLVqRrdJ3bDnjUyemgEhhLxeVs11+XXIAE8IIYQQ8uL6yuKG6dEZbM185JYHydRqrhklO5kvvrqc3PTWz5cfubAxS/PtyCRKCoC7UjQpUJU+itdmZ8x9u7hyrko0clcuX1XpqzKQmqcTv3Nr9o3qQ1u1AJSpnrO3w0rRc55Ct7M49PWf72jfMj/P03K0qhP/2frMYtdHo7/70gfgt+8XiVrKakwIIasPBTIIIYQQQl4FzVv7rF989Yd/ZYDsd3729kJn3FQ42fmHTy2VP9lp3Fac8W9fqf/24BPu19gd7751/d9Of6rZyLL3WJZiLgviEz2dw98ybDrmmNw3d2YB84mHuDyTuvd6jo5HKuYSux1KbCmaH9nCZJvy/vKXcUUHOXCpJ8wADL+lvIh59OGjMrYVbfd/c5uqnRBCyDLSEokE1QJZk6ampliWzcx88PNhPB6fnJzU6XQv6hT09SGEkMdxHPe81+fn7lK/6Ov5y3AvOTex3KKnzyNy/Y+ffXvw73ZSFpo1J0PFZPPPzpK0Jse5/LdPh8KR+MFS8eiuF/AV/s7Xk9nZWVmWc3IorzYh653f7xdFUavVvqTj0zgXQgghhJDXzr3AhY5vhu5t+cnhTQDk0e72obH5XRvM+6p20KAWQgghZBWgmAshhBBCyGtng7HyoLFy4RFfUPFeAVXKWnf3//7mv+f/yz/tp5oghJC1I52qgJCXxt96oi306l9Gwtva3B1ZusXbcuK8RJ8PIWtLfKTH7XK5znz2yWdnXC6Xu39MGe480z8NIHzpsxZ3QJ4vONLlGorGhzvPXAqnlhaNBzrbe6biPpfLFwcw3PnJZxfH5ufExANuty8+7etyu1ztn3/S4nS5XO4u3zTVNyEvVuDzf/wv//2La73/57/+l3/uuEv1QQghawWNcyFkzeMsdQ1UC4SsearCcnshMHbxTNDs2C0CwLB3YacmK97vCeTZjQvpb1QGq/Gaxxs9WMSHe4eww5GN4OKhsjQzly+NHKwqXFg9IstcZTdD9ro8zF67mXKnEPLiGd/7le2L/6623Ysd+tV+WsCHEELWDIq5EPLyRbxtzu4IkpIsHmioMUXcJ0+Hc3U8ZGmCLa+vK9FKva3OQWjYsNcb0x04+gtNx+/Djg/tuYB0/kSb0NhQgpCnpcMPyBKsRxoqhOHzpzpG1ZpYcDCkttY11OrD7lPuIMslkqL9aI3poaSiiYHmj6Waxmp2oLWlK8oLanUsjK30sRCynqh0ZTumPBd8OQ6zZn5TlqUs80xPIEf0SkbbbhUeLPbK8MaduuCFSyNiVSFVHSE/lPxDv/0ff7MJYzGKuBBCyBpCMRdCXj6tpabBAiDU9lFXEKZNsShrqK+1aSH3NjUPRkrK/H1hy5FGmzbiOXlaXa7jvI8fQ2erb7ABid6mj71ShaGvT131QZ2J8+OEt9yiDTmbRst/fayElweaP/ZMfGjPffwIwx0dyeoPjlk4SO6PmulTIWRdUcAbdlv97R5fnl09v43Jt1r6Pm/3Gh21WY+W1lhsRQHXxeHsPd/hZIFAYOnDtLS0tLS0DRs2ZGRkaDQa+jAIeYJN+ZsA5KupJgghZA2hmAshL11iorfrm2CMZeXhWFIPQK3WCloA4Fk2mUiCL9uv+7ipOWxQs1aHY9nMkRH/+a7BKFhIUrIgAUOVraO5qdUgcIJ9vw6J3glJijhbBoGkrC6ILXcEWZLYApEDAEEnsBP0uRCy3vBGW6nvzAVvacbiFvMOnXfSks8sU1pjsVl8rkvBIuB55xIZjcZHtszNzSUSiW+//XZiYiI3N5c+C0IIIYSsExRzIeRli/Sc7uYbjtu1iWHnYNeyX71YOCIeOFprWQi3cCxiSQBISOEoBMB/1hm2/n2diYt0h/wRAJFRlNXVVS+kChVyBdFypN7CPaW3JWiSfikBgYM0EUnS50LIOsSbbaW+Mz2hLKs1tYFhGOaJpbOKbBafq1fO3v29T5yenr5hw4YNGzbIsjw+Ps5x3HqobiYNOTzdaJEnSKMqIISQdYFuBQh52dT6Ys7Z0jysVWuhYZftaLBq3GxravJwrFpfdqCqZKut2NPW4tRpkZRYABAt+vDZT5oFtZbltCIAtSbyTfPJm1pOLVhsDpvBUeM/3dTk4QBWX3XUblrmNIYD+7tbmpo8WjWbhFpPHwwh65HGYiv1nQmssHR2UaXZd+ZFZjnjeV5RlLt372ZmZq75ymbS0+7P3adGR5aVnk7JQwkhZF1ISyQSVAtkTZqammJZdultfTwen5yc1Ol0L+oUL+jrI/c2n4rV/MImcEj4nR/3FjfWmZ7+jFDbSY+poc7CA5Huky3J+uM2LX3ihJDXxDOHsdy8eVMQhE2bvvtKoS/8ev4y3L9/P5mkUYVkeenp6U8bZrbg+mj0d1/6APz2/SJRu0Zyhv23T4fCkfjBUvHorhfwFX78fm+FZmdnZVnOycmh1kjIOuf3+0VR1GpfVn+KxrkQ8sqxokntOusMsUAyhgrHs4egaE250W5n6wAPyElddc0jF4hQt9MzPB8O4kxVtVZaPIEQ8jrhOI5+8iGEEELIuujsURUQ8sp7Hzpb/THb8zxDa6k9Znnybl1FbV0F1Ssh5HWVlpZ2/z5NuiGEEELI2kdTSQkhhBDyg7p//z7FXAghhBCyHlDMhRBCCCGEEEIIIeTFo5gLIYQQQgghhBBCyItHMRdCCCGEkNXO33qiLfRdnyydP9Hifd3foTLceaZnauHRdH+7OxAHACV88TNn//TidudnZ9xut9vV7uoZkVPPnPJddLW7XC5Xe3unL4rp/jOdwwsHkn0uly8+/yA+3Nni8snzj8KXPv/sjNvtdrW3u4fCcQCI+jo7fVEAyrSv8/PPLo4tPHGs3+1yd7pdnUNTCjDd7+4alqlVEkIIoZgLIYQQQshqMXG+xT2xTt87U2jOHA/MB12mg0G1SacCoIx5Z3M0477FaAyTU2K32+0Ou1Hq800D8eGuCyP5toMOh8Nx8OA+s+bJp4iHAnN5TCAQXdig0u+y2+2Og7acQF8wDmWs38cXmTWIj/T2xw26rIVy096+KdNe+z77XmP4ii+KrKJtuDY0RQ2WEEII5S0ihBBCfhBzc3Pp6fRTB1nK33rCDV0ul4hMRAsOHLUb+MiA87RHYnnIbHHtkYrcaG+Lsy/JsmBN+49Ywq5vvFKwNVpcVWu62+bsjiApyeKBhhoTv9zhZX/bqbMh8Jy6+FB9hRA6f6rtJnjISdF+tMbEJ0LnP3F6WUHLQoohF8D82bkEttYcrdZxr1dtMfnGzD5fGNkipnzBDONBFYB40BfTWctkj3dM2ZPPLH33sqLiVYgHb8wadxk1KzhBNOCbM9q2jVwITBWVZi/ZocRlcJkMwgFJMIsAVIXlVYXT/aH5YS5xaZIpNKsAqMR8XJpULMZ8Y0ZfYArZ2dTKCSFknaOYCyGEEPJDoIALWa6bz1sO1ZZwkHubmrulY7lnO7D/g2MGDhHPyZY+SwPbJ4mOX9fMhz90FXpPaH+dPRdAbk2DBUCo7aOuIEyWZY497GqL2H593JKKx0jnnTctDccqtEj4W3/vGv5wf7htcGt9Y7WAhLf5n3qBhLdt/uwRz8mWHutxm/b1qiwm3yz0BcIQmcB4ptnKAJCDvoS+MkuUc64MjSj5BgZQJgfc7hvRKSWvcm8pj2k5zmseDUkpk30u143U3/IUigAA04EAZ7Jr8tWZfb5wabYIIB664nYjOs0YK/caGNk7q8paLnijxBVGpUq9RhWTUOIAr8mCL6ogm6FGTggh6xvFXAghhBBCXhGNIHAAwAtCzC9FIWn1BRwAaAtyk30SX3ukJtZxqsmltuyvsRkehA4SE71d3wRjLCsPx5L6ZQ8tSxJbIC4+JTyaFKu0AMAVGNTusBwJxwSLAADcpgIBQHQiHAl5Trd4gCQ4kwy8ZjEXMKJRuBIYC2M802hlAEQDvikZF1xBKPLUTDBuMKbmFu0rDF9qH4ozAHheJUdlQPXQgXLKHPsMqWryuS4AAKZ8gegMf851A3F52jtSLhYCKt1O++6s4U7XOBhAAcAsF0NRqRhFiQP8kvALw2CO2jchhBBaz4UQQggh5FWJhsMyAERGQ6woaHIFeTSM1IYJVhQArcFW23DsqMXf5pkAgGQsCSDSc7qb319bU+Oo0D3p0LwgJEfDiYWHYoF6/lyJ0eGYIPBaQS2FJQBI3A1HAWhyRcFQdaS+vr6+4fgxW+5rWF1MvjlH6rsiCeZ8BsB0IKi2HU6t1OKwKr7A4rK1jFhaNDfQPwWodEZVoH/kWQvaKmPe8by9tQ6Hw+E4bDfO+EYW1tWFylBulK54o+Az1PGp6eVeVk4exsJxAPHwGPJyGECZnkKGhga5EEIIoXEuhBBCCCGviFr2trV4YxEpaan5hcBxNXa/s6kZbDLJWmuPaGV/26kuiWWTSRQ7BEBrLXA7m1qs+6uKOWdL87BWrYWGfcK6K4b9BwZPN530cFAX19ZX2Gosp081D7JIJoUDR0zQ6muKT7Wc9AtaFhE1AM5SY/eebmoCB6gtjnqb7jWsMNFik/pfAAAgAElEQVQoRINKmcgACHtDmZai+biGxmhm3IFo3kJB3liWN3TFG3VYzJW7ZM+5MwOMigEj7KgsX2Z6kDLmm8krEucfZVuMsctBuWRhr8ZSlnmmZ9hcZcwcCE5BfGyRFo2lLLvrnDvAKHM5ZZUaQBkLzOZYaDEXQgghSEskElQLZE2amppiWTYzM3NxSzwen5yc1Ole2E0kfX0IIeRxHPeMtVdv377NcVxeXt53PsULv56/DPfv308mk08t4m894bU11uio0awWUV9nD3bvM/NPLzY95O7PsFUZnlIsPT2dYZ49Dub6aPR3X/oA/Pb9IlGrWhu1+N8+HQpH4gdLxaO7XkDbf/x+b4VmZ2dlWc7JyaF2Tcg65/f7RVHUal/WhFoa50IIIYQQshZEvO6zA9L8A9FaU23iqVJeLI15374VFMsqsldRZRFCCAEo5kIIIYQQ8oqY6hpNL/BwWou9zkK1SgghhLxGaA1dQl6RifPNbcOPb470trR6VzJlKTHQfOK89MhGf+uJttCrf2/Dbc3nJx7a4DzhHKbPnJCXKj7S43a5XGc+++SzMy6Xy90/pgx3numfBhC+9FmLe3F50ZEu11A0Ptx55lJYST0z0NneMxX3uVy+OIDhzk8+uzg2v4BoPOB2++LTvi63y9X++SctTpfL5e7yTVN9E0IIIYQ8G41zIeQVya1uqFlms9ZaX7fq35uhpsFAnzAhPzBVYbm9EBi7eCZoduwWAWDYu7BTkxXv9wTy7MaFuSYqg9V4zeONHiziw71D2OHIRnDxUFmamcuXRg5WFS6sHpFlrrKbIXtdHmav3ayiyiaEEEIIWRGKuRDy8iQmuk87e2M8l0gKttraEgH+1qZeQRMNxrY6HElnh6GxXj98/lTHqFoTCw6G1Na6hv1Sy2n1sWPWYOsJN3S5HOQJSWs/WmPipd7WtsEkZEm21B6rfuqqcwm/+5QnjKQUUVc11JdoJ9wnT4dzdTxkaYItr68rYb1tp7plDSvdHLy7af+RBtPgx31lH9YaALm7qRlHj1c8ejqpu+VLP6tJjg76Yak9Wl+c9Jxq84JLyIKtvrbk4SWn5leFFPxtzWdDvKBlk1JSW0YNgpBXR6Ur2zHlueDLcZgXcrZkWcoyz/QEckSvZLTtVmExMy4Y3rhTF7xwaUSsKqSqI4QQQgj57ijmQshLE+lzdhfUNVYLwIT7RNuApaEECIXZxsZjAjDhBgCM9vWpqz6oM3F+nPCWW7TwLDw9ylsO1ZZwkM6faPMnTCWCta7BCiT8rb/vGa3WFTzlzJzJ3mACEPGcOO2XS6yIRVlDfa1NC7m3qXkwUiL0+sX9H9boEgPNH0tWEx8ZfOwYD5+OH+5Olv263sqF+BNdJmuudP7EgKXheIU24W/9/Vl/Sd0yKxJMeNrC1mPHK7SIdJ/8/Sg1CEJeIQW8YbfV3+7x5dnV89uYfKul7/N2r9FRm/VoaY3FVhRwXRzO3vMdThYKPTTHMS0tLS0tbcOGDRs3btywYQN9GIQQQghZPyjmQshLEwnHRIsAAMgVtZGwBACCwSQsLWSosnU0N7UaBE6w79cBkcU9GkHgAIDl2WQSkIe7O/rCYBEZTT4jEUVCGujquhlj2WQ4migGALVaK2gBgGfZZCKJrfvLzp9qcho0MNU4hKVnBVKLyTxyOqHCzn78cUtQx7JVB7YCN0elaKytxQ8gxvLJBPB4ati7YYgWLQBoxVwNxVwIedV4o63Ud+aCtzRjcYt5h847aclfLmGtxmKz+FyXgkXA884l2rx58yNb5ubmksnk9PQ0x3GCINBnQQghhJB1gmIuhLw0QoE2HJJgEoCJcEQraoHo46Uioyirq6t+Vh8k1OH06j9oKOESA83em08tmhh0duDQhzW5mHD7nct/2cOjfNXRWutC8IZlkUgCAKRwFOIyp4uEYqbaYzULU5o2FQiCtrbe+rTozyYR4bAMHQ9ZkmLUHgh59XizrdR3pieUZbWmNjAMwzyxdFaRzeJz9crZu5/zNE8azKLVau/evTs9vY4W4E1Pp2QFZHlpaWlUCYQQsh5QzIWQl9e7sdbaWp1NzSybTKqrau3LxyfUmsg3zSdvajm1YLE5bE+KvYgWk3z2k+ZBtZqH5unn5QzFgsfZHNayWlbNa5fv+vDhU01NfTyrFov3O6y68oqYs7l1UOAgsZy4zOk4bWLw1MmwwLGarbYD1SZbreV088k+jgMr2mprLMucJtdWI55qbhrUqtmkrNZSgyDkNaCx2Ep9ZwIrLJ1dVGn2nZFe4Pk3bdp09+7dRCLBcdx6qO+5uTlqdGRZFI8jhJB1Ii2RSFAtkDVpamqKZdnMzMzFLfF4fHJyUqfTvahTvICvT6jtpMfUUGfhgUj3yZZk/XHbyw9OJLytTX7bsRodh8SE+2OX+OuGkqf3fiRP01n1kXqrFpAHmpvCjkZ7LjUxQsjynhlPuXHjhlarzc/P/86neOHX85fh/v37yWSS2gNZVnp6+tOGmS24/v+zd69hbdxn3vi/YTSyZEvIQxgDolIEqmVjKIo5BAoGq8E2+KoSm8S0JY2bNk3c3Tbpixz2eXb95Nnmv+vtdbVJnutK0u7WcZ1tSEuyOMFJtJeJHRoZAjHm4IWCseVKllEQB2EpQsIjjzT2/wVg41NiuyQxcH/e2Jr5aWZ0z2iY363fYSj8/PtOADvuz+DV82TOsO1v9ftC4oYsfkveLHyFr3zeu04TExOCICQmJtLVSMgC53K5eJ5Xq7+oWhi1cyHkK6VOXxbutNX3KQEhpl1TcYNf9UB3g90lTL3Q5loL9NfzyzHLp3NtB231ChaxUGxVccHnvkmRoosdbKh3KQEhoi6uuDzh4u20tQ1MJaDY9GKrmTIyhJBrYxhGkiSKAyGEEELmPcq5EPKVUpusW003/3bOXFFpvpm3VW69obcp9ZbqrZ+xXptrrcyls0kIuW7U6YYQQgghCwF1JSWEEEIIIYQQQgiZfZRzIYQQQgghhBBCCJl9lHMhhBBCCCGEEEIImX2UcyGEEEIIIYQQQgiZfXNmDN37nn3zk7FxOmEL3OGXHqUgEEIImbdG7TsP6rdVpVMkriQNNO0fy9qYkwAACPbuP6KyWAxySL5D77SpyqxZmsnltkaPKkEJSZS4zKKcVCUg+Z3tR5wTYCBJrLGoNNG9rzt+Y6keACA4G1tRUmaUA4A40PTOiVRrmVEJAL72d5rHNAlKSRQZ3eqiDF6OsLOpCznFiSPt3R4RiEYVywsK9SqIw72tfWNxjISk1cUZCeFee298QbFeSaeNEEIWPJq3iJCbd9ttt1EQCCHX4/z587FYjGVZCgUhN4dJNcb3uf1ISAAQ9HgU6WVyANKwYyJRNeH0Z01lY5jETEupHhCdjY3OYGqWcqCldVBv2WBQTW8peK1diF73uSTG7Q4bMyYLy3V5lnweCPbu6/AYywz+XqcyY4OKERlzsVHJQBo+tL/fp8+XO3r86RaLXi4ONDU7dWWmjOVo7Pfrpw6JEELIAkY5F0L+pkoUBYEQcr1/cWUyummQS7nqd9qhXcZGQ6PhlHVbLHog5murr+uMRAIhVXF1ZaYaoT7b3raATAlBtsq6OXdZpK2mxsXp1YiGRmOmyqpcLupt29PgABsVuIIqa6Z6vkaLSTbE9zh9SODhd3qWGDbIAYgeZ0RrzhbaHMNSYTIzo7ggSHKlHKLnxIQh72LC5TOE3c5zhoLlg61uf0bWzGyJJApg4xn43AHOyAOQK6dasIgio5RDDIwxqUY5ADmfjPYxyWRINizpmU4QEUIIWdBPgBQCQgghhJCvRlhpKrdmshC6a2o7Aw+bIjFZ+rqqAjWEzt21R0OZOUMNB7H20a16FqG23XU9podNEGIp5VbLMkQdda92j+aaHbY+U/XDueqoq/6VD1yZlfO2ZxKTbOR63D7wjHsk3mhmAAgeZ1RXpOGFxCP9g1KyngGksT67/UTYLyUVlWQpERREperyPj7SWE9j44nJ/wt+ZAAAgm43m25RJSvie5y+rAQegOg9YrcjHGQMRSV6RnBMyDUzkjficNcxrCzRQBqRGLl88hjlTFQSAaVKA2dYQgJDFzkhhCxslHMhhBBCCPmKqDiOBQAlx0VcAZgUCo5TA4BSoYwFYgiPBtS6FBYA1CnLYj0BmCDjOA4AWIUSkRh8Q4FwpKHOBSAiU8aiwLztwsbwBu6Ie9iHkXiDmQEQdjv9AlobPZAE/7hH1Bum+hal+tr394sMAKVSLoQFQH7JhhKzy2aO5wIAfqc7PK5sbjwBUQg6BnP4VECuXW3J1ww0NY6AASQAzHQORfL3t/YpV1v0SkCSM5IkAkpAEqfSLwyDc3R9E0IIoZwLIYQQQshXJezzCdAqERryyvhiYOCyZzPVMk5w+WDWAqGhURnPAUOXbWJpCseprVXmhTBeK5NsTOw5cgRcdg4DIOj2KAo2luoZAGFHY5tbMCRNFeSzMvrsvX59ToLWIG/sHTQWp35mgKRhx0hSiTWfBwB/177eQXH6DXJ9juFYqyO8IWOJQvQGYeQh+fube6TMkiyeAQAmMQndPtGol4u+YSTlMIAU9GNJEjVyIYQQQjkXQgghhJCviEJwNNQ5IqFAzFTxPQ6By9ezpgqLy1ZTC1ksJjNbN6sRubzIsgKraW/t7h6WhYwvsFaY1PM5YLyBC3ukbJ4B4HN4400ZU3kNlcHI2N3hpOmCSkN2Uv8RR7jMZCzKE9qa9/UxcgYMt7Io5ypju0jDzvGkDH7qVYLJEOnwCJnTa1Wm7Ph9XQPGYkN8n8cPXuqyd/uVfE/zCACFIa/YaMpOaGm2uxnpXGJ2kQqQht0TiSYazIUQQghui0ajc+JAaa5oghucK9rv98tksvj4+AtLRFEcGxvTarWzdTxz5etDCCFfps+dnsnlcrEsq9PpbnoXs34//yJMTlb12ZGo3+ko2FahpYtmrgg7m7qQX2r8nEZFwX5775LPnis6Li6OYT6/HczxofDz7zsB7Lg/g1fL50cUt7/V7wuJG7L4LXmzcO1f+bx3nSYmJgRBSExMpOuakAXO5XLxPK9Wf1E/WcRRiK/q9uWr7l+upDgQQgghhJApKmPp5yZcAGgyLJ+ZcCGEELJwUN+iq1KXby6+/8TIWycEigW5BXz2D6FCZ80ebNmae5MPd1FH/Z7QuupcNcWZkLlNHOxqPRaQxKBPUPIaOZOUWRLv2D9u3pil8bW/bZ/IsVoMSgAYbGkcN5cs6WocydiQzzOA6G6y+7MsmiPNKCkzygea3uiQW6yFyXIAotveKhWtRvsRd0QM+4IMn6BkFIbVxUYNhfxvl165LZ2iQAghhMxj8yjnkmB48qHie9Pi5WfG3nvtnX87KplKvvXst9NWLJZO9h35t9eOdAq6X75ozf34nQ21Xqz61sHH9R++8IdfnND+4vlvG44eF9O+nheP4x1NT7w2oK3+9uPpskXp3+kqH3lu+ztjVQ8/JbT8js3++aqR/+jQPv3N0I7/8+5b44zlxw+9sGrgif/1gT1GFxKZBaMf1R01VVmWfSk7izrqbNGqykyANVVWU/AJmQfkqTmWVGD40D6PsWxyJNABx/RKlUbsbXMnTWVdAMj1ZsOxNkd4Q4bS192PlWUJ8FzYlEY13tE+uKE4dbong8ZYbDFCcDS2MSUWo5yCTQghhBByXeZNzkV5z0Prv/+1kT/+qc2xWDn2iYi04hceSDv7ccv/diQ+UFX4ywcC9/1eulYQslepn/sP25/y7n6htOCB5r/+rvn4X0oLtR0Hnnh/xOtHEZD4zbU/cZ1497//aj8pfr90Vfkq5VsdiZbli0JH/9pKCRdyTa76mm5OFfZE0sqq18i662ydESWiMrO1KndZqK2mxsXp1YiGRmOmyqr0gcbDjoCnPryq2Gpmu+sbjsYgBASTdeuaq7dvCXTW1XVG1JxCEQpEzcCo/beN/E+rMwE46nZ6126zKNtqbAEdfB51zmarfqjB1hlCLCDw66rXytrsDoesvj5grigQ9r4aqNi2RuGy77V7oISAtHVb1ujRV/tKl1rPIRoaDesqvrdGy9IZJWTOkmuzV/rbWp2JZcbp8UM1puz4fV3uRN4RMBTkyyFeKMwoDau1ntb2Qb44lUJHCCGEEHLz5kvORZZUlCYLdXQ8f8g7ucBQqNXi9I69R/ePM6J5xQvL9Stw8lrvPuvo23NiVIR3rPTriUqEPaFQFDgdcHwSAhgAOHPsn//fhx/HAJx5fzj7gbzU209rizRnWz/2iHQRkc/g9cm2bdvKAUJ3TRtv3WZZBm/Dbxv7sqv1EGIp5VbLMkQdda92j+ZacnVt3rWVk+1czJXVZiDqqn+la+iqOZdoX0ObsuLRKj0bHbC99ME1di8MhLQ/32pRAoC6otoEwNvw2xZPRZV5FT/EVVZmAtE+AMBAY4Mv99GtJhZCX21Ny+i2YsQiquxyq56Ft2Fn29CaSj2dT0LmLAlKfb7Ztb/NmWRRTC1jks2mnnf2OwxlVs3lpVWmggx346GBhEKKHSGEEELIzecq5s0nua6WztOTzMiVi2aWFwXxc1In42dOT7VnOf3ex2M/Kv/6D/NuTzwz8K5DomuIfBZOn84BAAJDvrD3YJ0PQEQmS4kAkHEcBwCsQonIJe2lhIHOgz0+yBAail1jlJZwIKTWpbAAWD5l6bVaoMi0prTJDURHu1sOeyIymTAQiV1lqpBoICBL4VkAUPIp6PEBkKl4NQsAMgVADboImfOUhoIs575WR9aSC0uMK7WOMVPy1SZPUZkKTM7Gdk/Gdf6FJYQQQgghV1bJ5snniJ3u9MS+Zc57srDnL4uT1Cfb3jo6cLIy+4HNq047uB+aZKGjA8dxdkxAYuaq+81qw926Rbh2miV2VoxCnfZ1i3mx1+G9bKW749hxa/69eYtC3U2dVA8l10nN80tV66rWcNMLQle78iZTL96DNofu0epMNtpX67hG8ywVpw55fDBrgYAvHOUBViaLxaIAi1AgcPmVGera26msftiijg7YjrZM7y4KTGdrWJ6HwxcFx0LwDSFlFeCjs0bIfKM0FmQ593V5NWbz5ALmsyar1WQUmJyN3UJCPkXuZt12220UBEIIIWQhmzftXEJ7Xmv6xo8Ltzy0cUtw5He/Az7p+Mc/LH52c/ELedJJR9cTde4w8Kf6E0UPLN/+g8QPm4936NKuvTXvnuaR3Ltzflmd+NyvvJfXjf3u9zxrnko/+26HlzoWkeulzi3Pra/fXcOykKmyyyrNV7Zf0ZlT7LaaOnPZZlO68MEbtUcVCiVU19gem1lWcNS2u1atlskiMpYHuMwCRf0b9R6eRQgK/tLiCt0q1lZXO6BWqKGSsQBnWiXsqakdKrCWTZbQrq1I2ftGbacsJiCtYvMyyrkQMi+pTAVZzn3u6yydkFFkdO4LUNhu2vnz5ykI5KooH0cIIQvlhh+NRufEgd737JufjI3fGsfC5P7gwVdWDfzs/0yO8EK+PIdfevT6C/v9fplMFh8ff2GJKIpjY2NarXa2jmeufH0IIeTLxLKfM+S2y+ViWVan0930Lmb9fv5FOH/+fCxGDwrk6uLi4j6rmdm040Ph5993Athxfwavnif9/La/1e8LiRuy+C15s/AVvvJ57zpNTEwIgpCYmEhXIyELnMvl4nlerVZ/QduXUYhvTMIyi2nlT/IWe5v6qGMR+VIFuhvsLmHqhTbXWqCneYQIIYQQQggh5BZGOZcbo0rL+eUDWm/fwSf2jlLHIvKl4swVlWYKAyGEEEIIIYTMFZRzuTHhzoZvdlIYCCGEEEIIIYQQ8jniKASEEEIIIYQQQgghs45yLoQQQgghhBBCCCGzj3IuhBBCCCGEEEIIIbOPxnMhhBBCCPlKuOp3Ogq2VXzxU14LnTV7sGVrrnKeBTDobDnijohhX5DhE5SMwrA6S2jtjt9YqhedjXXtbMl9pfrJ+ZXFgaa3m6P5VWXGYPs7zWMqjRxgFLrVxSaVv7+lwxNlGEgKQ5FJ7OjxSlLYF5TzCXImfnlBvl4JcaDpnROp1jKjEgB87W/vHzFZrVmaqaPotdkcSRvuy+eDvbZGjypBKYkia8grNiUwdJETQshCRzkXQm5eXBy1FCOEXJdz585Fo9FFixZRKMiNGv2o7qipyrLsi9h2qLOuha+q0M/V2GiMxRYjBEdjG1NiMcoBBHun1zF8QtTlFfUGOQDR647y/NQauS6vLH/6hejs8fBFGzJU0++zlGUg2LuvlysrTp0u43WfS2Lc7rBxqpiGl3ud/qycBADwO0fk/PTbmcRMS6keCPbu63DrppI0hBBCFrA5k3Op+z9bzp8/TyeM3GqVKAoCIeQ6sSy7QG4aDEM/7t+YqMu+p82HWCCkKK6uylR42/Y0OiCTQWEqs8gaDzsCnvrwqmKreWbepa/2t76yn1qWAYGPdjZw26p5++69vmVaZVQIhJUFm60mNQKddXWdETWnUIQCUTOAkKPB1hlCLCDw66oreM8HbY6T6nrBlGvNkXXtaXCAjQpcQZU1Uz33oyopDLpzbrdgMCkhuAcYnZbxXO1yXaIQ3R6fMYOXX2tLYbfznKFg+WCr25+RlQAASDRyY45hqTCZkYad40mGeG/w0veo4peIYyJAORdCCFno5kzO5fz585RzIYQQQsj8w6ZbqtMBhNp27nUJmXpPn2Cq3FrAsQCAXF2bd23ldbRziYRl6dXWXCWijrpXW7ymskBDm7Li0So9Gx2wvfQBAKhNFdUmAN6G37Z4UGXK1fNsdqVVj8BHO/tM1Q/nqqOu+lc+cGVWps+DuCp06XGt7rApA26v3JjH9E3lXETvEbtdDsQlrizMSk7OLxG7jzTaxHjj6vyrZV6CbjebblElK+J7nL6sBB4A5JxR6+wflpKTh90T2iyd33NpzkUc9kxwRhVd24QQQqhvESGEEELIVyga6GtpORmRyWK+cHQVwBVUWj6y76mJqFetLc+9/sFeFAq1WgkALJ8S6wxEw4GQWpfCTi5YygKIjna3HPZEZDJhIBLTzXyvbygQjjTUuQBEZMpYFGDnQWTlqUZFo9ufhJElRhMTuLBYu9pyoW8RwGj0ORa9OTzQYm9VbrAYLsu6+J3u8LiyufEERCHoGMzhUwGASTDoIl2DYckj6nJU8F8oPnasqckNRqkvyk+mBl+EEEIo50IIIYQQ8hWKHrUdRPlPK5Zh1O6yAQC49DWV6WtCnbvrukwPc4hFYle+jZVhcnE04AuDAxCJBEYDMHEQvB5w6awK6pDHB7MWCPjCUR6hrr2dyuqHLerogO1oCwDIZIjGAGBpCseprVXmedYVhkk2xvd0dMi1eVkMAp9dVMUny0+I0mWLpWHHSFKJdTJF4+/a1zsopk4GSWXQRe2tx5astChnpFyQuLK0VE9XNSGEkGmUcyGEEEII+eqw+lVcm63Wp5apZQqlGgj12fZ2hWSyWExttqqhMKfYbTV15rKqgpltXtIKVrU11Nm0asQCk49zCkXMY6+ri4QCwrJ1VVqw2rKCo7bdtWq1TBaRsTwUulWsra52QK1QQyVjAfCr9D7b7rpsi7XAatpbu7uHZSHjC6wVJvX8CC6TbExs61AZEgDhwkLR09E4Pj1vkXaspdUZYeQMJNawuvCypJM07BxPyphuE5NgMkQ6PELm5CulziDvHTSmyukaJuQWcNfjr1AQyEyHX3r0FjmS26LR6JwIWSwWo/FcCMveQFNnv98vk8ni4+MvPmSJ4tjYmFY7a5NyzpWvDyGE3FL3apfLxbKsTqe76V3M+v38i3D+/PlYLPbl7W/UvrNFv21eDMSyEMTFxV3PaNPHh8LPv+8EsOP+DF49T9I729/q94XEDVn8lrxZ+Apf+bx3nSYmJgRBSExMpKtxfqCcC7nM9edcXC4Xz/Nq9Rf1awO1cyGEEEIIufV5O21tA1Opfjb9slmMJsUoSoQQQsithXIuhNz6XPU7HQXbKrQUCULmKV/7O60BjUYOSZJYbXZhBi8HfO3vNI+pNNM9IEwaSOGBro4T4xIDiIw2z2IMNDajpMwYbH97/4jJas3STG4u2GuzOZI23Dc5BIXkO/ROm6psam2wd193/MaL402IAy2tE1mWjMm3ioMttg6lZVNOwtTq8EB7l0sAolHWkFdoVPnbm926Ehob9CuhzbVW5n7G+mWWbVUUJUIIIeTWEkchmAWHn16ZUvjc8RlLhneVL+a+8x6FhtyA0Y/q7KOzsqVQZ13DAAWUkLlErl1tsVgsZWUlGeGOZkd4cqEur6ysrKzMUmzSANJwu/2EarWlrMxSVrbBkpEw4+0aXu51Tg/j6XeOyPkLk9RKw46JRNWI03/V/fp7j2G5aSpXI/m6T0Q1l0xvq+Szii2lpZay1UpH7zAYPks30Td1eIQQQggh5HNQO5fLnHp57Z1NTw391z2KG3hT9pNvvvlg0oq5+YmFwa7mNodvQmKWJJiKynKY7rcbjk0o0tffV5zMAIKz8e1W77nEvMqNGSoA0mDL2392RZYsr9hUyDNAsNf2bnf82u9f+M10sOmPfx433zvz59bJAppe27tHAqyuZJPFoITkbnzjkMLyvayA7d0jM2YS0JZ8t8wwb0ajc9XXdHOqsCeSVla9RtZdZ+uMKBGVma1VuctCbTU1Lk6vRjQ0GjNVVqUPNB52BDz14VXFVjPbXd9wNAYhIJisW9dctX3LqL3mILiYJ8AVf6+COzqjvDn8QZvjpLpeMOVac2RdexocYKMCV1BlzVTTV5yQWz75wptNaPSETRmXrZCGHWOJmYWaq7cwSTRyY45hqTCZkYad40mGeG9wcoXocUa05myhbXLt5SkX94hCZ55cKvm7+7ByZXyfd0YBRjk1pKgkgWEAKHU6xu4JZ2So6FwRQgghhHye+dPO5dOm5zbdmcIt5lLufLopgk8PP/edO1O4xVxa4Q92dUeAUy+vXVjJrsoAACAASURBVMz94D0AkbpN3OLymk9x/Lk7uTs3facwjVvMpZU/dzjy6f5t5c+0n7V9N2Fx4XPH8d53uJU/eObx8pUp9z/z47TFaY83RYDhXeUct3bXqZn7Prxjc8VDv+kGIoefK1/JcSl3/qRuZI7ELezu6fMpszbcu7GsINuQMJntYBXwOoclAILH6ZMrLg6GKHpOeJjlq9Ph6R+WbnxvrILxHGpzX5w6ABpTWWXlvUU6FkuW311ZWVmkm1/D/3t9MsvWrdVrtEL3+2289eGt1Q9XqNsa+6IAhFjKXVartXLLGnR2j3LmXB2/qqzSal4GcObK6uqq6q3ruJ6uoWtsOhIYiuRs2bq1Ip29tLzalKvnTWsrKwv04TZbn6lqa/XWrZbowQ9cdMcjZE5kXRQKKSwAgOg9Yrfb7fam3mERYiQq11wz0SHnjNpx57AEadg9oTXEY+oWLXicUZ1BwxsSx52DV9y2pXAYCVNZnGB/j7jcfPVOQ5K/t2fCmJUMAPL4JVKQGroQQgghhFyPedPO5fCObf/38IoX7Q3rMYIVisPP/OD/tmf/7tA72Qe2Vfz8Jy+XHLp6F+ezjlN32I+cjDxTWLHj5aanXvv/nrrr9ac1b062c3kPGHjvveCvf/1mSYnm9fdqX3/98K/vcNQcVqzfueWOq21t+PVndjQvfaTh/UdGdmw6cHhOBE6lNSR1dzl6HMrMLAM/me+IS9AmhT3OQSk1we3wJ+u0fufE1MO72zGoMlmzdCr3vmNuIdWovKGdxamMOUmeQ4fa3EklF+oJSpVcGWYBRq5UqT7nd1O/33/901edOXOGYZiZUwtJknT27NnTp0/PSuhuu+22zx/dmtOncwCAwJAv7D1Y5wMQkclSIgBkHMcBAKtQInLJuIfCQOfBHh9kCA3FrhlihSJFq2U/u7xvKBCONNS5AERkylgUYOmuR8itTpiIyFVKQIBcu9qSPz1LrcSyol8ArnGfZBIMukjXYFjyiLocFaZ6EoXdTr+A1kYPJME/7hH1hmvsNOzoDqYXZsnhu3Jd0NlyRMgsyaKWLYQQQgghCzTn8ulxxwCyn7Kak5ORDHx62DEC04b1K+5Ixvo7sOOwI3Ix5xKJ4OyFF5q71t+1dOmw+Q68HjkbuXLD2Y/8yyP33AHgZ4+VvPzMrl1Jjp6l97x5z9KrHsXA8VNnk9ZXld6xIrI+e1Hd3AidJmPDfUkDjt4e+9u9hrKNhQwA8EbdWLPLMzzmEHSrdYxvKucSdDpGzgVG3q05AiDO4Q4bM25wb/JEc5HJ29De5s66mQEY5XL59edcRFFkGEYuv9hwJhaLxcXFzVzyN+ZcbqC0mueXqtZVreGmF4SuUig2mXrxHrQ5dI9WZ7LRvlrHyc///l5RXiZDNAYAS1M4Tm2tMivpXkfInMm4DHY7YbSoAOGypEqykevpc4YtxmvkPlQGXdTeemzJSotyOuUSdHsUBRtL9QyAsKOxzS0Yki7ZpkoFT1iCJuzxTESYVrsLYtAvBA4lFOUniWEkaJRhd0uH31iUnzx95xQnJhgNpV8IIYSQG5Cge8B09t1Do9RQlHIuc9bSO/RJ2POerXv9epwaWVpqMiVhz/4Dx9dnHzhwCndsMSkWjShw1nH48Cn98fd6ANOFt14xcMvZkVOnhoeTliZfsjp5y2P3PLNtx65g0oMvbrjGYC/6FXcs+rT9vaZTmuCBnrPInhNP98NuH+I1hizTmLdtxBuGDgCYBKNOua+r1QddSarcPVXW53AEuZXrS0xKINxvtzsc/gwjAESj4XAYYBjlZMd/SRDCYQYMI5dfUdmX8zlFK70N7b3sucl93YjPbQgzUzQalclkM5uiiKIoCMIsTr0+sxHN5+Vccstz6+t317AsZKrsssqrpEF05hS7rabOXLbZlC588EbtUYVCiev5wPzl5flVep9td122xVpgNe2t3d3DspDxBdYKEw3oQsgtSvQesdvlkERJYcgrmWpEKHo6GscvzluUml800d66z8nI5WAUxrzCywZ7UuoM8t5BY+qFvLLP4Y03ZTDTKRkjY3eHkyCN9TQ2ngDAaLMthqSJ/mEpNTWjbONkEt3X3ugxFhpUgy02j9Ga4ba3eJEcaW08BjDa1ZYMldct6lZTzuV63HbbbSxLrQsJIYTAVFr8+PK+DynnQjmXuax0+4s/63n66W9mQJO/veHgU9tf+9Wpbf9QmBFRmNb/6g+PrYBC8+SPdz30suXOuvVV2fpFkatvJnn9g1b9z/9h9eq6X9kPXtp/aOn6x7Zo9vz+jicfuetaB5G85V+21313R0Xhe1vuuUMzNwInTbiPdA2OR8Au4VfmZSQg7AQAJBiNmr4jUqYpmZEmcy7SYL97Qmk0Jms0ADTGJPkJp2PYoALOeVvr6wEgqWDLhiUAxo8dqD8GQLF8fdWVLWEYPqdguefAiej8fxBNr9yWfuHFMnPlw+YZKwse3jr1P711mx4ATJXbppKB2oe3XbKhmduZ3tzFOUHZ9IrLyusrtv10ejdVDxfQnY6QWxyfv2nT1Rbed+kSeYKpeINpxgJVWdlkyTIeAJTGsvuMk3+PCjcmA+A38DPebbBsAADrfVkzN7ESbY5gaobmwl7LeADBgGQwJUOTbP3+zNu45OtyL8ku0tApI4QQMqdof/H8pm8c7RtK+3pu/NlO24En9o+K8bonf1x6b1q8PDr+l+amf9wbuuefqn/Odn3v2TYHlj35r/dvOX3QWqfe+Q/6v/w58I2SNC0+fX9vz+m8vAfSFodO9vzjf7R1Crh9ecGzD2TmJjMhz8nfvfbhW58k/eL5bxu6j4umr+fF43hH0xOv/VU0r3uhnFuENf/972tad/3+sU6RzseCctsN/FD/lYrFYtffqeQLEPn0VM+uH5Q/v/TFI+9sTaYL5ytyQz8Y+v1+mUwWHx9/YYkoimNjY1qtdraO50v9+gS6G+yu6b4G2lxrgZ5+PSWEzM17tcvlYllWp9Pd9C5m/X5OyK3p+FD4+fedAHbcn8Gr58k8A9vf6veFxA1Z/Ja8WfgKX/m8d50mJiYEQUhMTKTLbH646/FXPnO99hfPb7o3enLH77vE0vXP5onP/aLuTyPK3Nwk+M/IzWteKJf/7hdvvJ9Z9d9VePEXdf/JFry1Pfv0n17fdjL7re05WlfXE3tPlz+0/t7bz3z4pwN/YvNeqEr6y64/PHZU+8t/3fiN7gNP/PlMUdW3fyI7dN+vT//k+U33YuC5/2j35t39Qinzx1/98aXT2scf2/R9tudnvz/mPn16SKDT9WU4/NKj11nS5XLxPD+LnSEuQ3NFX+dfvJcrCneMZD+488XJhEv3rsd/c3hyVJhFJU++tHUFhYh80ThzRaWZwkAIIYQQQshNOHui760To4Dn8bwVucnMHjZty92rc5MXLQKzCKI2HkP/09ezea0lU22X6dOiI//ZLSAeAP5yqOfjE+IiT+xe5cCeZm9nwsmTVamqxQyS9bmLkZj3rT/kAZAtiiYacBrAWUffnhOjIrxjpSsSlRDHA+4oEB13f3J6iE7DwkM5l+uz4qlDgadmvDY/8tLORygshBBCCCGEEDI36r6MHBBZZhEAKMuristvP/nEsx/Yv7bu4OOpAOA/+d7J4qfM2ffLEs+e/HPrOBAPICaeEQEJMSAqhS+vSsc66ur+uU8CIMbOhpBYDoiCeLH7ELVMX/DiKASEEEIIIYQQQua3RaacxwtXPF6epo6ebvVIcsgAqJN0D9ydOt2rRLB/7EXainvTY50fD5z+3C0OD3SekX2jJPsbtyu1Ot09y9XXGKlFEoUYbk/9ltmQm8TQiVhoKOdCCCGEEEIIIWSeCw2fSbOWPvC1sx/uPfieX7C/33ecTfunvyvOPXqs9cxUmdPdx1uxSB31vt99HcOuCO4dLx9qRdqzT9z/8g9W511ziHmxtfn4cTbtqR+v3fI1OZ2IhYb6FhFCCCGEEEIIme9Geh77dcOFV6ePNlU/2TT14s9tU/8RAu7TOHv6+IeTKZdP2u7/+6lV9t+/kjP5P/9ffvj3f5n8b/jkkSf/7cjMnfziyX//xeT/TjRt+Pup7Z/unrEvssBQzoUQQgghhBBCyEJ3+9cMuXnZW5LP2OsGwhQOMkso50LIzYuLo955hBBCCCGEzAemu+9+1ny28/0DO46KFA0yW+ZSzoXqt+RWc+7cOQoCIYRchmFogEBCCCG3FO/FLj/X9vFru79JoVqQzp8//8VtfC7lXKh+S+g5nhBCCCGEEELIXEEtRwghhBBCCCGEEEJmH+VcCCGEEEIIIYQQQmYf5VwIIYQQQgghhBBCZh/lXAghhBBCCCGEEEJmH80VTQghhBBCCCFkrjp//nzLCz+kOJCZzp07d4tMfEztXAghhBBCCCGEEEJmH7Vzmd+CvfuOqMosBjkASANN+0eyNuYnQBpsersv2brBpAQADDTVHYnyHIOoFKdbXWxKYCAO97f3eaMMA0lSLC8q1Pua9o2bN2ZpAAC+9n1uw8Z8HgAEZ6NtcPmmUr38GpsK9tv744sKVY59do9cJQfD6rJLTQkQBttbj02wjMTo8oqNKl9Xs1tbkp88ryaDdtXvdBRsq9D+DZsIte3eq9i61czS1UwIAQCIw12tPQGJgSQtWWkp1Afb394/YrJap27QCPbabI6kDfdN3qODvbZGoWDqBYK9+7rjN5bqp7bkbGxGSZlRftnLgaY3OuQWa2GyHIDotrdKRavRfsQdEcO+IMMnKBmFYXWxUUPnghBCCCHkc1DOZYYBW51vbVWueh59JI1OJx7xigaDHBAH3RNJWQkARI/zXJLc4w6bMlST5VTGPEuWBvC323oHjaUJzuaOYOaGsmT55+4h7PYwSXB5BL1RebVNJXu6vUk5GXL4BKWxyJJ14Rnd19uH7DILzwiOxja3zmLIMvQ3O8LJ04e0sIU661r4qgo9RYIQcvld19kzbrCUGWbcnzW83Ov0Z+UkAIDfOSLnL9xI/c6R+EQ4BiU+9UYy2hrVeEf74Ibi1Om9aIzFFiMER2MbU2Ixyuk0EEIIIYRcl/mTc4l6P9rT4IixrCytrHqNus+2tyskk8VislXlm3OXsQO23/Zk/9SqB4TumtrI5odXHa2pcXF6DtHAaMRkrc6OtR3scwlCvW+VJcdnOxjhYr5ASrbR1bOoamuuGvA27GxJ/1GVaW61N9AYdGKHRzQY5eKwe0JnTgAguJ3nDAXLh1sd/ozJR/RpoiAySiUT9jiRYUm+nofqoNvDLi9JdbZ6wkaT6spNiV53JGm1CoAoQj5ji+GxgCIphwGgTOTEfj8MydpUxu4JZ8zHpIvgsu+xe2RsNMZbtlSkK131O+3QLmMhjAbUli0V6ZHuettRqGQ+hyOiXbcx19vmOKmuF0y51lWIBXpsdY5IJBSSmauqczm6bRGyoMmXKMJuT1Br1Fy8pSYauTHHsFSYzEjDzvEkQ7w3CACQhh1jXEaBsqd7UEzVX3+mhFEaVms9re2DfHEqRZwQQgghhHIuCLTZTpqqH55spBJ11B2Ulf20WguE2nbXdZkeLrhaPTiWUm61LEPUUfdqlze3Ijtb2xerqMxVY7QhMISyv9+qZSFwR2u7A7lrVK62AW1Bxdzr4KHSGcQ2j2DUjbgiutUaAEGnm023qJIV8X1OHxJ4AAg7O+xjUjCoyLIU8/C7JYVWefmWws62xpHJ30nFoMgZAMDn8MYbM5QJEmt3B01Zmis2FR4RFPEqABIYwdPVMixFmYTlOVmpkgS5fHJrciUkUQLk8UskZxiYfzkXb2PDUM6PtmYqhb7aV9tGf2oBwkpTuTWTReCjnQ2uaEqkx2favK1AHWrbvVeRs3xVyvGP2OxKqx4IDQF8QVWFFlFH3avdo7mWZXTfImRB51z0hUXR7o79/VJiRl6OMUEOQM4Ztc7+YSk5edg9oc3S+T1BAJAGHeNaM6+R66JtF1sjXg8JKlNBhrvx0EBCIYWcEEIIIYRyLgFfjC+Y7hUUCQTUKZN919UpyyKdvqt+UBnHcQDAKpSIxS5ZpVCkaLUsAChXFXCvtnlz0zt9prVzsqeHSmdAq8cPr6jL0wDwO93hcWVz4wmI4aBjMIdPZaY6BMmd9mYBDKBUMZGICFz6m6jKWFA2YzyXycd5T3h83N4ICGFhqmH7pZsCMPkPk1q4MRUAJF/7/vYBPodhRFECGEAUwMQz8/hbFvWNBgIhW91RICYoUiIAoOI4FgBkSlksBmX2Wu2rNbU+vUJmLitjL79QJy9mVqFEJEY3LUIWPHmCMb/MKAUdzc1dSzYWMgCYBIMu0jUYljyiLkcFPwBA9LhGBLGjcQSS4Ic7bLyxZoQqU4HJ2djuybj8rwEhhBBCCLle8ybnwvEy31AIWjUAKHheODoUNetZhIZGFdpiQJAhOlldDQUCMeU1YjEj9TIdGTa92GQ/2BCImCvmaPsCpc6A5iNORlekmmxonlRinR5acV/3oJg6nUpSGjK5/UfcRotBa5Bau326fP4zn7PFQeeEqWxyXF1p+NB+x7BUePmmtCplZFxA6sUHfUauZHAOqkQu6vZLep4RxgLy5AwA4sQEo5mPo7mw3DKON22e0S/NdXmRiC/Er9tivVBCduF6JYSQq2I0ifHMsAhMjaVl0EXtrceWrLQop1Iugtsp5WzYYFQCEN32RncwI+vGdqHJKDA5G7uFhHwKNyFz033PvvnJ2PiteWz/04lf/YFO0ZdtQ67xX394N8WBkC/T/Mm55Fak7a3bfZQFdOu+Z1lncdjeqG2RxWKyzIrNHMDl5EZstfVHORY+mcx01ZqxPltdW1vrLSgrvmT5stzMwIuOgoo5O46GUmtg2p1TKRfneGIGP/04bTBEOjyCfrqiz/DmDOzvHtYVZhRld3U07pfkcgZIzLZk8VduVvC4ooaCqTFxmWRT0pH+YUl3+aZyDPJmTzgjA+5DHW4xLu7cuXMKU16WHMjK9LTa7YAUp8srVgKi1y3qVs/LEXT1ZRWuvTU1bSwg0xVvsaRf+UVU4GRDTU0bK1PostcVZ/Kr9D7b7rpsi9VMdylCyEz+fnuHR2LkDCRFRl4qM5VhgVJnkPcOGi+Meht0u9nllqmfGOS65fH7Hb4sE6SxnsbGEwAYbXaRHP7+5kY3AIZbWXSVjExCRpHRuS9AUSeEEEJmzeGnV25qfsR+6KkV00tOvbw245mkNwP/dQ9FZx66LRqNzokDjcVi58+f/2r27W3Y2Zb+o0oTzdZ7MyR/b7ODKypM/ey26ZKvq9mtLcr/7JF7WfYGToLf75fJZPHx8ReWiKI4Njam1Wpn68PN0tdH6K7dE6n4XgHHIuqyvdq9altlOl05hJA563Pv1S6Xi2VZnU5307uY9fs5Ibem40Ph5993AthxfwavvuF+frdyOxfylZiv7VzOnz8fi916bcSH6zat3nXPkfcfSb50eWS4+/BIUqn54uJTu9ZmPD0Xci5S0NnS3OUJiIxCk5xTYtGNNb7Z6o1LLNi00aQC4Dv0dsOJCTZ9/feKkwGI7sa3m70St9pqnRyjYrDpj38eN9879Qqis/HNVqnouxump0T0tb/d4NFV3JfPDzb98c+nwGVu3JiTwMDX/vb+saxNecH9DccmLj5vTO/nqhiGiYuLu55P5XK5EhMTZ1YbZ1cc3Xo+U6DbVru7QSheRwmXm8UkZFk+L+ECgOFzLPnJC3TMABmfrnB8YKuvr6/f2xbNLdbRZUMIIYQQQsisee87XMra72y6M4Xj0sqfOxwBIk3PrF2Zwi3mUu78zsvdkVMvr+W48l3DQKTp8bTFaY83ndpVzt35nW3lKzmOSyt/+pnH16Zxi7mVm3YdB4DjddvWpnHc1LsxvKucW1n+nbVp3GIube3TTZ9GDj9Tse1AsPnn6YtXPn34kmM5vGNzxUO/OQ5EDj9XnsZxKXf+vG5kboRxuLf9lKgtude6oWT1yiQNAMSxCsbv9IQBSMMOj6RQXCgddvcPq1auTg07HL6bSVUo5OH+1m6/dGEJb964pfLevCQgcfW3K7dsyufnRNQo5/LZOLO1+uGHKzPVFAryxWG1BVVbqyorKysrq6orc5dRgo8QQgghhJBZFRxQPGI/eWi7/vCOZ14fhiL7wV+/eWTI+/6DsO14vumOBx9brzhcYzsVOfy6bcT04COli4Czjp5FTx46+eY9aP7NgaUvHun/XenIgZdfP47hmn/YVocn/2fo5B/u6nnm57tOATg7cGrp9o+HjmxPat/1/IHIXdu3r1+EkhddZ479+q6rJzBef2ZHc9Ij7xx688Gks3MjhrxBt0Tw9PR6wko+eWpQCHmSjg86PWFIgw6vUqfTTKcYgo7+YHJGVsZKA9yOQemGd8YkmXOSL826yJVKlVLJxIGRK1VKpXxuzMMioy8fIYQQQgghhJD5TX9X9lLFHXdlLz174PhIpLv9+Wd29QQX4dMRRCJnsfSex7Ys3VSza9cd732av/0RM9AOLMouLV269FR2Eg5kl5iXJp/VL8XxSAQDPcfPnh153pLxPBBRaE6NYAWwKHt9abICK/SLzgaDEUDxOcczcPzU2aT1VaV3rPj0nuxF782FEMpTizfd53P3Humw9R7Lt24wAJDkOiPv6Xf7lGNelbEsweN0A4Dk63ePRyda9/wJANgTHjHVcGOdGiQojAX5Htuh1m5N0lye5ZbauRBCCCGEEEIImeccBw50H296r31k0R3ZSU3PP/36qfwX7e/8av3UpCCK0sd+tqJn1/MHUPrYg3dMv+li4mRmCkWfvWLRouyf7T1ysv/IEfs72++6ssik4KmB4eHhyFWPR7/ijkWftr/XdOp484Hjc6Khi+QfcA6H5UmmbJ0m6vOMiZOL5Vpjcri/uWs4wWSYnhFFGux3C0l537733nvvvbfkDmaw3x2eWiMI4XA4LAiiNPU6PPX6yh0yKmNBfnK4v90pzOELj3IuhBBCCCGEEELmOc2ndd+1bNr16fp/+VVVcnbVg9nB18vTLC8jWz9VYMWDP7srMoL1P7tn6edsKnnri689qNhVoV2ckPbNbXWnrlZGkb+1ynTqeUtGxW96rr6RLf+y/a6RlysKv1uHOzRzIoTimKOt0Vb/bqMbd+Sv1k21W2GU2nStNCHwJt3UhIkQ3Cc80QSdLkGj0Wg0OgOPsX5HEAAwfuxAfX19/R5b1+QgL2NH/ru+vr5+z/5e/9V2qTIW5POIRs/N3QuP5i0ic8k8nbeIEEIW1r2a5i0i5DrdovMWJegeMJ1999Bo+Kprv1bw1vbsoV27H+uU6AzeahbwvEXvfYf7bvDXrivmELoo8unwqQP/sOmhw/fYrzUAC5lLbp15i2g8F0Ju3m233UZBIIQQQsiCYiotfnx534fXyrkQMidFDvx89Q8OJJX+6rXts59w6d71+G8OT/YeWlTy5EtbV1C8F5K5lHO5zjQVIV8aantFCCGEkDmL2fCTh58SWl5is59aNfK/n/zQsbzg2Qcyc5OZkOfk71778K1PsOEnD29f/NcPZfrydHnIdfSff9fiSFv3Qjm3CGv++9/XtO76/WMnkp78cem9afHy6Phfmpv+ca/nNMWV3Iru+a/Amc8soLjntaHAF7V38yMv7XyETsJCNZdyLufOnaMTttAfDRiGgkAIIYQQMlsSv1n8uOvku+//1a00PPV3OYbuAw/9/kxR1befqh5p/fVRAGqTdtEfDmxrXvXLh7J/Xtj30KGjH3qWf5/t+dnvj7lPixDG7E0t9r1n5OY1L5QX3/PxG/9JMSWEkBmobxEhhBBCCCEL1Zm//vP/+/DjGJBWmrsYiXnf+kMeANmiaKJhskDQs+eQ9y8y+fEHlq+Il4vjAXcUiI67Pzk9BMi/lrbl7tW5yYsWgVkEURsPCBRTQgi5iHIuhBBCCCGELFTjZ05fHHs01lFX9899EgAxdjYEWAAIZ0MArj4+qbK8qrj89pNPPPuB/WvrDj6eSuEkhJDL0AgphBBCCCGELHjDA51nZN8oyf7G7UqtTnfPcrV49XKSKMRwe+q3zIbcJEYOGQB1ku6Bu1PVFENCCLkC5VwIIYQQQghZ8AT3jpcPtSLt2Sfuf/kHq/M01yontjYfP86mPfXjtVu+Jtnf7zvOpv3T3xXnHj3WeoaCSAghl7stGo3OiQONxWI0RwxhWfb6C/v9fplMNnOidVEUx8bGtFrtbB3PXPn6EELILXWvdrlcLMvqdLqb3sWs388JuTUdHwo//74TwI77M3i1/Ebfft+zb34yNk5hJBdsyDX+6w/vnn+f6/z585Ik0fklM8XFxV3nxMculysxMXFmtXF20XguhBBCCCGEEELmMPp5ntyyKOdCyC0i2lf7aqBi2xqOQkHIguNrf6c1oNHIIUkSq80uzODlgK/9neYxlUYOMArd6mKTBlJ4oKvjxLjEACKjzbMYA43NKCkzBtvf3j9islqzproCBHttNkfShvvyeQCQfIfeaVOVTa0N9u7rjt9Yqp/etTjQ0jqRZcmQOxv3OaCRA0xSZklWMjO5OjzQ3uUSgGiUNeQVGlX+9ma3riR/ejUhhBBCCPks8ybn8uXVVwMf7WzgtlVnztkn+/6mvpFzYnA4LE9OUGJJekE+2veNmzdmoddmcySWbSqcepYWnI1vH2JLvl+qF52N7/SDVzEA4pcX5fD+rtaeAOSMJC1ZXqAd6zgxDsE/LKiSE+RxiSuLs5IZINhrawznTW1NdDbWtbMl95XqJ5vFSoMtb9sncqo2GOUDTXVHoryGkUQpPrMoP1VJX8svzehHdUdNVZZlf8s3z1Fni1ZVZlIwCfnbyLWrLfk8ANHX3tjsKCkzqQC5Lq9sMm8CANJwu/2EpsSSr5lOeIiB6XUaXu51+rNyEgDA7xyR86qLb3NMJKomLqy9lL/3GJaXaYCgyOjyLBf3NkXJZxXrlQzg79rXO2wsTs3S9bU6rBS2EgAAIABJREFUwskZKjpnhBBCCCGfa4G1c/ki64ezUH39UvAZpZYMBHv39XKW4skZ/QYuPlurxp3DUnIqAyDs8YC/8ICekFFiMU51Iw7394wbLGWG6V7FeksqMHxon8c443Hd7xxRJeLC1gA+IeryinqDHIDocUY0CdO1BpUxz5KlgTjQtL97OLUwef5ccK76mm5OFfZE0sqq18i662ydESWiMrO1KndZqK2m1sVp1RACAVm2tdJ8oQIT6K5vOBqDEBBM1q1rtBjt3GvrjrAs+OLvVaR47HvsHhkbjfGWLRXpSlf9Tjur1SLq80Y4E4dwTAiMKguqrCY1Ri/ZI9dX+0qXWs8hGhoN6yq+t0Z5tPGwI+CpD68qtppnXriBPlt9yyirZLmczdZMmcu+1+6BEgLS1m1Zo484bHvbQjIZkFJQkT5gdzhk9fUBc8WadEqXETIbyRfebEKjJ2zKuGyFNOwYS8ws1Fy9hUmikRtzDEuFyYw07BxPMsR7g1N5GY8zojVnC22Tay9PubhHFDozA0AMQ3mVwVEY5dQ3W5LAMACUOh1j94QzKOlCCCGEELIQcy6B7vqGoxEIIcFk3bqG89j3tAzJZIA621qm7pyqH2auW2O6OJ2d0Lm7FtUP5yoBb8PONtO2St1k7ZRHNBCIpJdtKdDC27bH1gdOLUMgjGIA8LbVHXTFYqGQLHdzdfrQVPXVVGzNVTpsez8KyNgo0iq2rNGycyd6SwzaiHNQTNXLEXR7FbpEcfhqNYIlirDbE9QaNdccy00adoxxmUWqni6PmDqZnJEbdHC7BYNJCcEzwOh0cs9lm03gGVdEAuZTk3WvT7Zt21YOELpr2njrNssyeBt+29iXXa2HEEspt1qWAd6G337gWLV5+j2cubLaDERd9a90Da1R+2ydKdZtayaTIl5bw1DOj7ZmKoW+2lfbRn9qAcLKtPKKTFborvl3z6onrHqE2nbvdUVNpqPvX7LHLYhFVNnlVj0Lb8POtqE1leZcXZt3beVlicKo44ODWPfow/rJC3fA1uDLfXSriYXQV1vTMrpN3zegKv5R5VSGhVvFD3GV1M6FkNnMuigUkl8AANF7xG6XA3GJKwuzNJGoXHPNRIecM2qd/cNScvKwe0KbpfN7JnMugscZ1RVpeCHxSP+glKy/9AYrhcNIME4uY0Rvd0sQUUmVnmPWqy4pKPl7eyaMBckAII9fIjnDAOVcCCGEEEIWYM5lqr4KV/3OrqE1OQ6HLLu62jyVYDFfd/0wFuGyrRV6IPDRTltP9hY0dOuqtq3hEHXUvtAJANAWVFUXTPZqcgRy11yovkYddR9g7aNb9WyobWdtl3lbgXrORI9ZYtCd6/CKekPYORZvXC3vmM65+Ptb7R4gTqEzFxr1hUXR7o7GfonLyMsxJsivknJxjmuzeJVcF231CAajEgDkuvS4VnfYlAGPR27Ikx+7NOciBT0eJqlono0RwOnTJ/u7BYZ8Ye/BOh+AiEyWEgEgU3OT6zheEQpEpiswwkDnwR4fZAgNxZRAyBfhTNNZkahvNBAI2eqOAjFBkRIBABXHsQCUMplqqRoAZAo2GotduUeZTMWr2ckSQOxahxweDah1KdOZwmggIEvhWQBQ8ino8cFSsTl00FbTAl1BhcVEN1FCZp0wEZGrlIBwscMRAEgsK/qFa+Y6mASDLtI1GJY8oi5HBf/UF9rt9AtobfRAEvzjHlFvuNZe+ZwNGwAAwf79bU6+zHSx5VrQ2XJEyCzJoiwLIYQQQshCz7nMqK9GlIC2bHN2S0NNTYzPqSjLvIHBXqarr+CWcSFXIIAIb+IAgF2aMrmZkOujlqNhyBDwxVJmzhgcCQRC3ra9dW1ATKbUCcDcybmAURoMaHWHFcHxRBOPi1mRhIyiC32LAHmCMb/MKAUdzc3tio3FqZclSkTPiRFBjDSOQBL8cIeNGZMtXVKNika3XwvvEmOJfPzYhUq+s8M+xoBNnM+P9GqeX6paV3VxxKEQYoEhH8xaRIcGwupMBSavIu9Bm0P3aHUmG+2rdZwE1Lwi4A1gMnXDcss43rS5ynSh8ZTruvcY7btKoVjkityLilOHTg5FzZPtXFieh8MXBcdC8A0hZRWg1JorqszRAdsrH7hMFgCxKMDS3ZSQWfozNtjthNGiAoTL7s/JRq6nzxm2GK9xo1QZdFF767ElKy3K6ZRL0O1RFGws1TMAwo7GNrdgSLpkmyoVPGEJMzssyeUMJEAS/GEkaJRhd0uH31iUnzz9F0CcmGA0lH4hhBBCCFmIOZfL66tgl2VaqjIxat/Z4DBVa4HYVeqHMjYWigBKRAOB8FRVNDA0Wc8c9frUKZw6pvD5AkjnEP3UFwAPuD6w+cx/X5nOCp1eV2hm9VXBcZy+eHOFdk7WQhm5Nj3O3tojNxRpIHk+u6wmMZ4Zlq6sMbidknnDBqMSgDjQZHcHM0zTNYb4vo42JjEvi8H4xXrC5Hgu85s6tzy3vn53DctCpsouqzQrAfja6upikUBAsbbKxGIyJ8Kb0oUP3qg9qlAooQKgzrbm7q3fXcMC/JotFWUVrr01NW0sINMVb7GkX/8eV11ZRGdOsdtq6sxlVQUXh3FgMyuKHfU1NSwLVc7mysy1FSl736jtlMUEpFVsXoaBj2oPeiBDLLaqOAWcapWwp6Z2qMBakammOyohN22qG5EkSgpDXslk60CIno7G8YvzFqXmF020t+5zMnI5GIUxr/Cy8VeUOoO8d9CYeiE/7nN4400ZzHRKxsjY3eEkSGM9jY0nADDabIshaaJ/WEpNFQe72k+MIy7u3DlGt7pQieGWVo/RmuG2t3iRHGltPAYw2tWWDJXXLepWU86FEEIIuUmjH9V26asrLkwhiMBHOz9Ytq1qTjUgl4LOQx3OCBhIjDbPkqG6bMoUcaDp7eZoflWZUT756p0TqdayqQecgaZ94+aNFyqAl770te9zGzbm88Fe2z6v6f9n7+6j2rjuhPF/0UhjjZGQR2ZASCtFRhvZMqwUC4h4jMFqSTA+lWuTNW1pw2aTTdnT7ibnPE3T89vN0253c7p7Ttv0Oacv++JknW1IQ/LgBqfWHggxrQyGIvPiQnixlZUsoyJeRKQIiYwsaeD3hwDzZoxtcAB/P3/Zozt37nxnNMx8dedeS4lWBADg725yKgvlnrYrAS4a9LEUIyEXzbSIOZf7Zv55VZx4Xh3vqn3fEedDPC435ghArN0fW/58SGlN8hpr7SeMGNiQcDYwVKjnbF1P3BeAnBMFlBhK95+pO+0Si/kQEie2pPSdf7uGFoopgXhX4vH1/Ozja6nZcba6GgQAfG1xhUm+tWJIKjTJnVdkShFA8OZS/2BLkxsACHrfQfVkW6eHI0gCOKEud2knFwi63YKHzdTN2vodPq10Numipe1tlEYKEH0QLqiZZVU3kyJphrJnDDc/CwGf1lvKDTdTc1kVVQAAdOkzVYtqScspfybnZp3miswVNzG7OgBlqHxmpS2mzRWANHNVWeLUL6ta4eJOL15PdaiiEm75X+rQM988hH87EbrHP155x4+vtPCJJddnqbagZOGXVlRcnChZzAAAUJriJzQAACDLPyoDAKZkwTxEpNpcAgBgeSJ7YRX7wO4IKnQKY5Fi4ZU8wKm1MpDILF9bOJgv5+t2J+sPSvCQIbQl/L+X/nxmZmaztWqSjU/PzOwQEJSAd++1TU9PJyUlJSUl3emKMzMzMzMzPB7vgTolHrT9vVuhrtpWpnxBUmR9pR2qKN3yMRrtGyT1loL5+4woEIumTPG6Y8zND73u6XTC7Q5r7mQIfoKSgqNtML1EJ5l/UDXOT95SvGyuxU0rKRaLbYmGxuPx+/g34/7NPI3uiEBwB52H/H4/n89PSUmZXxKNRicmJuTydcuC3cvXJ2Q/fVZYWWnYBN2hAj0NNtfcWwzyHItJhW8KIYQ28lrtcrkEAoFSqbzrTaz79RyhTWv5/cxmvX9GWwCPxyMIYvvt18zMTDweX/22feFMoMahV5uYb1ZkAYCj9pT3cFXOJzfn5TyRE2+orr0m3r9Hm2Mx8u1nGq4BBewdzxmaFrJXWwNK8HnExhOWhR3Cx22nLqiqypXei29bHXxazIfACJif31r9XPx99fboAbNRNvtLe9TZ1M4pp71gMmspYB3N3cBEPGRhsYaEsKOpkzQ9PNwW0JVkS2HN/VxsDnofXL4sKjyqk/i7m5zK2TzLaHu9R3P0djkXgiDWmGR0uVypqal3d5ldC/4DebVhh+wNXd7Z/1Bac2kWJlfQ/SY2PVO5SZpCG0rLDHhEEEIIIYS2txs3brAsu/32a8eOHTt27FitRKh34Uyg40NLPvYtmpcTclSMQF9mUUHg4qlr2orKHDHEXHWvNg1907L2OUMrVMAOheTPV5qpWzSpYWDP/CQtPVst5tJss76vo8V6mVTrc7MVIgAA4fyUKW4vqckl+hMDVQTdbkGmWSQTpvQ6fdnStXdP4ThCZsyl69v60ku28o8sD2bOhVKZylbtKiaYf00DIYQQQgghhLYBHo9HkuT226/bd95ZNBPocpmL5uW82SXFNxJnCsQAAIIMldDmY4Fe+5yhAHy5dg+1apMWT9KyxZ6pFdlFimx2tMPW5pCUqAHmp0xJh7FkjZYIJMr5ne7wJNXS9BFE2aBj2Mgo7qSrFSkz5qZY23qo9K17fvLx0oMQQgghhBBC255AIBAKhdtvv27/btGimUBBwOfPTqwSCgTiAEvm5SwT8iEWBwBgMoR2HwtyCmIjQxHaQK26iWWzlK5KTAsD85O0hGGr9uOgpEwyF56bVYWQaVJ6OztJeW42AQEAAG7UMZZeaEm8COTvru8bjirubKAcUpGX63yvzU1p1Fs0RphzQQghhBBCCCG0fS2ZCTTLJKx7u87DCCAEQgaWzMsJ/P0qn/V0rd5sMZVqz56pGeBDPE4/diITwHXrTaw0S+lqTTKW7j9Te9pFi/kQ2nKJsOhQu+3KFEESwPHSD+RLACYAAICQaVLtnSK1FIAFAOBGnZPpurnXiaRadaTTw6oEEHbam8YIACJZk5vPW/RfzbKNkaq8PJe1e8uefTiGLtpKttMYuggh9MBeq3EMXYTu5X4G75/RXXuAx9BFDxwcQxchhBBCCCGEENrmQg7b+f7ZwU2AMZQeyqQwKA8SnKEdIYQQQgghdK+u/viRnXuea16y8OeHM/a9eGnBkkjtcXrnkddGMWDoQSHWmsvmYcLlwbNl+rnw+dglByGEEEIIoc/OaO3xA68du/z+s7K1rrH35E/fKUzXL1q2AyCCsVy74eZf/XbS8EVLNuVseqfNy0s3HS/RigCGW9+2xfK/kjn09oXr0/OlU7K+cNwoxaghtGlgPxeEEEIIIYQeQKOvHaHzn/txVX7GnqpmgKu1VYf30DSd8ciXft4TgdHXjtD7jnzp8B56J73n8IvNn0Qufbe06oNgy/OZO/e9eAmg5+fH92XQO3dm7Dvy3eZPbrGNq28+VXriB5cAIldf+9K+DJred/w1B4b+7h/eBELS19HmCN9cpMh/4mRZaRYNIDeVlZ0sycaEC0KbCnYeQQghhBBC6MF0o/fMmbwf/vKdIv1o9VNVtfDyH0aevPp8/peff+3YO0K4MXR9109/P/LQm+YDP3jlg5fee+mlx3/+VPBHrkQ/l8ixf3rj2EP6yGtHDvzglXMvFD262oYiH3z3RSuUv9P+0o6fHz/RgpG/W6TSqA20d7c55MXJiSUESVEkRxHAI4Qi0ervrXAcNzY2to7NSUpKSkpK2rFjB0VR23IWaoTuHeZcEEIIIYQQekDtKHzhR5UlQoBLvVdv3Bh7xax7BSAilFwfg70AO/SPF8mEsFe140YwGAFY+Ex9/dyPv/dKx9iOHREH3NDfuM3bQmPXh27sePTYsb0PwbFHJW9ex8jfJQ5SdAcNHmt3m8OYfMdr83i83bt3r2NzeDxePB7nOC4cDk9NTa1v5QhtD5hzQQghhBBC6IE1m0dR6ffu2JH+N2ff+/ZeGL0eFO6FMws+XSB4fWh0FHYN/fy7/3np0XcGT6leMf+vV267FclDqh03LjU2XtcLP+gN3pBg3O8eIck+aHBbu7v9ALI7WzXRJ2V9myMQCABAJBKxLOvz+RiGwUOE0EKYc0EIIYQQQuhBJ6v86RuXql4slX8vuCM976WzF55cXkaYV1murXrFrDv3wvu2Y+V5Z37+5T2PPP7ko/odt31dZdfjL/3o8S+/eOKRDx4v16t2BDHg90SSfdDgrr8c2FSNoihqZmZmYmIiNTX1Pm96ZmaGx8OBStEmlRSLxTAKaFvy+/18Pj8lJWV+STQanZiYkMvl67UJ/PoghJaJ+pwOT5BSatNFlIgiHsQQJH7zXIXL5RIIBEql8u6jvN7Xc4S20P3M2sXj8ZmZGYwhmsfj8QhiY/8yTUxMiESi+zy2y8zMTDwex+OLFiIIYo2ZOJfLlZqaeneX2TV97/BgIPQZG79Y0zCEYUBoe+CGOzp9tFYrJyf6+kY5CPY1to6u90Z83c2D+BsxQmiTulr7YtWs5167hJNCP2goipqamsI4IDQP3y1C6LMxfrF2QFtuTgNIO1RRivFAaJsIByZJqQhIUqI0GICA8PpVzQ23dnAF+SoAxliEb8sjhDarveU/OlWOYXhwHy/5fOwJjtCiLwWGAKEN46qr7qFFYU9kT3HFIbDXXnABsAEwnKjIHGm65Ah46sL7CywZA6cuqKrKlf01r3aLVTTEQuNhZelXDskDXbXvu/ii+MiAC7SWk+WGNAwpQptbeNg5xrICjydZrZ6y20mzmU58wA0117uo9GSITgaAlpMcC9HJKUpfaGQW9fFmHbaOcCpMTlCZpjzG393hZGF6KpaiL8wmHP1eL9HePqU20m6bV1tipBw222hyKgUcO8kpTAUaUXS4u80ZFRJTY56wKNtUmC0jF1QedLd2OmMC4Ah1boFGNNTc6KJSk4FjJyPMgUKdlHM2tUBhsYYE8HU0utUledI1NhshhBBKSEpKwiAgtBDmXBDaSF4fv6qqMvHQZSqvMAHEeqpfdwRyDuUo7d7DZeY0gPGB2cLxiEh/xKISgLfhlH3kkHmoK65/utwg8FKnWjMx4YLQFiBSaOWicHK2TgGsY/FH01GhMi9PBuHB+hbu4NE8CQT7Ggd9wCyZcyI6wdIWczYJAKAwFikAwN9dP+gzFqiVEn9yfr4KYNQ9V5iTHsjLlgA33NrkDmqyw+6xlOyjRik31Nw0pV6UcIGo+7JDkluSLQF/d33PkLoApqNCtTGPIcDf3ejw6/JXmkZkrc1GCCGE5v50TE9jEBCahzkXhDYSrcqc/ZU75LrYOhAGPgQC8YyVO1zyRYxYAADAFwLEgc4x819/vdYj5/MLHtuDsURoa+OJJCIAAIIkKYICACAI4Lhl5QipYjZXwgXdgw5flCCiE1Fu5SkgCJForlKIcgCybPWVNltHqhBkBwyixWXD/iAb6GsNAkCMIKRR4PEoSWKMX4IE4O6t2QghhBBCaKWHPAwBQveD67zVZ/hGWaYg1OV1hQAAIB65zfDqIW8k01JZitNyIPRAYp12J1lYnE1xvg7P4OzCaQ5gtbd6gn6B7mCemlzhI0oiEVGGAt1cKoZbPnY3QXBsFICE6NQUi0cAIYTQA/n3d6jLPhBijOYsgeOi3QWZpkNaGsOC7h7mXBC6Lxit0nf+7RpaKOYLxAwAKA0ZNmt1raG4/JZdWATi2MCZ0z5awBftMT12KFOMYUToAUKmKonOtmafkKSAIggAkVwZa7M1+x/Ou3UmliIn22w2N8kTpKiyDWrJgvwMpTmgabc32QgCeEK1IX/5PM2k/GG6pbM1nEJBlKNwwBaEEEIPnpjDah0yVJgzhAF7zUUoLTPQi/qNDjXUDBkrDi146d9Re2r8sapDmJaZE3S2XnZHomFfkGCkFCFUH8hm23pSjhapos7G2sHUo0eNUgIAwoNNPSnF2YHGTqqwWEMBgL+7sVdamOWzudVH85hgn7Xeq7WUaEUAAP7uJqeyUO5puxLgokEfSzESkkjPKsyWbf4bliQcVhptV36/n8/nL5xoPRqNTkxMyOXr1nFkQ78+AXv1eeGJcoMYgO2vqfYVV5lxSBeE0Cq44XbbmNZslBLABfuaelKKi1SfyY2IQCBYvYDL5RIIBEql8q43se7Xc4S20P3MHVwVOG5mZmaz7dHMzEw8Hr/thWKN4vF4UlISQRDT09PT09N8/lp/Ub7T8ttDIlYbuonP5PqcOKnuYIUha63vcHnOCj9oBi6eaqCfrsgSgKvulMNUdfse55hzWRHraLIThWYNCQDBvvrZnIutyclCam6JkSFmcy4FzHBrk1tdXKCIOpva2NyS7GhHfSLnMthk97CgLCzRSWZzLsV5DADAaHu9R3M07zZzOBIEwePx1tJWl8uVmpp6d5fZtcB+LghtUsIMZfxCQ52LAmAj4oJSTLggtC1vSYb7ejxzE0pL1EadjLzrugiJLPmjvo52kgCO5ZQ6xt3R7psdeoWQ6fLUEow3Qg+WmZmZTZhzAQA+n79eDUtkEGZmZhLZhLVXe6flt4cHd1Ih1mU70zrC5wOI9aXG8IV+F8vW+fabS+VDdQ0DcWADrNZSeYhytA74huBsnU8lH7nm84VrhaZSs3ZBbmYuExPqr6ttDVO0UBjxAQ68uGbJWpN0sK3bdzNjQioMmv6WvlGOHRRmlUgAfHNlOYLOyoXLbYPyo7otfQuDOReENilKZa6oxDAgtN2/6YrsfMV6VSZS55vVCxcw6RoMMUIIIRRwOPj6igpDInvC6uX98dKyHDEA0GUVBoCYq+7V7pFDlqyC/a0hurwsC8Dl7RkqKL9FP/OhCxfih75eqRVAwPavNRjfteKAJ9GZ5PUt3aNHdfO3L5oDtLWxjcqzKBb/8MRxhMyYS9e39aWX3HnHqVgsdquXEgiCEAqF9y0FiTkXhBBCCCGEEELbl7z4hL61obo6zhhLi7OE88vZoa4LvT7gQ2gkTq29OjYQ4GcwAgAAWk7zxzHAd4CQGkxya1u3dP53IYLRaSQRkUa0QmlSZsxNsbb1UOl3up3p6ekbN24sX87j8SKRyMcffywSiXbt2nUf9hhzLgghhBBCCCGEtjFBWpa5PAvGbacaHNqTAInhX7wXrA7l1yuyBLH+Gse1tddG0aK4KxADWgCB8VAcw3tnCMZoSre29HHywrklBAG3GnqFVOTlOt9rc1Ma9R1tZceOHRS1WiItGAyOj4+npW34CA6Yc0EIIYQQQgghtH2Nd9W+74jzIR6XG3MEgrheXFNT4zUdNmSy59+uGRAKKUh0suCLGTrxnC5kGPEtR3pWPXa4q7a62i4W8uMgVGKA7xAhM+bKvS3c2kqTqrw8l7V7vRshkUimpqZGR0c3em9x3iK0bW31eYsQQmiLwnmLENrQ+5m1i8fjD9oYsWh1PB4P5y1CD4g1zlsUCAQmJibS09Nx3iKEEEIIIYQQQuh+8nZZ7UOzP7MKMgssBpxLdHsRi8Xj4xs7Ig/mXBC6ew/ufHsIIYQQQrNi/TWvB0qrDtErfxy4eOp8WlW5dvsHwtfxXltAIiGB4ziBXJ+vY2ZnYYkONb/3kcJSrKEgOtzddiXARYM+lmIkJJGeVZjiePdyRCoiAIhkzV5m+Ko7Eg37ggQjpQih+kBBiqPerT6aJ3E21XYICp8oUpFzlb7bEssrL9aQQ821N2vIzVeL8KRcP/IcS1kOhmH74vP5SUlJHMdt4CYwygjdNeyvixBCD4Iv/J9fYRDQbRX+2UP/35cPbec9HLLW+g6X54jXq77xi7UD2ltNxbtFkfID5jwGAKK+jqYWR2GxVgQAUa97Op1wu8ManYhUGM0KgNH2eo+mOI8BABhyiDSm4mzJbB3qDA2wjiY7UWjWkAAAvrnaCUYac3mjKjWZqDTGMHMfLaoBIXQnkpKSNvSxDnMuCCGEEEKr8QU/xSCg2wpO3dhqTY7111RfU4oD12D/kXJ93H6mwQGCGEubyi1ZYK+udtEqMcRC43FtWbmetV/od7FsnW+/uVQ+VNcwEAc2wGotlYdWHrgj5r34ttXBp8V8CEQgDQACPQvXogaaLjkCnrrw/gKLNmw7Y/PwBbE4Yz5Zmkltg9OBZAxaaPKEtToRhN3OabXp4eE2t1+XLb2HSjmhWjntdrNqLQWse4hQygkPfvMQulczMzOYc0EIIYQQQgitt/hIQFxeWSkGCFw81a+teCZHHHPVvXrelfUYsPGMIxZzGsQcta/3jOeY9Xp5f7y0LEcMAHRZhQEg5qp7tXvkkDxjhZpDvQ0De8qrDtEQc9T8pAcAgDYsXMtiyFHavYfLzGngtZ4ZMT5dmUWx/TWv28e/uT26vpBCIednAURBt1uQaRbJhCm9Tl+2lFmhbNjZaZsggMeTZxdpV8vKCJWZvDZ3WKsDt5fU5BL9njutASF0v2HOBSGEEEIIoQfzUYDZo0q8K+QbCYQjDbUuAIjwqXgMgE/TNACAQEhBZNGUMOxQ14VeH/AhNBK/VZ+UkC9CaxPr78qgV10r5hsPBELW2gGAOCvMiGyT2LJTEVJEAfid7vAk1dL0EUTZoGPYyCiWzxsk0uSa1/ZmEKnQCJvc/nQYS9ZoicBd1IAQut8XWgwBQgghhBBCD7ZdGTQttpQb5rIhIfsKjw2J2Xi9F6wO5dcrsgSx/hrHtVvUJ6aFAV8AMmmIfeILg3zFteKROAAI6DSa0Z4o1wq2UTzZ4R4naMwibrR9LL3Qkhi4xd9d3zccVcyOgXt3CJkmpbezk5TnZhMQwBMXoc0Pcy4IIYQQQgg94NJMFu3ZmtO9AgHwGZOldPn7QgKVXlxTU+M1HTZksuffrhkQCim45QQ5YmPp/jO1p120mA8hIQAw2qVrKQ0ZNmt1raG4vLjUdba62i4A4CsLTpozt27yJeoFc55hAAAgAElEQVS9bLORwEU5oTq3UENxw92T6bq514mkWnWk08OqNEt7B4Wd9qaxNc46RMg0qfZOkVoKwN5dDdsTj8fDrzHanJJisRhGAW1Lfr+fz+enpKTc/DMYjU5MTMjl8vXaBH59EEJoOYHgNs9LLpdLIBAolcq7f6xZ7+v56h597lU8rOi2ig9k/sszxffhfmbt4vE4zrGIFuLxeARBbOgm7vP1OWFmZiYej+PxRQsRBLHGTJzD4di9e/fu3bs3qCXYzwWhTSrUU3ueOlG2tJ9trL/m9UBp1SF60VLWUVdzMSLOzCk1a8UPXqy4oLO90xkBAjhCnmvWiZxN7w2ClAIAgt6npT4a9HJc2BckGSlJpDxsypN6m7vBWJTqru8T6Sn3lQAXDfpYipGQRHpWYbbsljcjwcFmZ2qRUTrU3DRlLNGt+Wek0fZ6j+ZoomMxsI4mO1loVpMQ9Q129HojBECUS95XmK/aVDM1zO4ss1qZm/uyYDclzqb3BglGBMBFIUV7wKiWECuEpNGrLTHe1TB/UaetDQ7OzqAJEB3tbusNcARwXPI+c/49ddm+kx1MAYhFIV1/MFu2dJPcsjOEG25vjRiKNKsd4uHWxknDCqcVt+bzbeNDUZjc0+JWFubJCEAIocW8XVb70OyvUYLMAoshDWOCEEKYc0FosxIbysvWWjbmsPu0ZUsTMSsJddW2MuWlqu0Vq9G+QVJvKZhPDkQBpLrC4rlHclDIdRDsq++jiwsUAMCNtjspXYkIWDKFSlYYzYrZh+niPOY2W5LoiowAwN1pCylRimj+YZsUCgUECRB2tNiD+4qLFfc908I6WwdTCozMmnZ2VXP7snQ3pbrZlEjYaWvpEJbkr/kRfW1tWyjs7J1Um4vV5EaE6nY7GB5stHs0Ms1tjyGhyC/akMN0n0NBMNnK/jZHWKZ7EDuuI4RWJc+xlOVgGBBCaDHMuSC0cQ+2LtuZ1hE+H0Cst1iyWNvps740ORVjA2HKdMKiFbMu2xmbhy+IxRnzydJMKjbeddbaExEIgCn4SoGv+qywstIg8NprL7gA2AAYTlTkrJBWCbnsvd4Ae75OYLIY+d1nGhwgiLG0qdySJYZAT13DQBzYAKu1VBrC5+2Oa+I6VptTzD9/BiqeyaEAhqynevVVloz+muprSnHgGuw/Uq6P2xfWE++ptfbG+XzgZx4+YZJvttesKQkx4RllGdnakhc+d4DWMABAyXWa5U+nrMPWEU6FyQkq05TH+Ls7nCxMT8VS9IVGGdvX2JdacjO7ww512D+a4hEcpB8o0El97Ta3SBiZiKbr82lv2xU/jwdAqfPyFEqdcr5xBKPTEQBhtxO05kUJF84/2Hp5DAQQm07JOmiUkaPtjf0ETQM3GYgmy0XActGpSfLhg3kKapWPlrQKhpobXVRqMnDsZIQ5UKhmexzeMao9KtfkaUWjS3bQ1gfJ3MSUaF+hZqKpL7WkQMb5Ha2XvUBwseSHD+apOHdrp5vj8YCQZedrE/syS5TYzYUpKZEmK3XQMcrJFNElrZpLkI32tfVP8AhuOiXroFHiu9k2DeFcuF0Kws7WNmdMmCwgI2FOfTMXkCwMuz1BuUZCLgijd5ogeOn6Ip006G7tdMYEwBHq3AKNaEk0dFLiHnaQi7IgTCEBYMlWAKLevlY/x0WmpuW5hTopJPqqqL0222hyKgUcO8kpTAUaEbBD7W1XIoJkARmbhPSb5+HwfCiMwqW1LW0ztaZQUKufGGsMBaVUEjZPWIdJlwXS/+y/vmMceaPm73qi65vo+rP8vSLHh7/3Y4gRQgghzLkghJYIOBx8fUWFYfZlHzYS5mdWWHIoiDlqX2/1avXdDSPGpyuzKLa/5nX7+DdzPNauDEvVoURX3JBvthq5qbzCBBDrqX7dEcgxLd+OODNHL3dESstM4sDFU/3aimdyxDFX3avnXVllmbShrMIAEHPVvdo9csiSo2IE+jKLCtiu5RXFRwLi8spKMcCSejIzewNM8dOl8k06pp0026zv62ixXibV+txshQgA/INtNg8AT6g05GsWT53ITk6RksTjoki64qyK0QmWtpizSQAAhbFIAQD+7vpBH8gWP2Vyw939kFViZgjW0dTmVBengH+SKCkxiwD83Z08dWGRevZhmJIuWJWSSgEgGOaEykVZorCjc0xRaNZQwI22N/b4juYBsIL0YqOKiLpt9T7l8TwGWEeTfYxTqG/5kUywpFUamI4K1cY8hgB/d6PDr8vXpEoIdX6iV8+SHYyGA6A/apYSAMGJuVZ5FIXFGoobbW/sGZXJ3FMp+mKjdDYTIV3wdhAhkYpgaTcgSkRGItwKsQIAAH/PZX9msVlFRoeamxzBo9nzbQsPNi7criov2u0gD5QUMATn67D2LngsVeUfjPV0Ng5yqbpco0YadXR6FYXFs11Pou7LDkluSbYE/N31PUPqgmXRoO5mB4OOtuZhXmxyktAWGohbbCW/QEaAr6Pe4dPl3+yFxUkP5GVLgBtubXIHNdnRvn5uX4lZQUC4r75lQdwU86HghvqX1CZa3GZVvuz2oeCGW293YqwtFGRKMucMA2DO5abJsV+39IY80XWullL95VfzQv+OOReE0FaSlJSEQUAIcy4I3Rfy4hP61obq6jhjLC3OokEoFIspAAABkxHvCnzqGw8EQtbaAYA4K8yIQMgXobXL3n0OuS62DoSBD4FAPON2Y/b6RgLhSEOtCwAifCoeA3ak60KvD/gQGonfthMIn9mjEq9UD99wojRy4Ux1k1B7uNS0uQYdmXs+zS5SZLOjHbY2h6REveDdlpWtPnwcIVXMDtDBBd2DDl+UIKITUS51aTl2cpINONpbHQAcELIoAIhS0xNPolKDST3YbbNxKZlGg0q0wvZIERGJRAFutjLo51J0VKIFDNk/GYVkoEQiAgBIHo9KvNVCkATHcYlkxoofseyyVvEoCUUkSgBwADdbs2wHSZKmpYtaG/SH2Vh36ygAxAiSI9SmA9G+VlsvKc8yapnbv8USDkaFSnKFWAEAcJOT4Sm2o9UDwMVIafTW2+XYqQjFSInZzMeiJpJSTV6xhgs6Wlq6k48q/Rytmz9Jw/4gG+hrDQJAjCCkUeAtjcZd7aBEe7BIQwJEh5qbuumjmuVbEc02kqQWH3xCJBIltk5ClIPo1BQhTYx3I6KTicmVN7e0tqXBmT+mq4RihUOwLqFAALB7z18e0Y94em3+9O+/8gV1z9Wo9k9zU+BqZ/O33pg48vcVz8cufuFHH47A7uf+4Utfnfyt5f9ek3/+89//gnKPgLvW3/H9Nz78cLfp19/Z4/j9J9pc5R749Hdn//vvWoiv/u+izwl2wHPf+OLHvU/9n9YPpeoXnir44p6d5OTH79f99p+7Ptld+MS7nx/755Zdf/0F8YWGCcsTezpf++ULXVFR/hc+eCr13E/e/OePODw4CKH7n3OZvVFBCGHOBaENJkjLMpdnwbjtVINDW8FEIoHxAGhpYL0eoDN30mk0oz1RPj9KbsgnDHgDkLno9SHXeavP8I2yTEGoy+sK3W6LuzJoWmwpN8w9ZXkbrA7l1yuyBLH+Gsc1AODzIZYY1Z0viIciABSwgUD4dvUAqEwWlYntr6m276kyb9ZB8Sgpk8yFb/dnnkoWRr1B0KxhmAzWaXeShcXZFOfr8AwuryklRZSqy5/vBgCjCx+tJarsAhUE+xq7hxVFKgIAgAv7w6R09r0PiVIdbevxKfPmn2UlUvKjyShISeD8vmjyXY7KsaxVXHCFlFPibmjFHVySHxJJRSIqr2BBaxhtHqONDjXbHOkl2YmeQmzQz4mky1NLXNDRH0jX5wEFK8aKSE4RpcjzCxTza/rn2rZ0uxwnZCeCoJYChIMst7yHEiFJTSFGoyCSEB8F2MQYygCURCKiDAXzL8JwQ0vXu6cdJAgiGo2uYSu3QiYLudEwByICwpMRbsXDtNzyNt8+FGs4MdYUCohOTRES7OSyyp2V3iD+8b9b38r9/E+KTF9t+dVb7WPPlz98UPrhr3f+qVkW73r/WmhP/r+Up7vfeu+FP6Z++68P/8sXvJZ2AAFt/pNr3/p5f+7J0qdP5B78fbOtxfv0V+UfvmX9qSPkBurYU49/Ld37+i/tHz9i+vZTj7v/WPs+wA6Z/u8/P/z+73t/2x5KLn34c4/IyS7vQYN8R/Dq+5hwQQh9JhdBPp/H401PT+PkzQhhzgWhDTbeVfu+I86HeFxuzBEAKxTGPbba2kgowKY9Vi4HMV3qOltdbRcA8JUFJ82ZekvO2brT1QIA5tDJgrlHHqXv/Ns1tFDMF4hvmyVIM1m0Z2tO9woEwGdMltI92kz2/Ns1A0IhlXgRgNmv8llP1+rNlhyTvMZa+wkjBjYmEqxez2F+65nWAJ8fj8P+YnrTBTo61G67MkWQBHC89AP5EoAJ8A+2NLkBgKD3HTQqFj+ZytQp/R4/MLefModMVRKdbc0+IUkBtbxvDKEwZnntNhsQAAK5vkC74LOgs/XyMMeD6Wk6UzO7ZtTTaQ8fODo31oZEV5jV0dnUyJEkAMj1Zp32gLy9rXmIB9PTIr1JtjiJs1bLWrU8OyFRpk52NrWqs4zpq+5gorA2V97e0uQmCOClPJyXTQy2XQnzeNPToNTPPXj7B9v6UouLbqYkZt/t4jigHy7MYwiAW8SKMRwYa7fZPiIAeKn7CrJl823LW7xdo0Jl0Ho6m5qFQoKIEcTNvfIP2jo9HEESwAl1uQpCIjuQ3t7W5CEA0vVmneaApt3eZCMI4AnVhnzl+u5glBMaTAqg4HZbuSXGkOVss9kcQgHBAcmseJiSb9Nm4+ywQLcJxe1PjDWEAqJed1R5AHMuq7jh6D/z0XgUvBNFe1MpGPnDld4TBUeyxB/u3rPnU89/9ETlhely2Lm7/HgNAAgAZHTiovBhe+/vr7EffxR6OnOnWBB1j964ATDx8bhjDICvPriHP9F5+WddXvij+M9z8w9qqfcBACbP/PtvXvkjABDQ8+kXDXtyKPiclu/tvNKFRwIh9BnZuXPnp59+OtuvE6EHXlIsFsMooG3J7/fz+fyUlJSbj+bR6MTEhFwuX69N3NnXZ9x2qlVVVZaJh+azF3Y2d0NekeY+vyU12tE8qSvSbr87ENbR3JNSkL99pw/e9ju4dpyvu8UtP5gnW7UXlkBwm7GfXC6XQCBQKpV33ZB1v56v7tHnXl3t4z8x/fol/chrp/+2K/37rxz/XM97h9/wwsNFjd/a2/Xvr/5dD3Xsfz/59zBwjtIfGat//D/d8pLyd8vg9R82nAkCAETZTz/enTtXA6cu+cq7ZZ/+w7d+c+5PPtf4rT1tPzv9/QEAvvJffmLJ6Xyv5A0vpB/49ffzP37rv/4Bjv73V+HHL737VmLAl4eLGr+1p61p+HPF6b/54a9euYbn6/1WfCDzX54pvg/3M2sXj8c34eAa09PTsVhsx44d63UzlpSUxOfzOY6bnp6+7fXn5vXsDstvGwRB3IdDPD4+LpPJ7ttOzczMxOPx+7GlcdupC6qq8kX386Ge2vPUiTLtzXMpcPHU+bSqci1eF++Gr6PerT6axwT7rPVeraUkcevs725yKgvlnrYrAS4a9LEUIyGJ9KzC7FvenhEEscbOVg6HY/fu3bt3796gPcJ+LgjdR+v2t8DbZbUPzSZ8BJkFFkMaBvdOiDRFRZ/BZmV5RbJtGU9KW5S/rU+Ybb+Dd3CrzhjNDIbhDrG/a/b+/VN7jwg+/d1ZTxTA/ZHXC/ojn1d2/vYTSE9PHes9t2ICPx6Nwo69hj81CyY/7Jn4Xf+NI4bc53IGPn5k/x6YOOdgYcnd/EdX3v8464v/SyX++GojJlzQgqffTdgqgUCwXg1LZBCmp6eTkpIIglh7tXdafnu4P+/78Hi81NTUkZGRtLS0+5Di2QChrtpWprxUtbbSYkN5GV5rNuKmg5KCo20wvUQ31zeXVBjNCoDR9nqPpjhvy9yQYM4FofslzVxVvl51yXMsZTkYUoQQ2grCA1fbYqrPfXrlnIMDALjW/q23yL//QsEvcvk3gmNv/Ufvyqt5rrzV/6fPFX3uH/f0fr3H3ljzwd6/KDj51OPkp2O/+eVv3xqD3Ut/QR0/1xn42hHa+/uPPsSgI4Q+24dMPj81NXVsbEwoFFIUxePxNrTL1RpySa666h5aFPZE9hRXGALWs/YAXxCDPaUnD8mhv+bVbrGKhlhoPKws/YohfN7uuCauY7U5FhN9rcHaFYJ4gGUeqyhdsb96yH76rLCy0gDei29bHXxazIdABPAH0XvGEXRWLlxuG5Qf1Um29NcBjyVCCCGE0N37o/3Pv2EHAADv91/4t+8nFn7UXPKN5tkC7P+88ML/LLyNdLT87i9bfrdgyXwN4G5829iY+OfHb/38l2/NF5n0/Oznb/9swTojLe8aWxY1xO355AYQv2sfx2OCEPrMCQQCuVweCoWmpqamp6c39N2f5OTknTt33qaQ18evqqqkIeaoPQuHv16pEoTsp2u7Dc8YIR4R6Y9YVALwNpyyjxwqy1ExAn2ZRQUAoC2t0AKAt+FfWz2QuevW9Yd6Gwb2lFcdoiHmqPlJD54B947jCJkxl65v60svkW/h/cCcC0IIIYTQFsfflZMlP2lRgqf913/EcCCENguxWCwWizd6K2saz4VWJSYHDY/7Ql772Vo7QBwEmSwA8EWMWAAAwBcCxBc+I8fGe1oveSJ8PjsUia8+ClnIF6G1NACAYFcGjYd+nZAyY26Kta2HSt/Cf6LxMCKEEEIIbW0pyuf+Kl8++j///J8DbowGQgjdmiiNocMFJ0rlc2PexnzLnpH5EIsDAIS6z3ZRFc+YxbEh60Dr6vWKaWHAF4BMGmKf+MIgx0ivE1KRl+t8r81NadRbdA8w54IQQgghtMX5P/zL53EUF4QQuj2BttTsOFtdDQIAoba43LR8KFZmv8pnPV2rN5dm7hdYa2uGxEIxiPirT3IlNpbuP1N72kWL+RASYpzXEanKy3NZu7ds+3GuaLR97z8321zRCCH0gNzOPmhzRSMEAJt1ruiZmRk8NGgej8fbmhMJ3cb9mysabR04VzRC2+TvFgYBIYQQQltTzFF3JvRYRY54MzRmqKFmyFhx6OZkL0PWU736Kotqs0XN1/Fu45jWYsmenUgl2Ge1OtJLnshjgn3WJjcloQCAkOvNOuh4ry0gkZDAcZxArs/XMSSAr6PerT6ax/g66p3Ko/kyAAAIOxo7yWKzOtxntTpSi4/nyxJ5EdbZ9G6HwPyVIsVQc/2k4Wi2xNfxrm3KaDGrKQCA4damSYOJ6ut0TnGs38dJGBEpUOqLtFI8uzdSyGE73x+Y/Q9jKD2USWFQ0K1hzgWhuzc9PY1BQAihJbblj6gIbUcCbVnF+tQUc9RaY+VlWfdQhaq0QrVF4iZhSK/Tn22UAgD4nWMkI5q7/KXqi4vmd8MHpPyAOY8BgKivo6nFUVisFd3m+kkxoknnKCdTEAAQdnuAkSy5oook0T67O3026wIAInW+WQ0w1Fw/ZSzWifC83nhirblMi2FAa4U5F4QQQgghhB5Asf6a1wOlVYdittNnfWlyCtjAON9Y/ljkbG3c8oyJBghcPGUVV1ZqR2xnbB6+IBZnzCdLM0OLy5dlBlptDge/ri5gKDWJBs5aeyKUIBanTRZLFj1uq74AdNwToPUab++O8socMYDX+q+t2q+Xaxe8iOiqO+UwVZXSroaa816KFvPjgbhYvzkDl6qhJxyjXL6M4Eadk+nqFG/wNmuQjEELTZ6wVrd6OQ5S1PIp53BUoSIh6B5LVqdGR5dUJdfv89vbnKnFGsyvILQVYM4FIYQQQuiWZmZmnjnyCMYB3VbG7nV+RWd6evrGjRs3btyIx+N39zqzULjGgTwjYb6q3GISA9tTXTMAFUaqun/cdChtvGeANj1Ned9vGDE+XZlFsf01r9vHv7l/cflQlsmwnxmhy8qyINR1uiujrOoQDTBuO9XQr61gIoERKP5GpVwAbM9ATU8g55DIZfeqTJaVRn4atzf4DJXP5Igh1HX61ZFNeqxJWiN3Do5yMtmoe0qerfR7ZnMu3ES/zeYC4CVn5uUt7rZDCoWcn11D5SlqpafTG1Wpg86JFI2etC/JuXBAqfIMrka7M92MA7UitAVgzgUhhBBC6JZmZmb+CnMuaA3Wd5S3iYmJTz/9lCRJjuNmZmZu3LhxF5Xs2LFjbQWFQjEtBgCg+Px4LE5pTczr3V6TvtfB5BQIYgPjgUDIWjsAEGeFGZFl5RfUFPJFGC0NAABpjDjkCwAjFGbIE7PyUvtN9Ot2b05ml097eOUXiT7xAaMVAwCImTTRZs25ACFVKyPdw2HOE1UaReCfX56aZb75blF44SrsVIQUUQBzaZfFb2FyC/4tUquhxR0W+ifTdVLCs9L2KbUp21nf5shOxi8eQpse5lwQQgghhBDaLGZmZrxe765du1JTU+H+zVu06KFAkJkjt3Xb2XGVqVQAQKfRjPbEzTeBxl0rPUTEYwACOkPs8wYgkwYY94XEjHhR5YLMAq3tQkMgYihNW7kZuxjw+ViQU8AGApFNfJhEamXM1nYleZ+ZuplyuTV2uMcJGrPoZs5FJCUnJ4IgkwAAOzEGqQfmczCkMlPQ1NZLqQslEPWsXCGlMWU767u9EoMBvzMIbW6Yc0EIIYQQQmiz8Hq9DMOQJPmZtkL1aKb13wb035ADAKiKS11nq6vtAgC+suCkefkwIrR2P3umumbEZCm1mOqs1TV8fjwuLLCYKRhfVDAtJyvwU4eplL7FdtNMpcyZmuoBsZAfZ4XiTXycKKWa7BvWKBYdJ26it6npI5ibtwii3ss2GwlclBOqcws1Cye3IdW5+zrsjU0ESXCcQJmbL1nwmUKT3HlFoaQAordsgEhrynbWu/EbMyspKQmDgDbpyRmLxTAKaFta/rtQNBqdmJiQy+XrtQn8+iCE0HICgWD1Ai6XSyAQKJXKu97Eul/PVzE9Pc1xHB5WdFs8Hu/eJ+0KBoNJSUkL717uVz+X+yTmbXjdnvl0mVaAZ8yWPUs3oZmZmXg8jscXLUQQxBpf+XQ4HLt37969e/cGtQT7uSC0cWZH4L8PzwSBi6fOp1WV46x1CG0XvkFbr5fjwr4gyUhJIuVhk3rM5lYfzWOCfVarI7X4eL4scdfMOpve7RCYv1KkiDqb3hsEKQUABL3voJHxd7f1BjgCOC5530HlROeVABcN+liKkZBEelZhtowA1tloHd73RJGKAAAYan67JWJ8okSb+C2W87W/1xjQHT+qE/k63msLSCQkF+WStaZ8NU6WgdDGYFlWIpFs050b77E2dY0LCxIvKQV6GmyuuRdt5DkWkwrTMAih7QhzLgh91oastb7D5Tkb0X021FXbypSXqjDICG01jM5crINgX30fXVygAADwjc1+RFCMaNI5yskUBACE3R5gJHM/Wkp1hcWa2Y7u4cHeSbW5WD3X711lVgCMttd7NMV5zOyysNtNphNuT1SVKEZIGfC4w1qdCAC4UeeUhJmrmpQfMOcxwI2213cPKWeTNAihdTYzM7PmgW+3nDSDpeLm4CO0obQMhyJBCG1/mHNBaOOFHA3WrhDEAyzzWEWpMmA/0+QAPh+E2mJLxrUL/S6WrfPtN5dmLXi5me06XQMVz+RQAEPWU736Kku87pQN5GmCWGg8nPHYSbOKinkvvm118GkxHwIRSAOAQE9dw0Ac2ACrtVQawuftjmviOlabYzExHtsZm4cviMUZ88nSTAqPCkJbFQcpavmUcziqUJEQdI8lq1OjoyuUI5OFYbcnKNdIbjkqhN/hET58UPGR3c2qE31bCKVG6HEHddkSiA67o0ql0L34rRpCylCRSBQAryIIrbt4PM5x3PrOf4QQQuizhTkX9AD5x3NOXyhakg0nc+X3dcNibWmFFgC8Df/a6gE60M9qyypNdKILrVgv74+Xlq2ln0uY0h6xZAmA7amu6Qo8Y3A1DOwprzpEQ8xR85MeAADaUFZhAIi56l7tHjlkyVExAn2ZRQXgtTaMGJ+uzKLY/prX7ePfNKfh+YDQ1pWiVno6vVGVOuicSNHoSftczsU/2GbzAPCESkO+RpV/MNbT2TjIpepyjRrp8syLzzmWojGIpDGBzRnUZksAAIh0TUqb059tFHndnCpPOOScWnwd8ni4VP29JFxqfj/8u6shAPirQrFJs2uLXc8R2kjRaHT7dnJBCKEHFOZcENpwsfGe1kueCJ/PDkXiSqBNZeaLtjPVEfH+w0dy7uRpQUQn8jQUTUdcAQj5IrSWBgAQ7MqgAQDYoa4LvT7gQ2gkvuiRKOYbDwRC1toBgDgrzIjgQUFoaxOp1dDiDgv9k+k6KXFzJlGp7qBZM59cIaWavGINF3S0tHQnH50bAGYON+zwsJOTtiYANsw6/dlGKQAAwWjoXsdoWOomNIUkNzT/MOjtbW4WACHNPGiQ4hFY5NKL+463PGtr//beTdWs0erjB74jOXXtjWPCuUXNVRmlvS9c3mwtRXM++eSTxPzQCCGEtg3MuSC00ULdZ7uoimfM4tiQdaAVAIDOPFSWeSjUdbq2W/uMEWDFcdb5gngoAkABGwiEE4vCPh8LcgpCI14+UwBiWhjwBSCThtgnvjDIwXvB6lB+vSJLEOuvcVwDAD4fYnEAAAGdRjPaE+U4SwBC2wSpzBQ0tfVS6kIJRD2rFiUkqSnE6LLpRqPDzilt8dFsCQBwo+2NjlEuP1Ge0cov29umUvRmghi+uUW5vmh+HBi0iP6Fd955Mn390hiRxird97QN95oZkR374Tt7hY8Kt0IIh5t/9dvr0ylZXzhulAJAsM/6m8sBnrLwK2b1aPOvfnt9GgAAeA8d/lqRpM/6m8sBAOAJkqVyrT4vW0FBsM/6m56Uw18rUo22vv3BhDZRD+uoPzUBguUAACAASURBVNNB3azklvVPGr5oyaacTe+0eXnppuMlWhHAcOvbtlj+VzKH3r4wu3kAgPkqNsD4+LhEIvmsp4hGCCG0zvB9UYQ2mlC5X9BTW1Nbax1gRXwBhPqt1dU1NTVnB8QGrRgEKr24q6amrmd80VqU1iR3WGutDQ1NrtjsDCFC1tFQW1tzusahLTXRIDaW7nfVnq6prT3bExICAKPNZFvfrqmttV4DEQAAs1/lazhde9HFqopLma7q6urq6uoamwunuEZo6yddFJrkMKFULn7Lxz/Y0tTU1NRk6x6O+gdtjY1NTTZb0+WozqBYMuYt63HF1JrZ2VEImTY94BydG7lFolZybIpGhsPkrtGlH5wofeoXVwGan9uTkf+lLz2SQe/M2Pel167CpRf37dzzXHMEINJYlbHzke9ehdHGF4/sy6DpjH1Hvtv8CcC5L9F7jnzpyL6MnXRGftW5Uej5+ZGn3hzr/d6BnRl/0Qhz5XfS+w4/V3sdAK7++BH6yIs//tIjGY88/3eHafrIa6MAkebn9sxuad7omedLj7z4QQTgem1VfgZN7zn8g95NfEsqFLIepx8AwO90hoXCBfeoKfseP3ny5Mkn8hWzZZUHy04eLzamBHpsjd3+e65/voxASPo62hzhm4sU+U+cLCvNogHkprKykyXZqyRcZmZmoncoFouxLBsIBIaHhymKSk5Oxu8TQghtM9jPBaGNk1lWlQkAcKiy6tDC5ZbKrAX/ow0V31xh3H5Ka3lm0dzPLuCrCsoWzjwtkB+qWFxz6TNViypRlVZ9c64x5opMPCQIbS2S7KMFc/9m8o4yiWXF+QAAhKLoCcWiUqSmuFyzYG2FuUS3tEZZ/lFZ4hKjMRcvWC41Hi0AAEVimUh39PjsRaTo6KKto9sJXh0rar92ylGl+/KPX7t05dln9b/4xZuXfvRo8M1zkbyXnn2o8TvmX4w9+/uRl+AHZnPVD05eKQIY64V/ar926oPjjzz/4zMvXXj25WOvlF568vd/eNkAkca/eOoX14+90/6S5M0vH6+qerTw/UcBbrSc+eCFH/7y248aro/+V1W19fqT2jetY9onny1asVNL84+/8+ZY4X+0/2jvub840nJjk0aOYOQyn8fpy5OC080plYzbOf/Z5JUPzlwBXmru8aO62eSIiBKJ1HkGp7vF4w0alfdW/zxSadQG2rvbHPLi2eQHQVIUyVEE8AihSLT6SEbT09MTExN3tNdJSUkEQZAkmZ6ezudvyG35JhyRd3p6Oh6Pr1ePnng8nggjx3HT09MCwVq79N5p+e0hKSkJr9PolqLOpvcGCUYEwEUhRXvAqJYQiYUgpQCAoPcdNCpIiPoGO3q9EQIgyiXvK8yn+urd6qN5EmdTbYeg8IkiVeLbHR1qfrclllc+O6Mi62y0Du97Ynbmw6Hm+klDordt4s/noG0w+WC+KthubZukRAQQyZrcfPXsL89R32BHv4/jTcemU7IOGmVRZ3M3GIs0Isy5IITWzttltQ/NdkARZBZYDDjKLUIIbT0PFRXuFe6KPJQOLZEI7H3y2cIf/ODNc7WffBAp+uHJh8bOXA/C9ddO6N4EiAhBn5gBXFtS9JDwIa12F3REIiCEHQBCiRAAYMxxPbhDf+zxvQ8JjxWmv3Lm0hA8CgCSx196ubwIAPR/e3LX8erXXnvo3Cd5Lz278ry7n1wfGgPtsWN7H9oVeTT9By2bNHAcKDLl3k7nsJxzE2qzbHJBTiRl3+fNWhFBUiKA4LJkyirP1Gusf0GhFN1Bg8fa3eYw3nmPE4Ig5PJNN6jz9PT0ZnwC4fPXq2GJpNL09HQi87L2au+0/PaAs2JtlJij1horL8va8jsyPzBc2Glr6RCW5MsAQKorLL45WlzY0WIP7isuVsynoX3zl0FGGnN5oyo1CQBRrzvG3PzBJux2k+mE2zP76ZJsj7vHm24sJgGinCjbvGBsugRSos4z60iAqNtmc4ZlOo2OauwbVucrtkKfXMy5ILRJyHMsZTmrFZjrNYMQQmgzW9TXRHby2ce/+53v/iACx06VywC0D0kg+OQvG14u2vXJ1euwFzpeg0SWZUmixHH9+nWJJF27N/1G87kPrurTz7WM7dAaVIlNzJUXFv3t3+zNf+UVBxT99MmHVm7ProdU6WA9d+5qkf6DS2M3Nm3ceDyZRsm12O0cpT0q5V1ems4gCIC5JEosFg4Hw96enlGgDUoJwPygRpRUBG6vY0itE7FOtx8obTKxhvoXbEmSfdDgtnZ3+wFkeDYjtH147bUXXABsAAwnKnLo/pp/6xZn0sCOe0GupeJhYMcD4se+UqoSxLwXzzRcAwrYOGM+WZpJ9df8q6/4m+Y0gMDFUw10VQVjO33WlyangA2M843lZZmBVpvDwa+rCxhKD2VS2yJeIk1W6qBjlJMt7eYadjtBa1asuJecUK2cdrtZtZYC1j1EKOXz4/z7HR7hwwcVH9kTny5JuXjdkfQDIgCIRmI8wQp5FJJKZGE4jiMIAgAYNd3p8IFiK1yoMdOJEEIIIbRRdh179hgMDQlPPvu4EEBY8sNfvvDQB1/WSXdmHHjqNceK08g9Wv6kPlh74hHz9y5ByT/98oW9zVX5uiNv7ij/6U+fXHZzuffJv3k0MgaP/82xW867XfTtH56UtPx1vvk7jvS9m3kiYoJRK2FqSqJRSxZ/MHnlg7q6ujPvts8O6jztbaurs9oGp2hjcXH2osISbeFBNeFt++/f1Le4QWkyG5nb17+EJPugQcLFpvHsRWg7kZvKKyrKKypN8S5HAADirGi/xWIpL9vvc8GjFoul3KIc6vIABOzWa9ryyoqKysoCtqFpaKXKImG+6rDFYik/mRO2D4QolWE/ozKVlW2XhAsAAFAiMhLhAAD8g202m83W3O4MArBhTph8y90UKjN5HncYIOz2khr5fPbE5xxL0chEcrXA7VzWXxHYMCtMEQEAcARvytXe2mxrbnf4lo3/zw51O5Oz1BQAgERKTk2yWyKS2M8FIYQQQugeFP3s2qeJ/MfcP8Dw8h8+fXn2/rPk1LVPT80XlpW8/F7JywvW/n+BT5dUA0Uvt4/MFyl6+b0rC8vv/fYfPv323F3/J6PXWz64fkP15N+WLBvKRfbs+58+CwAAD5W/8YfyNxJLT23KECqKvvY1AADIL69MzJ8lMs8uURR9rXJR2WxLZfbyLMn8QkKiKTiquZv6NcVfm1tPmm352oKNiHRHK3V4oiO0pYVcF1sHwsCHQCCeEQMAPs3QAAB8SijmiwEABHyIxwF8I3GmILEgQyW0+VhYPlSWUCimxQAAFJ8fj8W3Z8jCwahQSQIseOEIACAoIiKRKMAtRmQiFRphk9ufDmPJGi0RSCzkhh0ednLS1gTAhlmnP3uFCeAS6RlKXXRUDQAQHW5t6k45mn/zp4boaEebizEVyrbc7G5bJufyxD++88eJSbxaPOAu/ezrGASEEEIIAAAiHzx/4C8+SC/64RsvPQoAMHruu987lxgiBrQnf/jtkl0YI4QQAgBwnbf6DN8oyxSEuryu0KpFmQyh3ceCnILYyFCENlAQ50MkDgAQC/jCQN/qOToeA9g2YzJzQUd/IF2fd/OlzjkSpTra1uNT5jEr5z4ImSalt7OTlOdmE5DIuUSHnVPa4sSAudxoe6NjlMtftA4loiKTLCgWDIlLzA6zHQ36o5RUBL7uFockt1Armes6Ew5Gk9PXLf2yocNLYz8XhBBCCKGtSHjsjZHAgv/Ljr186hiGBSGElmG0St/5t2tooZgvEK8+ER9tKtWePVMzwId4nH7sRCZAzLTf3lBrlYshHrjF4zOt3c+eqa4ZMVlKs8RbOVD+wTabB4DjgH64MI9JDKTlH2xpcsPcvEUSXWFWR2dTI0eSACDXm5f0AyRkmlR7p0gtBUi8+sN6XDG1STL3qTb98uAop4Sw0940RgAQyZpco5ps8YR1OpHf0drr5Xi86dh0it4kg/Cg/TJRaE7uaHKEpUynzQMAKQ8fzFOx7okUtWHdRtCdmZnZuKAmxWKxLXH0sZ8Lgjvs5+L3+/l8fkpKyvySl3496AtFS7KZk7nrM63AVvn6IITQ/bT63Ks1vx/+3dUJAPirwodMmrvsiLHu1/NVTE9PcxyHhxXdFo/HSwztuM5PQMvuZ9YuHo9v6IMEwrN0k5iZmYnH43h8tzDO39fioA/mKxb3XOGGWtshr0C1tD8L62zu4IxF2tXmiiYIYo0TdTkcjt27d+/evXuDdg77uSB09za0ExpCCOGFESGEEELbHyHNNuevsFhVULBScUpTVLR1dg5zLgjdw/eHj98ghBBCCKF7N9RQM2SsOJR2c4mj9tT4Y1WH6C20E5x/sLXTEyMI4ITqgwUars9qdaQWH8+XJfqWsP8/e/ce0MSZLgz8gZlcBhJCIiEQTAikDnKRyM2gCKaNIraxSoXdYmttbUsv23a/03Y9366nu9vtuntOb9/Z2u2xdtva0hZ7QkVrWimKRhA0yqWggMQGAtFACBAgwYRc8PuDi6CiYNUKvr+/ksnMO8MzbyYzD+9FV7L7JEX2cFrI8Lti1fn5D6UJMQAAp66kDFLloyOVtpXu75esGpuXa/St+eRu9UC8QjY8c8v58pJ+iZQ4Xakb8Nh7zB4Wl0GlCGLTSA6qUAhy5zwzohAgCIIgCIIgCHJtnUeVDWS2LPAWFS/MyBHO9BA59XUG7pL0yLH+Dn0YwWX06zo8QSEYANj0BuBeGgJUr6fyML3BKRRNZyBQBst5WqPnjWRdAIAhSpaJANpK9w/EyyMZqKYiyB0G5VwQBEEQBEEmdRFgCEUBmQKvyQdOGRoauuHBJoY3dDqdN7DtdccycBmPFhRp3RQKHibPEVZ/UBf7vEIIYK/Ky4esTbEWTUGJFnAc6KRchpec0FoMhbaoFIWEqFft0VhwAux4lGJtQqBDk5fXzBUy3dbOTjqfT3G7XdZOR3hGjpQP9mZ1gdqAU1xuriwrI9yqzjsCbLfBwk55OCN83OBPzYU7tNLcDL61vlBZbiPYdLrDDGEzqw5gvnSn3mAWR45N6OIBPxF/QHfeGSKkQp/e5CsKcHYMf9SjNdDnLQk5q9HbRSQx9Z1Q+bHzezQVugC5GOVXEGQmQDkXBEEQBEGQSV1wXex1oDF0kevzocAc/PLRSe12u9VqHRoa8vLyurHBmJ1Op5eXl8PhuIFtudxrz89i0ai0ZM6mhOFpVtqqL/vYZqi3k5kbpOzhzEiCQGNclikLBJdWeQSWPb1BSAGr5hNlHbmJBLs7OF4hCwSj6t0i7tObEpjQXLijzijlQ0lRe/wTG6IJe33+p5rO56MclnaQP7eBP8lY221HjriXPr2BpIBF/UH+DKsDWFBSqrO2pkTl9BPHJY1kXvxEAkOl0SkU9em6/MSxVM1wzsWsM/mJJQyOi6LW9ZFjfYiuzwOEMEnSXKzR8WR09L1DkDvfLMq5EPwXn703K8xn0FC5rVbwTKLp929quhY/9N16eHvL7q96bvLe5syLkkHLN2ftqA4hCIIgCIIgV+rv73c6nSwWi0aj3XAht3LeInO7m59y1XltXQAAbGmm7Ki6IM/BjFq2MuHSHGG2TgtTEEwBAGAGB7rrLEACzmazAQBwBoPJZAIA4AS43eCydFosVpWyAcBtpwc7AOj0YD5/0snN7BYLHsylAACw+Wy8c6adc4wljJcJJba2cnUFkS5jAwAwRCIo09voPf28SA5mAAAAz3mtwd7fry4BsNvsup6Y+GmNwEKIpDG6/RXaGF/0NUOQO97sybkwJHHrSbxCeWBfS/cp3E36WLtu4XxhzJVrU9adNaGcC4IgCIIgCHIlq9XqcrkCAgLu4GP05+Lmdivwh9MuOA6u4btni9kGXAAAdvjSzPCl1qpPlNXkJja4HW4AAEYg295sBgkfwNreiXPZAO2T7YLCDmRzybXZ5GiWpbP5mg8gBJvhbra4gE0BS6d1pk7+izG4QdSzztF2TVRBOKWkoo4QpbLAaQAAcJ7XDZDy4RFyPR3Hi7UdnuTpDXtLiKUxuv3VRpZEgr5sCHJnmy05Fz/+E4sDaICJJPMTOo7o/QL4czxMAOvYCnOl32wWnjpkWZAaxofeH/bUdScmrg/zsbbU/X67puqyzAlH9MrGlAfD/KgXuvZ9vvdv53ivPJn2YJgf1dV/qqz093tMopwHXgzHaeG/ql5penvL7q9A9IeNKStJP2q3aV/hgb9VWalzF/z9yaQlQSP/1GgqzM+p9H9lY8qDYT7U/u4fCg/9rarXOVf6zeaQfZ+dX5IdSz1ywrlqiahyr+Jzo5OzIH/rUuoP+ev29KIKiiAIgiAIMuPY7XaHw3G9rj2/uEBpRtge5ScNFICw5RuWxic4VPmFDWwKWHAKF8Bar9pTbcVxt5spUTCBLglWq/KUEnm2NEPWrMrLB9ztxiWKtUy4RscnoTyjeU9enoYCgAtSsmTXG4JEuHxZlTIvT8Ok426gC2bWebfpyit0DoyKgYciiksmwDaSdAkR+1aeCREQAE4AALuh2SWSjnQnwoJIXk1jh4cD0NNYVqIHAIw9f0kA2HSaEhMGgPmKE5OvHJmHQUpjdPv16NuGICjncpv+Dmw4Md9uMGn7PXMkwnslWAE0WMevQwlYOa/t5e2HV25c8eD65MNfHXihNvHd7NgnomqqqsYPS0as3rjikbmmL7/SnPKhWs85ob9LXVqu3nOBKln67sqU1cd2FZQ1nUpL5lceePmHLmMPsfrfVqwmGl7eegaS73t3Y1plwwHa2uR7XZUPvXgm4cVHt+DHXy4eXP1vKx7hGT/9TNO9UPrqxhX6c8qdAEDhvbSeWlFZt++UFsSLXifviQCjMXpeBHS9dwwlXBAEQRAEQWYkq9XKYrHu/OMkhEtzNi0deyvN2SQd/3G0YkP0uLdkZi45+jIjhxx/ly3dtGH4VaAsN3skeZKRKwQAIMJlOeHj1h1b4TLhmbnhAADM6MxN0TP0vDPEKeni8QtYMfJkAAAsJO2hkJElq1IAIEQ+bi1O/KoUAAB59viNQ7InzOOUtgoAALhJ8rFMHity1cORYysIR9ZAEOROy1XMkr+jx1BQa38iGioO1ezrgYRJ1jp1vO7YWSfN4H6QaCsoM1ZxWlqyQxg+E0c7w3lLwnBrZeU7x43DC6hzw7Lui0sIotEAo4GT7we2FqvVBdBt0Z7rBVy0JAynUaLe3RwFgNMolog50AQAQKWOhRfnLQnDuyprtlUZ4RxzXWLyEpLY2QIAUPfddy8csgIA45jhD08J0sMIbeIcMFSqTahyIgiCIMjVsXwoZquz74ILhQK5Aw0NDQ0NDf2cMVzuDsYqlaZt5EtMCU9RSAJRTBAEmYXuqnmL3M4LTgAPuAFcHtvkQaBOeEeszE5ZOafl5dcPqucuP/JiyFWLtlYefrjQBADgdlv7nc49dU2b43dti+3qMLz9eVM78CY7JFvfheFXtoYz6gurliTHh4XhTaoWPaqbCIIgCDIJAYf4yTRg6HGgUCB3II/H4+XlheJwPfwERWYCCgOCILMdmiv6Cu7uKoP7XknyK8l1p3x4zJbq4SgxeYL194WMjOzuHnS6gBl2j0ziY9SaKrTulVFRWZUX1BeopAAqDulpUUJR/9mtyiajy9Pd7QF31+H6wZWSxBcTGroXRoVB1z6tHS4bsN1u+LZh8J+JEQGUrg8rUcciBEEQBJmUkEMAgLHXoTUNkLxffuIOd6/2VFULhMaTQQxfBoFO0F3u4sWLNzYtNIIgCDL7eKMQXMFa8HnpD93MrI0rXk/nMcGu/qG+iRL2h2dTEhrOVIy0SjEWlJkGw+L/nhO3gLDv+7zo0xafrCfXfPbifevDcAAY7LZa58zb8qziny+u2fXXhx7n2YvzD3za4pO1ccWL8+zffnbgq6t0HfJUlbZ0+dCYzWcO96CzgCAIgiCTigtl+RE4AOwsa7W7fvGHW8upb49h0YvIIFtDyakegIGqz/bVT73fk6H8m4qJv/za4s8r+tFpvvxGydKqOVh59HD10YOn9TaAvpaDu8qqTWOnf1B/uOTbo10j7+zGI7vrjKMfOpurjzZfOiWXvTUePdHUBwC9tXuPVLQOji49ffSMfaC1seJw9dHvj3yrqjx6+EfNWSs6EQiCIMh0zJ52Lu1lu+PLRl5X5X8Wnw8AAGMLezTrntMMf6r++KP44Vc9px5/7tSVRTlNTb//W9O4BaU5r5SOvDw0XIinas/u9D2X7pa2vb9r29g7v6gdG3lV/9r5+yo7lRP17p+XLSGJnWUT1wGAc5cOaXS/JiPMN1bp21HFRBAEQZDJ+VCxx1IE7x9s6bK5/rK36bn7woZbvvwy3O0dbv9IOo4z5sbKg2gAA9PbXpCyToDO6XW5DKfMnOTEeWPT3vR50wMIa7PFwwvAAMDWYQQWc3SQvoHWDkqgt+Gcix9KmcZOfH1d9Y2GwIWC0erkGxq5JBTAUHd4YN7S+agJE4IgCDJdqG8RAFBlWSvWC0Z+pLuPlf7++M/r2kPQmBSwUmgMAvhhfBGl//A5+3WPQRQllKXGxbra/lSJ/oOCIAiCINcRO9dvZQz3h9Pmbpvrr99q/Qh8ji+Vgt38QTRWLAjkMKmTf25vr2/ssfW2NrXQopmNu7ULHlvpM/xJV+me783sELqnt2uAEcQBt9vda3EvuG9NrN+EEloOfa5d8NhKrq3h0LfHBmj+NLrDAmHoFF/G25fuajrXGzrff/RsDIEfL2jAaHIG8KlgbbX4hrJcIw2Jrc3nqOHJAc0nOxyhAvo07gnnREVYq48bOffyfVHIEQRBkJsA5VwAwKku+E59E8sz1b/9A//17OzSjWDtMB3+rGhby3W3Ya7Ovnc90V3w8aF9qDExgiAIgkzBukT+vCDGzjKDbdDdb3f32923Yi+LSQ+HeY3PiWDJAm5txwJpLAdaGid8ZB8AwQr5Il+3tviDmqDnfy3GXbpvPtf1xsb5X6Wg9vJS96InV99Dgd7Sr3ej03s5jJsQ6zp1tvx7NzP8ntiRzIvv3Lnm2nYXP3RA3+0bugDvGc65dBm7/PhRDKaLUtvaJ4iY+pzNHqALIqJaKmua2YvpsyNud+BovhcvXhwaGsIw7KaUNjQ0BADe3t4XL168ePGit7f31A9jWusjyM1jr8orgKwNCTO47VzfaVWJgcEhADweb/b8pPiQkT/GYz6+V8OQK2JYAOZGdZ3R47GZ+6hcDhXzmycVmYrLuhgsKgBGF0SE9DTpBjz2HrOHxWVQKYLYNJ5xf63fqjRhW+muMkf8Q+kkMVZosSVyzapIhvnk3kslxKWQrBkQLJRzuRWcVXu+U+yZ1ibd217/aBuKHIIgCIJMR+xcvz+vjag3Ws9b7O29g4O3YGwXBu2GnwwJGsvfFwBwgubP8MEBgILhAFdPDdn7+yjcAAoAgH+QH96FTu4VMF/+woX8BXbjsR8rWxOX+AMA+IYGQXnHAN1mDRT6e3cO35x3nO109A8cOwxgtztarBELmdPZDU2QFNZaXN8cNTuSLhcvXrwDj2o4RXJTihpOKg2X5uXlNa1ip7v+LIBm1Lo9Oo8qG8hs2bSnP7dWKcu52RnCmXFJDoiWpQkBwNPTqC47TaTHcADA06EdCGAM6Hpi4jnAjZTJI6Hv9P7TbHlKCACA2UQVJMqTuKOFBIsA2kr3D8TLIxkAAH3G0dI5XDDobWQkAwA8HboBFnf0x3hiCTMByrkgCIIgCDKD+RH4YjEbgH2LyrcOenodrhvdeupjiRB+vq7zvS7wp0Bv14AbndhJb/MJDo/S7Bwavfnmiig1laeoghRfcAIAgLO7dWDu0pVhTADw9FQfPGf2RE7vH6EEPy7KePjHbuYCMYo3gswSzYU71MAPpLisnbbg5VkyIWGpLSxqcIPdYicVG8LrPi0PfyKbpIBLq/xIK30+qmqHmsLng8tsdLBJNtjcdksnIc1WkExrvWqPxoJTXBCWkbWUD/X5H1UzhWxwWTttgoyHlxINJSe0FkOhLSpFIRmfd7FUKZVVDiabTrdaXBIAgAnHILEd1GhbmIV2MkEh5RrUBWoDTnG5ubKsjPA7uUUMxiHn++7XmWM4XHAadA6+JNau0XZ4koN+TmM2TCCmG/R9kTEscJ7XOwUCun7GTgeHci4IgiAIgiC/vOBlaY3ffrWvikHD3UBHo+pezq4/Vt/q8KZgMEThxSyigW14OYUXTq9tCuATMJxzcZwzukIjmaOPAuG8n34yeWIBes+cOtoKAN6siOiIiW/nXLEz33mREc0nzqGoI8gsYiPIlYpoCthr8/KrLJuWsiWZORIAV3PhR9XtS1MkVlWDlZTg2ipLlFwItiobEbYyI5pir837H0PUywohWDWf7Gl2hRFFR2DZ0xuEFKvmE2W1ZFM8uB2M2JUKIQWMRTs07UszJQkCjXFZ5mXtXFz1RRoi4+lsIcXVptp2EAAAJh6DIkHIpcRmKoQARlVRe/wTG6IJe33+p5rO56ffZuZ2wggqOJ0AYDfoXIIlLK49oKbxvCdIeJWki9NYo1ZTAbwD5ifHBF1jtDSMJ/ar0PXExDOMeo8wid6mG5hmCSjngiB3sqf/37fGbjSY8d3uu78+ciuKfeA/vkSxvcvduzDs1awlKA6zCJn+GAkAAGH3PRYGAJCwcTUAQFrWmuEVBMseG8mhiNY8Kbp889GtGFH3rY9C0ZwMIVqcOCF2rLCliwAAMH7sKv7IknsXA0DA0nFr+S9clAgAEK8IH7/xxLf8RcPrSu71v5R1WXnvvLEVBLH3ojOAIDMcg82mAAAQbLaj2QJ2a9WROjPgYG13EwDsWCmeX2sJJ6rtkrWBALbR9QkcZ/gzAQBwOsXldts6zVajZo9SA+AGSrgdAHAGl0kZXmOy7qMAYLNYmYJgCgBQuMH+FAAAe9uEY7jEZe60WKwqZQOAq5g7SAAAIABJREFU204PdtzhofXY7EAQADa9rscOFSUG8Nh7+g1OoejKjAiVHyebWs8gjCtm12k7bBw9Jk6letqmX8KdAuVcEOQquvvt5r4LKA7IrYCqFtJ/YRAF4e7W3vDDiY6R23I8RPpARACKCYIgyC1mM5vtwCfA2m7EuSnGI/lawdM50RRXfb62BQAIUhqYpz5IwROyrjkEFCOQy7alrM3gj/YddZmvspbbcUXuhcFmWg1mkPABLGabiwtgPKKaeAw4Di43AACFHcjmkmuzScoMCKzTXHvGIZJyoO+0gS5dlSbEAMCmLdHo7SLy53SKwrgkv0ZTMeAXK8Ow8zO46qGcC4IgCIIgCABo/vBk7Usf5wbd8h0FR61cgxq0IAiC3FZ0u7ZIqXVYLW4y42E21xBuP7grv4FOJ4ABAACU8EXhqk/NCsW10wQUMkOm3ZOXBxQAOinPll6lxYVAEqxW5Skl8mwp/9KG0XJpg+qTfCYTxx04hQvAJS87Bm6U0Kz6RBkrUyyVZzTvycvTUABwQUqWLPzOS754uurV6mbweDwUXmxqDAvMJ41+ZORIdyKGSIypR8fAHc9pqCzpn+qsQyyRwKOziScODDOtEu4IXi6Xa0Z8R3rsLs/QRXStuMtxfafRY6+npwfHcT8/v7ElW75pNFud6THcrET+tbd96PWvz3WhWbvvdie2PX0ril304kcotne5jKR7/vLY3dtRIf/Y+cNNXQDwZGqoVOx/hxyVQ7PjD3t/rD1ikkgjpLl/+/X8Sx/9vDF0kbuIDwWb40MBAKfT2dXVxefzb8498BX3M1Pndrvvtnl5kGvz9va+WbN031EuXrzodl977PHmwh1aaW7Gtb6WLq3y0+aUa6+DzBwYhk1xMnitVjtnzpw5c+bcoiOZMe1cBt1DbpRzuetdBEAT3CEIgiA3HV362K+PaGANr4+XOz7hgiAIgtwNjBplSb2VuzznZiZcLLVF6mb7yBt+gkIqpKBI341Q3yIEQRAEQRC65LGtkiB6bwcdxQJBbgXL0R0HA3Ozydn8N5pP7q2wsFhU8Hg8FH5sciR3pIW2s61079kQhVxMgPN8dcUZi8fZZ7YTXBYV40Wn+ml31zg4DAwA8xVHcM836R1Om7kP43IIjC6KS/HT7teLViWxdCXKk5TUh9KE1NFCd5e5krLlYmpbqfJSCYnJIgaqb1cIz8wNv8bHfGn2BunN3idbkpEpQaFHUM4FQRAEQRAE6EFBABAUhCKBIAAA0KZSmpdlJzBv9X46jyobyOw7eybcqRubUcVpPllSpk2VkwwAcBr1QzxMr7eJIxnUkHhZCEDH8f0GsXx48pU2LUMslceMjkshChaDXVuiwVJlYioAwNgQrRiX42o2jkwG4zTqXdyxoUQmlIAgyJ0E5VwQBEEQBEEQ5C7kqs/PaxEwLS0QtTI71q0pKNICxWVnS7NXshuO1Dfb7YXmKFkGFH1glj8vCwSwHN1RxM7N4arzjgDbbbCwUx6Ob8vbYw7kE2C3dOLx2ZnRE5M0LuPRXSotzmbiYHFAIABYaguLGtxgt9hJxYalREPJCa3FUGiLSlGQNnWB2oBTXG6uLCsjnJjRsaVyJSSUGGxkJANset2QSDrvfIW+JzKG8zMK9dBFgiH98GQwdn0bJuBjBlSNEeROh3IuyF3E7RkCANwbjQmDIAiCTJUP7kX3wVAckOua4mCNd9i9UbuFmb1hAxPAcnRHPZmzKYHpai786KDh+YxYfr07IzOBCVB/xWYOSzvIn9vApwB0am24MFshZYK9Ni+/wRotHZ90sdYVNYRl5y5lg0ub/24tAABbkpkjAXA1F35U3b5UIUkQaIzLMmWBYFQVtMc/sSGasNfnf6rpfH6mN32h0umeHjsAo0+vp4TLGEF0vzqdOYZzlVluwKarVHdh4O3Nj0kjr5WVoQvCvSv0NjIS9EaqOBGrN0y3BARBbjeUc0HuFk7PkOWCGwBC2Dfj/yYE/8Vn780K8xk0VG6rFTyTaPr9m5quxQ99tx7e3rL7q56bfPBz5kXJoOWbs3Z0Hu8C/D+/s+be2r3LPjeiWCDIncALJeqR2fwowA0TDudIzO0Wm6NI2QwADpxwX3uuLjo9mM+njL5mspkAAASOu12XTR1jNTvYJBsAgOIfzAYAsLdVHakzAw7WdveEOzKXudNisaqUDQBuOz3YMeNjax9wUBkEQI9Ob+snykrOgtPepz0fzw25MonLECfKptYziBoippfoe3hg8hWTmOUGSkAQ5HZfaGfR3+IwnzpZY3BwY5Lm9rUNzoudi0bBQ8Y50z4w/EI45ybkXBiSuPUkXqE8sK+l+xTuJn2sXe5bd+zMlWtT1p01oZwLgiAIgiC3hn8wm81UZEtG75JctTA69y4FB4cbAMBlMduAfeVDxOQPFEw23WK2QDgbXL1mG/DBeESlFTydE01x1edrW4ZXcjvcAEBhB7K55NpscnbM7GI/X6sDsYzh6Thu4qUqhgdu6anef/q8M2RkDNwbgwWJ/eoqK6n8xBgMLKjiIsidb/bkXPq/f3b5YyqagBf1zPO0N/7Uv7U+//GTz4Tk9G/9Kf9x3tTKMBX8KuEN1vYTHyloo4uOvzB3/emXD6hfFqPKMpM5PUNfHTMAQOgcgudH+7nF+fGfWBxAA0wkmZ/QcUTvF8Cf42ECWMdWmCv9ZrPw1CHLgtQwPvT+sKeuOzFxfZiPtaXu99s1VRMzJ9SwuHcfi02Y4wMXTPvyD/yt1gq4/+r1972YyGPChaZDB7cTqS+G47TwX1WvNL29ZfdXIHplY8qDYT7U/u4fCg/9rarXOVf6zeaQfZ+dX5IdSy3e9fghKzrjswOZmvH6A3wRC7MaWrZ9fHifCdKf2bTF56fDuHBlONXa3PCnD8uP9YMo+d6/r70ngjV8Pb9Q8OYh5r8pEo7tTc83QtS9R14MO7ztkz83XFma54oNP/sQl76+PjohCLMaWj78/PA35zzoLCAIgtwdAqUKck/+J3UUCuBcqSKDFMYy8/PzjVJ5ZpQ0SlOkVPGZ4LZM89mBGZ8RVaD8pJnNxMFKBwAuGW4/uCu/gU4nYHhyHYEkWK3KU0rk2fKM5j15eRoKAC5IyZKFz8Tki9NYo1ZTweP00EWJqWLCc766nxc52p2IQ4oclQa7UHz5//9sOk2JaYqzDmFB4gBNJUPEAbDfWAmzkxdqlIignMst5tCVnLT6pf72o/9aHRPYP48cjOFNvxBe+tZ8MS2JdldVAYfxrObkuZ6BIcyXGZYct4DXp9lVc27Ih1yVsoANAANN31ec7vUOTpEtCcUAPB3Hjpa3OH0iklYl+AOAtf5Y8SnfxQ/Hjs5l36XZVWNdsGR5tO/w+7EVmPXHimttlLkL0tOC6OAyHC6tocc9GNV38Luf+saOxnvOoux4wU3uNu9wDX1c2toz4AKAjUuFN+N7g4HLDQDtBpO23zNHIrxXghVAw4RUByVg5by2l7cfXrlxxYPrkw9/deCF2sR3s2OfiKqpqnJO+HHuOF+g6vrQ5FmwNuPVnLgfaku771vx+mKfisID3/YTtG7zaXvTqbRkfuWBl3/oMvYQq/9txSM846efaboXSl/duEJ/TrkTACi8l9ZTKyrr9mkvoOvarKHX1n/aXd1uZ69/5r4/rP3phw8NAMAk+bTPDuSWRf19Y+xLyfXHDjGfyZ7PrNybvIf697+uiji2/28ttL9PpbSPPZdv2CH6+1/jRbUHNn58YUn2A6/mmCreOtWOTgOCIMisRYnOyb30hi/N3jR+slxJzvOj09zKNmyasKEsN3ssV3Pp9fjSLpW6NCd36fglGZsmrkWQmbmjE0jLcsJndEC5SWvWXLYoJCU95NI7RmS6bPhVUPKqsVnShGnZl9+fEqRcNq7YVVwAALE8bXQ3q0bXkk9Wwl3n4sWL6CuNoJzLrVT5t/8obIP+vu0v/NEv79EDjw03bxn9tPy3izacSpY7jnyvBYHikfsdxTu/OwcLHvno+9fk/uNKMe179f43/PJr8xTm3c8+82qBjh4bFzjLa4DdcErf43tPmiwQBuwYe/gfCt40utPYbF2QwASLUT9ApXmP9ptxmpvPeYdJgk1NbR0L/YOmmxyhUL3PNVW3speEjo4yxxIuzQzytDeVHB8IlcXfw8bp1yrzp86BoaGpXk+t1kGHe/CCYfBQg3k44ZJKcuayb0aXsx5DQa39iWioOFSzrwcSJlnr1PG6Y2edNIP7QaKtoMxYxWlpyQ5hXDEQoyhq/npFWIQfBhQagA8TCH50AHRUv1f8k3bka2q1ugC6LdpzvYCLloThXZU126qMcI65LjF5CUnsbAEAqPvuuxdQC5dZhUhIjX0mkRdAAaoP0Hx8RgYl7DMUHDeewqlN6+dF+FEBYBAAAKgUHADA7ZlyadbLNwwSJvhAQOK9nyUCAE5zBYgAUM4FQRAEmQ5jlUrTNjIaDCU8RSEJRDFBEATlXGaBxL+89bhKsSv1w+P/iAPVgStX6K8zJ1Sd2KzKWfx/vzz76cGal7evlH+58+hmueJqrVrKtv/Hl+aU//luK1n89P2awVn9VBcUym788VzjT7SIKN6ckd6l3pxgds85Y3dCBDR3DM0N5LSODObpaD1n8p27fH4ApaXyp3OuoNDpNfr09uXH8DprqhoNgdGjyzA6QQAdBwC6L+F7nZFW/nmw5YLzBjs7yObPyU4KuY2hdTsvOAE84AZweWyTfelw0TMboyO0Rx5+vSEg65HP0gAArtnJd7I/323rQy1cZpewpNflQmNhfk6xJ+sPj746ttw+aAWAsfGD3IYP95y/d/2a0sWDLdrqPx3qBvCB0aEPqQSNOllpV244BwDclUrln+o9AOB0D6IcHoIgCDJN/ARFZgIKA4IgyNUf/2YzYVxKKG1e6FwaQEoSl8WK5AEMOgYBrpJz6Ws91wni+xViof+yRN4/ymd1YJjzEzOCO1tP6Y7tbZl776J4HgAMAZ8f1N7Uapwz1Oo9N41tHcm5DLSetQz1Woq//gkAvM8YB0JDp1vh5iyIDm8/WXvSHHE7/jgK5uVH4P4+FIUkKDqEeWeeASoAAMafF5G10A+gG8B+qqUfVs5/Kb33235qBBi3HR90uoAZdo9M4mPUdh2uH1wpSXwxoaF7YVQYdO3T2oGCLmWz9fLsBh/mgoSw1UEALZOtRyQm8gbrj/7pUO+g64LxAgAMdtkhIDpqnYQpuk9AG87TXaW0KzZ0tVVdiJalxi7oONPtE7AAN+2s6kbnAUEQBEEQBEF+1k393YJ+xYvJsELnBkLx9ypdSuyRSpNzVkfFbm7uAzaTHz3X3H7G3O4AHgAA5s0OnTukOdk4RJ97L9v71PC6Xeea+xn3yGPD6QADbRWl55otoSIAALfTZh8AwDAqnQAA8DgGB2zegHlTqFektKj+McnCjuKmRsoQzJ3u0f6/9TFTHx2rp6cHx3E/P787+gS4DTsPmRbct/T9oLavSs92KXAA0P5w4G3efc8o7lsC/RVKA4CxoMyUcF/833N4b7/57Tf5ByIeS8nauIJ6wfTtZ4e+MsH0A4nMBC11H9YLXl2Z8ffmhp3HLKKgydbzdHVfCFi89N3hxmPddU//ufyrwrNL1s/b8ljA4bKmSsE9k5R2lQ23vn+cmhP7+svRcKG/6ruinegsIMgvo60ovy0+Z+m4Phla5Y7O5blL2Sg2V2NuVNcZPR6buY/K5VAxv3lSkUmtF61K4vadVu03kop0kgEA0FNdohPIRPriRp48TUgF8HQcL9YL0vm64n7JqhiW+eRu9UC8QiYiAADOl5f0S6TE6UrdgMfeY/awuAwqRRCbRnJQxBEEQRCUc/l5Up/967rjrz73QMbS1Qkk1TCr/9aBc7rTJy4MAu4TIIyLYI6ODeHNCQ2En84x44OYI9PxeDrOdFwg+KE8XyYAsHhc6rnWsz0CX4Ch7qpvjwIABM5/YDkBALamqqImAKCGyZfNu2KPWMA98fd0lv7knsmtM9rLdseXjbyuyv8sPh8AAMYW9mjWPacZ/lT98Ufxw696Tj3+3KkrH5hP7dmdvmfkzbZiAACwd3714a6vxq1UNW4dAMO293dtG1/GuUu7Q2Y+459f+Z8/AwDAN+9/+c3o0uH6UPzhR8UjC/SvvPQ/AMCQZPynxLp1y65vejxzJMvznxUsmANVVQfXVR0cWXFPKQAA9F5W2tU3bKl55W816BwgyM/ReVTZQGbLftYYFsKMHCGK5NRxI2XySOg7vf80W54SAgBgNo3edBAc0FY08tIjWaNLuDFkvfp0T0g8x9ZYNyBeEoL16EZLYrCcpzV63kjWBQAYomSZCKCtdP9AvDySgWKNIAiC3LU5l6g/Vjf/cfil4sPz1okv/nGia+Sj90aWQNZea9blZfAe2Wt9BAAA5j608+BDO4eXvjWrawAhSksRTVgSIH14eAT0SMX6yOF1lgwvCV227tJqnPiHVsQDACxeFz1he+nDK6QTojq6QvTizOjR251FqesWjVuHH/Pg+rvmS0eVZa1YPzo3U/ex0t8f70VXIuSG0QgqlQI0H4xhZy6IYjMvdOn7b+2GCIJcxmXUFJRoAceBTspleMkJrcVQaItKUUiIetUejQUnwI5HKdYmBDo0eSqLAMwGZvxaRbhZXaA24BSXmyvLygifMKBZc+EOrTQ3g2+tL1SW2wg2ne4wQxgK9Q3wYOzoRKipaOSvGsu6EOJY3v5KnVlsNLBj0xkAPZd+o/mx83s0FboAuRjlVxAEQZCb4W5v52L+/o9vft85/Do88z+fmzCNEYLcCk51wXdqFAbkJumuLN8mWfHM5idfhUGjoW3b+6Vq+63dEEGQy9gM9XYyc4N0ZO6/BIHGuCxTFggurfIILHt6g5ACVs0nyjpyEwn2Niv/pQ0yAsCoymuPf2JDNGGvz/9U0/n81RrGtB054l769AaSAhb1B/ko0jfE48GC4hPZ+ytO89L5ows5MdF0VXE1J2UNd+Jsgh4ghEmS5mKNjiejT39XHpPJBABDQ0ODg4NGo/Hm3Dc4nV5eXjab7Qa25XA4GIahWoAgl3LZt3xH9qq8AsjakEDMjl84/fHL+lcmYzVlkCoXU9tKd5U54h9KJ4f/Uo/5+N5iS+SaVZEM88m9ZV0MFhUAowviUsSgO16pcwAGHoyfGEdtrNE7nDZzH8blEBhdFJciZoHHfHyvhiFXxLAAAPpOq1TaAPma5JFZcu26kt0nKbKH00KcupK9jRiXAU4n8OOWxHCpKOdy5+Pe/5e37kfXoJlM/96T/5v+8eb5KBLIXcrdfVlPtFu+IYIgE7GlmbKj6oI8BzNq2cqES/fztk4LUxBMAQBgBge66yxAAs4nwwgAAJe502KxqpQNAG47Pdhx1Rt3iwUP5lIAANh8Nt6JQn2jqEHxiX6qilqCN7ZESPJZmEB0tbt1QiSN0e2v0Mb4TnM33t7ec+bMAQCXy2WxWIZf/3x9fX0YhjEYN9Lwxtvb+w48HxcvXrx48eLNOrahoSEvLy8vL6+bWyxyd7oZnUMnY61SlnOzM2ZYx9Er+1c6xzpjYhwuGPQ2MpIBAJ4O3QBrLItNFSTKk7gjb86XN1JjFSmjbyFFJga7tkSDpcrEIxdhT4d2IIAxoOuJiecAAGAEl9Gv6/AEhWAAYNMbgMsaLZsTuUQmpoJdW6zWClbFsGZAFNF4LsgMdubrP3yuqT3TdOYPHQt/9W7uQhQRBEEQ5BfADl+aGb7UWvWJsprcxAa3ww0AwAhk25vNIOEDWNs7cS4boH1sEwo7kM0l12aT1xjbjGAz3M0WF7ApYOm0ulGcfwZqSFKibm+FnhCLRh8WsMkbgBBiaYxuf7WRJZFMZydeXl40Gm34BYZhw69vws06juM4fmOlud3uixcv3mlnYzhFcrNKG0uy3NxikdnK1awu0JjBbbHSU3Kyo+mTdg4dn3epz//ALH9eFghgObqjiJ2bw1V/ssccyCdcdouNkK5VkEywVCmVVQ4mm063WlwSALBqi1RVVnBb7NzlORlcw0GNtoVZaCcTFPF4dUGRFiguO1uarYhmzthgYgIx3aDvi4xhgfO83ikQ0PWeq11SWViXocPODZq06Y/ToHPwJbF2jbbDkxyEAXjAT8Qf0J13hgip0Kc3+YoCnB2X/0SyQWcHQDkXBLml5v/6MVHxDv8IEzz2GEq4IAiCIL8Ia71qT7UVx91upkTBBLokWK3KU0rk2dIMWbMqLx9wtxuXKNYyYXxrFqE8o3lPXp6GAoALUrJk4VdJvgiXL6tS5uVpmHTcDXQBCvXPyroIk5KaVdVTXJtBSmN0+/UobAgy21DCZTnhAGDV7NjTbI8WTtI59HocNjw8R5FAgEur/LTcSMotRRoi4+lsIcXVptp2EACASWbkkABgLPqg3ADZZIKQS4nNVAjBcnRHPZmzKYHpai786GBzdGb4jI0mxhP7Veh6YuIZRr1HmERv0w0Mf+A01qjVVADvgPnJMUExstjTJ8tUNVRRbGJMyJVt9uwGnUuwhMW1B9Q0nvcECTEAAD+RwFBpdApFfbouP3EsVTMx5+Ix6y1EkGRmxAnlXJAZTfTg1j8G+Ts6gI5igSAIgvwimNGKDeNHkyczc8nRl8N33GP3+tJNG8beECM3/lcTnpkbPlx05qZoFOEpYsWsShl9zU1axR1eJk8ei7hIli2Cy9cAABCmrRpZJh9bxopc9XAkXL4GgiAzm8tSX17e4sBxt9nmipq8c+j10OlMJgEAQOEGu6ssLpvFOtKZlMIN9qcAgKuztvyEwYHj9jaHe0LO3NxusTmKlM0A4MAJtwtg5k7minHF7Dpth42jx8SpVE/b6HIqP0421rcIgAiJSQuJsXecVFdoWenkZVkXm17XY4eKEgN47D39Bqdw+ErNEImgTG+j9/TzIjnYpZmE+7QVpee9gQiKWyKizowwoZwLMqPRg4LoABCEIoEgCILMYMYqlabNNfyaEn5Zq3YEQRDkpnA1qI7AyuczAqFT3awCgMk6h05EwWF4sctitgEbABwOS6cFSDbYjQZgh1MYwLQahjuTWsw2Fxes1XuqiJxNMqarTdVQDgCA4+ByAwD4B7PZTEW2ZFYMsotxSX6NpmLAL1aGYeevvS7B4fp6bFf0PurTG+jSVWlCDABs2hKN3i4aHnuLKginlFTUEaJUFjgv5VxY5JI0MXVGRQnlXBDkKtYsibAPulAckJtu6CI8slyC4nCXE3BZKAjIRPwERWYCCgOCIMgtRRFGsTWqfDMTZ+J0gnmtzqHj27yESaM0RUoVnwluy/DjM53uNqiVSofVYg9cns0HCl8ubVB9ks9k4rgDp3CBLoiiqJT5bUw6Exg4BQC4UUKz6hNlrEwhVZB78j+po1AA50oVGSRzRseUJRJ4dDZx0IQBspyGypL+kXmLkuiN6jMDGBUDjzcvLvnyWyCz1uhHRo5szRCJMbXeNjLeOTVE7Ft5JkRAADhndIy8XK6Z8WB5welGg2IhBHUaWcKenh4cx/38/G5gR3fmmHPI7f5dptz8pp6D7qHOASeK7V3Ol4pxCMpd++fnHzt/uKkLAJ5MDZWK/e/8Ax4aGvJ4PKjeItfl7e09PC6v0+ns6uri82/OpLTofga5FbV0lrl48aLbfRtHGu9U7ygX5s7ggVjuChiGTXEiM61WO2fOnJs12dyVZkw7F6o3oN8MBEEQBEEQBLn9rM2acq09XCoLc9Vrqg0UMkUazkRhQWapKfT3RHPJIVOG+hYhCIIgCIIgCDI5e+2eg5Zl2SlchrH80zrm2gySOSHhYq1VHiTWZl6a+9xelVcAWRsSCBS7EeZGdZ3R47GZ+6hcDhXzmycVmdR60aokbt9p1X4jqRgZWLSnukQnkIn0xY08eZqQCuDpOF6sF6TzdcX9klUxLPPJ3eqBeIVMRAAAnC8v6ZdIidOVugGPvcfsYXEZVIogNo3koIj/LNfr7xkoy81GUUKmyhuFAEEQBEEQBEHuetYqZVHbVT+xtNu5pJDNJMDSDuFkIJs5MZnClGSPS7ggV8GNlMnlcqmYxY+Vy+WyJOGlCGIEB7QVjX2XVsa4MeRQ/ekeD0BfY92AOCZkXHcgBst5WqO3j1sgSpbJ5fJYHotcIpfLUMIFQe4wqJ0LMmt5eaEhgBAEQRAEQSZj1ar2aKw4DhAsXZvgPqjRtjAL7WSCIt5dXqAxg9tipafkrGVry7Vmg1GpMgoZ2jazQ6V0paxdKhyXY7FqPtlD37BBYqtSKqscTDadbrW40IjxU+TB2NGJUFPRyF8VOTq+KCGO5e2v1JnFRgM7Np0B0DO2OpUfO79HU6ELkIsZKHgIMgOgnAsya3l5eaExgBAEQe40vfaRLvI89syY6vHixYsoiY/MUub6NkbKE5nhI00uEoRcSmymQggAIMsJBwCrZseeZveGhBSySkNmK8LBxWxudiiypVcdysVVX6QhMp7OFlJcbaptB1F8p8rjwYLiE9n7K07z0sdGXubERNNVxdWclDXciWPeeoAQJkmaizU6now+/V15TCbT7AshhULx9/dHVQm5M6GcCzJrUSgUh8OB4oAgCHJHae8duTL7UmbGTYiXl9fQ0BA6cchUqspMO+TwjLXWI6q8chBIM2TjJqx1WerLy1scOO4221xRUy7OZrEyBcEUAKBwg/1RV6NpoQbFJ/qpKmoJ3tgSIclnYQLR1bLThEgao9tfoY3xneZuvL29b93kLOjbhyBXhXIuyKzl4+PT39+P4oAgCHLnaO12dPQ7ANDNMYLcEQi+JCNb4mpTfXSwmcyk4+ByA4CrQXUEVj6fEQid6mbV1EtjsJlWgxkkfACL2ebiovhOCzUkKVG3t0JPiEUjSzBs8nmdCbE0Rre/2siSTKsPl5eXF41Gm33Bu91zRSPIdKAxdG82R3FuWPCavI5xi2pfW+gT9mIpis1t5uXlxWAwLBbLDDqZLrHMAAAgAElEQVTmpveXBc//3YlxS0pzg32S325Cp/MuonomhJmz805p96vbfp8k7t9rxi0Z3J05P2DVlyZ0ppBpM1tdb+8/ixIuCHLHaDuan5efn19wxBIlCQbgRgnNRZ8ojxoCo9haVb5Sqay20AkAAJzN5Q53Y2GyAxmT/c+WEi2XWos+yVcqlRozjtq5TBtVmJQUBM4prs0gpTEsjweFbfSx9q5ht9vvqr/3ht05rZ+8XC7XjPgWud3unzk2R+3vFv7a8d6ZbWm3OunSeuKEg0yL8B+fc1n8RWpRyy3f9U3/IS798kjrpebUftEPyKgV39b6LXskjXVa9W2NhSJIXSMTEeDUlyiP0+UPxzvUe8v6yAfWxHOgp3rvfi0rZU2creRam8R0qb6tuZQV8eanPiwXTZbRBwpl2r/fVqvV7Xaz2eyZUd86aktNvEWSIPq4nEtG3Ss1x1+NmB2/h/bz1WUarXnAg/lyyCXy+CBz6ZeHWof8oh9YE88BgL7Tqm9rLN6C1IdlIgzAc75896Fmh+/8jIeSuCMf1/oteyRNOFLe+dIvD/VLHlTEjIw5N7bCL1TfrmvQPdQ54LxeziWnf+tP+Y/z7ohTZqo73smLW8CjXcq5PCzJ7Xutfv8jvJlS7fpaDn7306X5ILznLMoWGpU11gVLlkdT9YfVVe3eAUlLls0jALoqlbXORalRlpOHz/omrlkooLoMpUcrbXPvXcluutYmMpFBfazt0gWTEZW8ciFzkgPypWIc4u56GvnJdOGUsb+ozjT+yrp1XSSXOQOGdBkaGvKgxxpkao98w60SnE5nV1cXn8+/KcX29PTgOO7n5/eL3D8js7WWIjP4btput9vtHA6an+qm0Wq1c+bMuXXd7mZP36Le0rc3vvROqdZBJ5/6+vhb5IEX175U0GRy+MeufvPrzxeV/mrtP7UmyPD5eMWHxr2r697e+NI7pa0O/9hH3/t824re9x/b+E6dA/raTH0s8jdf/7gFRkrzj1295cMdT0l6/7Uy8l/kltiT7xyY/1zs3v80bak5/mpE02sL4/5Fft34v6svZVgO/G7lr/veav7hKXrx79Y88686R0Qa2TczYxqS/FBWvK1RXVRPSDOlAoxKOLXjH0jpmOGkRs+TjT2zEqLEeK2qukYXuQRqtPagJLmI8Jy+5iasSHmWyGOsVFX0ie+TR3KoxE3+GWAymX19fUaj0dfXl0ql4jg+lZsPb+/rNAHr2DehgmWHOmr/lfvM1n11vXRh9g5lat5V6ttVq1Ps1y07LuVlmr7YmPHP1KKWbaHK3F+/pGyixy7izaormk1fV29mxKXLBWCzYZzhhy1vOt1u0PXEczjQo9PZ6HTv0ZyE03DWgM2LCzc2Np6P54ZMt278AvXtpqr75Fc5/yhvs9KE0se3f/jHVL/y3y7acDIuxXH80FkIfGDz/+56JLDszceeLWgD6GzrGmQt/OvHisKsN4X5Zz5S9O/OXJjreFO3P4t1eTnm/MdferOsHwbPG/qogkfeU788uOXZNwrr+mnCZZt3vvds7Pg2x7pdj6//MPWrhn/Enf34pV/96UgnKy6RBjCz6iVLuDQzyNPeVHJ8IFQWfw8bp2N9xnHfdwod76mqbw5ODB+ZAQLzXxAZ2lp1+lQvL9R02kgNXx7uj41vMnflJsBbtPSBhfazpSe1xPyMpECMeo2m2y1dF/5vif6uvbMJYtE6+gbRHR6CzOiHvjZNUdXohZQgZRnRbBQUBLk9CILo7u5ms9loFJuZYtb0LTqxNfePJ0LfUDf/WPTZC4voEJT6wntFje3Gz1NNBa+9fyJ0w5ZHSeA9WdRzYe8G/xNbc/9Yt+izlvYfX6F/kbu1+NQX76vg0a/P1LyZCrTUN95IO7E194915JvHG9WvsA689Mz7TQAAg3UFBbTffPb167mvZPPqvvii1lH7xT4tL+uFFVcdJLvpnc3/rCPfUB//cLX/DB3IFaMSBIMgMPDG6AwGQUz8b6Q3Qxw/n3r+pEZvv7SQQUpjWB3VJSXVHSyJ9PIZ7K62CUYQDAadAgAEg8EgqNd8BLZdYWBgwOFwXDuNwmKxAgMDL1682N/f39PT0zUF183LXFbBoOn9Z17aR/vND40/qr/ekrrgyvo2WXXaEnu14kvf3vyFKfW94+q3VtBm1TDADL6Ih5m1ddouDydoJOUCGJcf5DTozABmnd4jEIz1/7brtecZZGRkpIhqPGNwTvvy9nPr2y+NTH/t0+8azAd+y9N8+G7xcOq2X2tO2XWiIX9Z33fbd56Ayi+/LOc9u7c+f/MCCFy3+dn5Uyin9cjOb8wpOw8e267wo8X99vW47//9d4Xw7LFzJz5a1PDG//my7aoH4zjyl38/AIr31N8/ew84Z9zFjE4QvnQcAOi+hC9Buey8U+bOi2L3nT5uGBhry4BxYuJ5nrP1pcfPQWhEZMDlNeXKTTAqjc6g0THwxmi+DBqdCsjV/Dp57iPJc1EcEGSmP/QJpZljUMIFQW73M7y3Nxq/ZgaZLe1cepu0bRD7qkISFARBANB74outr32h7aOBqRfA4QAY+Y8jfXTl3n3PxB0AcNCBbhJs2bLii5fWzt/H4mW98UYqvfeAtg3IV1dEhAbBilDYekLreBQAaKmvvLUhnQ4Av3mUVCq/+MKxT0s++lna1Wdpa201QcSjKyShEf4rSFrdbKw91ADJEtJYdFJjiBmX4IhMJLVFZ7DoByIZU9xk6gYHB6+84gwNDXV1dTEYjGtMEYfj+LQmkLteW9wrKlhrXSuEPrV6UWgohAIAtI6rb63XqU5XKb61zQTk6tURof6ORbytZbOo0rAi0x/it+lq69S7T4vkq5KDAMADIeF8Y6XuPN+jx0SyoH69DgAA+nRa05DF9O1XNQDg3aiziSJvRhWdMdpU2994t6aTTnNoYXDB4EjyTZicQtJYjrmBcNwxCCnPP5tw3z8yor/yE6577ck4gIZL3xbHJOWErv7tuu1P5yyvDPRLeX7zKt6597TOQdP2jOjtAIM01vlOAOGVR2M6ZxikJirS54XC/YuYu1pn1bXMAz73JIcb9/9UefaesRkgqIKIGN7Rqq45ixICqFPbZMr8CHxekC/cNXAvbz6biOQzYucyAaCp3YZuvxAEQRDkxn9Ycdzj8dyKXvAIyrlMzj9UyIOCfaraFSug1eQf2/Ta5oK+v9SoH63LXbyxDACAzqKDw2Rq7ehgBUWQQmha9J56x2p/R2urgxdUl3uClf2Z+s1FdLq/Px2AJIVQUHygaUXsgQOtEJpF0sE0+gQNACD5zQuL3n9t6xeOpC1PTTZWOC+UB/sOHKjNhrpS7SDEzsr6Q+XGL5lvLDpZSxkCwcgyjMVhAGAsxtQ3mbJr9LLr7+/v6OgICgq6HX93777LK1hoLA/2le470UpntZroixaNr2/Xq06T1GfVvn1NabEHTphmUxN8W4euC9hsQQxpMmpMRhsEAQB4eweJBZ4yjcZDkKs43iPjtZq12j72/BWpJAFga1SrtdqeSDEAgMtls9kAMIwgCAAAj91us2GAYVQqcVPr2y+r5sM/fVWZtL1m+9x/3Kd4b9wH4yvOYJ3mNPnI3sJn57FoLDoNTDQ6OM+eqGkTNnx/CmDBVcs5V35y8L7/3v3+cj+avx8dzDEklcZ74uvdz80Ds6GPNu+qh8OaK6A5Kw8caVtAO1RnHWTNtosZxgpLXNBx8Mef+gACRpbRmL449BM+1KlvMtVLmS/1dxn3oFuQ2aNTveOIMDc7/NbvSavc0bk8d+msblTQpyuv0TucNnMfxuUQGF0UF2OvqPVblSZ06kqUJympD6UJh7+VzrbS3WWupGy5mNpWqqxxcBgYAOYrTkwWOBvLKw0uDAMPXbSEdFbWGT0em7mPyuVQMb950iQhAc620r1nQxRyMQEAYD65u9hEKsaPDqbS8tIfSuL2nVaVGBgcwuN0UkSJKSQHDYWBIMgvbWhoCAVhBpk1fYvStrz3G7Lpd4sjF2a8Vtrrn/aogmz9Y3LY2gOs2OFxByJWPJpKP7Bx4eKXDnQs2vL5m7HalyI5PsGRa9452evwDw01fbE2nM/nc9gLc4t7JVs+fzNJuzk5UrbVlPreZy9cMXxpUNYLq8HkSHsqK3SyI5L85s0nI+pek8lyy+gkbdbWIIwbL51HndZIzDewyRT4+fmxWCyj0Xg7/uorK1jEU+/9Jc30jiwyUvaSsnVifbtudbpKfX71zSxW2TPJss1aXsSsqj0Dhtqy/d8W7q/u4cxPjORcqhQiAQwMsMSi0Wd5z/lG/QDBFwexWCwWK0TEo/brtB0eABgyVhQWFhYWFpTphvsM9Z85UFhYWFigqjbftvp2G4jvX7eQrno2KuHNPjJy0krA4wae2p5xz0IxNzJ8yZuVrPSXNkW2fbBucc4BVlII7arlOPwEQtj/RJpYsHBuwKINXwzm/Pd7D9O+WiMIn3vPAy98c26SSr9s83+lwZdPLL5/e58wZFZe0pjRMVF+Q66hW7sJcveyVimL2m5R2S6tsrB+tgSKJU6RyeWpkVxuZKpcLksRs8Zf0TmuZuNI90anUe/ijvVGZYilcrlcLpclixhOfZ2BuyRdLpfL01PEDG6kTC6XS8UsfqxcLpclCYnhrYd4mF4/1uqKxaUadT0jb3p0Jip39J9HWEC0TCaTp0s5uprx/akRBEEQZAruonmLJnfid/NX1r364w9PhTpqX5PJ9q1Q//jGNWe6d3S0lm5d82vVoq8bd6TTUS26fa7bgq63t9fb2/vGxva/XfUNmT317QZMYd6iqXMUP33P7xz/XZaX5ddX9h+yzIZnqnY/G3qdjc6++4CsQFF06LkF9HM7Vy3/S+iHzduXoZN9e92F8xaN19Rue+cHHcymeYtG27m4mtUFGjO4LVZ6Sk52tLtWqapz4zjg4cvkbM0uZQszKoxMUEiF485+m+qDutjnFUIAe1VePmRtIuvy8pvZfCbYLRY8VpEpYYO1vlBZbiPYdLrDbA7LyV3KtmqLVFVWcFvs3OU5y3BNXp4GjyJJScZShlapqnIQ4MIliuyEwBlbTezaEg2WKhNTAaDv9P7Rdi7HPYIhI0hlJAF2bWk1cB0GaqpcTG0r3d8vWTXaSMXTcXx/PUuaGskdV7/6Tu8/zV6VEjL8zqYtqaRK552vsESmx3AAzCdLDBy/LrNAnhyEeTpOlnWx6MY+cXoSd3TvAJ620uIuyar4SRv6oXmLkDsfmrdodujo6PD396fT0YPozYHmLboNyNXZi/ZtTQ7bSgcaL2nLe7+RXCdH85ps5b9g0Qsf/iWdDgC9pe9v/mJkvBbe6i1vrA5FIf3FMBiMjo6On59zuY0PH8rfvXNgeHRU2qKn3npqEbp2IlNGj8tcJ371/yyP+ncA+tyU/3otZwpXH8HydSlfbF8T/SkdaH6xj7z/+8sTLmcL3vjHwf7hOpm46bXHF9FQpG+93q//zwO//bj7JeuZP6BgzGCUcFlOOABYNTv2NNvDoc7ClT+RwR/OsCQIuZTYTIVwCukGd/BKhSwQwFj0wUFtVDb9yBH30qc3kBSwqD/IBwAAJpmRQwKAseiDckNGtiSK287OzIwGe22ehqvIlQWCseiDkvrYnOjZltyjC8K9K/Q2MhL0Rqo4Eas3jHxg01WquzDw9ubHpJFBSanO2poSldNPHJc0IfMymoDR6ynhMkYQ3a9OZ47hcAEAqGwxX9fY4QkK6tAP8GMEPYaJ0046OwwDbDED1XMEQRBkWlDOBQD809744cwbU19/0VtnLG+N3/yFcZP9Ir9shcZxHMddLteMGVMqIvutHdnoxCE3hnv/P3bf/49pPrDEbvrf6k3XWGFe1mvvZ6HY3mZtfiv/5+GiX6FAzGwuS315eYsDx91mmysKiIS1GY4jBXkldHJZhlQ4lQJGfsqY7OEBW9hcutXisNMteDCXAgDA5rPxTgBwddaWnzA4cNze5nCPH6vK0m62GY8ozQDgwPFgB8Csa1BFDRHTS/Q9PDD5islxc7gzxImymLEWKBhLGC8TSmxt5eoKIl0muizr0qPT2/qJspKz4LT3ac/Hc0P+P3v3HtfUme+P/gsrCQkkhAAxEJoYSI1ykZRboSCYSkWc0ql0ZDq4e5nTae3M7LHndXo7e9rdmd2Zn937zHS6f7+2c6mdttOhU9qBXbSmI9rSIggVBRwQUGKDkUgAg8SQaMJKFpw/AmqtWm1RuXze/xBW1loJ3/XwZD3fPBciIiZSo/K2D7g5K6tKF9Po2d1HDjc0WIgRqXOzYuZYB4HZuZTs5OSk3++fqVs1v98fFBTEMMzExMTExASPh9YNAMyyJipCAPOtTGMebwCYa1LXrj215/9BHOY2X49xN635afEiOlHfZyQikqizS9TZnu7Kipb4jToe+fwX+9Ca3uywu0lOROR3DNpJryTfYL9bkiwUCcX+PoePZHxynHD5icjVvrVNVP6QQeLrN/Y0TTc8fUR8iVweIb6jbF5PssvEaMM7W1sFyswUhhyX31UsjxEcYS8cGMYNmYYV+SVZciKi0fYdXQNsXGAKdrFG5atvPhy2zCA6L+VC0csKCtRzM1qTk5Ozc2wRj8ebqTcWGCkzOTkZyLxgLNXlzc40HMA8b58iBDDPYLF6AAC4AfjqJFmLsdIu4Ul4QpGEPH211U0OHs/vp6RCGcmT1Hbjm1WphpIVCeetsaZMz/AaK2t6ZHxy8PhTM8LaW6qq/F6HQ7iyTMcnumNlW1VFRYtEyPOTUEUkVCXxjVWV/RKhhMQ8PpFMl+SprqgczC4pXpNRU/NmBZ9PPHFqYal+0TwMNBOjjW5pFWsiic6b0NZtbqkbnlq3KIXraDZ7GQFDHF+TlnPBknbckHlMkTg9+W6kTuNttXqSA7+JVBpB14A2ToDyDAAAMwRz6MKcuqG9gt4rMzKnFMob0ByYQxfmqovOoXvq2WU5YYcXwnwu83AO3Rnlanlzq/D++/XorTn3YA5dmEOlFOY0zKE7szCHLgAAwPwXsfnwYURhIXB01Nb3TffPUF6wihEAAADMM8i5AFzExCThWyG4JoKIzwQjDAscSsCCJtMXl15ufURJ9kP3I0oAAADzxVzKuQQH4zYVrpOTXs4/gazLQneTlD/jE80JgoOiQjB93UKHjzMAAACABWIu5VwmJiZwwRY4DEAFAAAAAACAuQJjiwAAAAAAFiBfd+VbjuKN12F1cceeLZ8s2limmx9xc5qbDli8rNvuZOSRIkaoSUvxNHeEry1Qs+a6qv38/HsK1IEJwtn+hg8afVllhVpBf0PVAW+keGp1rRwVe6ip1epjGOKEmlwd29pp4zi33SmQRwqY8CXZWWoRsf0N247ElRRqRURE9v0f7BrWlZSkSKfeRZfRaFIU3ZMld3YZ66ziSBHHsnxNZp4uEt9RAswmyLkAAAAAAMAl+ExVRl9ZafK1OPeJPVU9ujLDHFvVXKrNM2jJY6prYfINWgERObumn2Pkkb4+G6vWCIiItVl88umFyUmszS6cTpiw5nqrPLcoUTz9pKEwkZxdO7pkhXlxU5tYm2VCwVgsbu3UblK5wGYeTUmPJCIaNQ8L5NOHM9HJhgI1kbNrR6tFNZWkAYDZATkXAAAAAICFzNFRU9vjJ4/Doyu5f4XMWl/dNMjjEUlSSwolbfUmE6+mxqEvXpFwri3vaXuzksofyhAR9Ru3dKZuLIntrny9XaKWkc91wptQsj57Edn2vGc08WQSHjm8tIiIyNZStbuPyOMg/bryhMG6fSaHtcadlFeiF3Ubt7Y4eHwfxRevX6Gcqwt6cUKNasJi8Wh0IvJY+hmVkrFeZDcmTMharHZtolxwqTO5LeYJTfaSgWbLaGJKJBERRWtlI6YhLieG4YbMYwpNuM355WPE4WHsCEuEnAvALIKcCwAAAFw/Tq8/8EAaOjduQoKCgjDtMVxhUZmz712mLy3XE/n6al5vH1yRbjLxUsvL9ZLAk/ok+aCs9Er6ufi9stSSEjWRY88WY0/qOn9tT3zZxhUy8pkqX+ogIiJldll5NpGvo+ItkyNjRYaqxbay1LCIfKaq3bTykfvVfFfLm1Xt+oeyJXM1mEJVQnCzxa1LJItNoM1kuqdzLm5za/0IQ8HBypQCXUxWPttxoM7IhmvTsi6WeXFaLPwEgzhGGN5ptqdEyomIBDKt0nxoiIuJGbKcVqaoRq1fzrmwQ9bTMq0Y/4wAswpyLgAAAHD9HBs5Q0SKcIFgjqybHhQUhBncYZ7z9Lft7rQTj1yDfhGRsnBdalNtRYVfnl5cmHwVk73wxBGBTIlskcxlc7m8XplORkTEj4gNnMbVt6epx008cjj8sb7zDnWfsLtsLVurWoj8xE/wEM3ZnAsJ4rTCOsuogobDtDrGcXa7WJtpmB5bRMRI1ekGtd7d31TfLCoyaC7IuoyaLe4xUWPdEWI9TtNAujyOiIiJ1Ki87QNuzsqq0sU0enb3kcMNDRZiROrcrBjUVwCzC3IuAN+M135w/wGrV56SdZOzf3xJ6k1CxAQA4Otadiy31+wgIlUkur4DzBa23UaT6pHyZL6vu9J0lIj4i5INZcl0on5LrUlXriQiv4/ogtE+PL7f5SUSkcfhcAc2+R2Ddh/J+GTrs0tiJRKv0GF3UIKMfKfsblIS9X1itOt/UprAd7XZ+lyBYwJd38SL5DJ33rriOTum6HxMjDa8s7VVoMxMYchx+V3F8hjBEZa7YDM3ZBpW5JdkyYmIRtt3dA2wcYFKU6xR+eqbD4ctM4jOS7lQ9LKCAjWKMsCshJwLwDcx9o8f3/GAMUSlSHr0pyG//uXY5u7KH+5/NK58bPMXlT9UXNk5hqu/n/Fr6Z/2vV4SMr1p789u2tD1+Mf1j2sRYoAZwY2a9x8wnyaGOI6vzS2ItuzoCF87dWPqMdc1U36hVkBEX1keYlvjiDRSxLEso0rLTZQLyG1uaKf0vOjh/R1WlsjnEy7JzlGLiR3qau4eCWY4UqTlJUa6u+q7wrPz1MgoXNTfPj/u8vqJaFWSHNEAmCXkugTPJ+9V9giFIhIT0Ym2qp0mP4/8fmV6Bp8kuiRPdUXlYHZJcfK5ziciXbay0lh1Si4hj08cyJTwRK6OrTUdXruDl7GuUCSh4qTqqjf7ZBIeuYSBV1LZP3mvUiaU8PgSORGp9LH1xooqfWFZdrHBtLWigvhEQl1hWbZyjiddoltaxZpIIs+5rW5zS93w1LpFKVxHs9nLCBji+Jq0HNGFKRfzmCJxupaM1Gm8rVbP1OAukUoj6BrQxglQcAHmiCCfzzcn3qjf75+cnLz081jr7kqxA+3Nhx0c67R7RHKpgFEk54ebdo3p16ZQl9Foii68O2eqS6LHXPfBfr7hBwVxrLlu2yGKFBERI1uWmy4fbW/udHAMcVzYslzVSOsFJ0yJYYicXcY6T/Y9gQT916yc55NLGY7lZMm56XGXa6fw+V//5cfQ0FBERIRQ+K26nQy6xv0Tlylv3gNPZHyvRvfvf///7kpZNNa0fzxldZLCeJU5Fxo70mgOyUpTn3ur8z/n4rUdadl/fPT0BBMmic9JW65wtrx34PhEqG5t3nIZEZ3u/Udz16ng2DxD7mKGiBv6fE/TUTZ0adbajAgicnV/vutg2G0/SJ2+Extpee+Aa3nuHclhgd/P7iDp/nxXh5t/0/Kighgh+ayfNRwQpn03yfnJR1+cG/ocHHVrWbrqkl1wb5IKZ3xo/uTkpN/vx2fPdavw+ht2WdSGAs3Zwe3OrkvkXFhLQ3P/BCfPLEwUE5F9/w6LZm2WPLAIhKiwUDO6t86qLcqSsx4PIxIxxA3t3WXVrs0SdO3qCDcUqAVsf0OjN71QJxpoqhtOLAqsK3FRwcHBC3Csisvrf6Ohv8fmIqLCpOh7b41DAYV5W/Ww7MjIiFI5M1mD0dFRHo8XHh5+De6fZ9b1uxuHb2xhfgDNPzPS3oGzTCZTVFRUVFTUNTr/AuvngrXuiARx6YY4oqG9O6zawkBCpN8UeIoRycVj5iEuJo4hIrfFSnLpdKUcmTj9XTCR+1DnmMZQeHbcqfrCExIRjZqHw6PJNMDJ4xiir1k5L9OQIiW2v2FXhz0uZw589dn6wr/X9NOY808/+0V4xX0fPxBItUw/2/R/33r/wZxC7+5/mEhV8i/f8e76y0fHafm/vP6P5wojzjvL8PYnv/Pr8MqOihL7Bz9+9MlqszA1bdE8/xf0WA9aRsNuLjAsotMeRhZIoQWHCFlbn2t5hoQcNstpQUjwdE6CtfcdD47Xxw739g/dEnHV45P5guDjve3HZLmLpyeNkKpXlMZwg711e08vNqTfLOMJL3fO39cd9X6lt++3pIoU3pN++axcX82WelIu4pPnhENiWF+cIPrychJKa82Wer5SST67zSvTycjt9zhOiLLLSnQSOtFRZWzzisjH05eUZcz38vT17R7rkdOaTM2VzCZ4keUhAjjWQ/xwhuwWh0wrJyKBSDTdqmJEAmIdI0ycVkBEAnkM7R/hdJoYTVinZZQiL5l06Rlw7eweWTjXYWKSRk+zo6envuOJl4eWZsTiDg9gzn2G97fUttmmfhHpDMXJSK4AACzEnAvWuvvmOArXKE+bB9g4tYCcluEwTTQ7dLG0TZjQbbE6lVrpJXs1ckOmEVlitqizI3C2K1k5TyCNZCwejmj2J98zf/XbHxpL3st/be//SSPjx1/dYazTntG272lj+W3/9rcjb31y4PE/rSn821/2PF14bhjReRr/9O9/s+f98aPNul2PfKdlfD7XOKKYxbJD/zx+6IuQpUmKqKnyExwZKxs9bjuZsZT6hiZuWhR5bOqOznvs+HDYTXcsi+Yfbf3iuC9m8dX9LwWHKVMUJw60HbIuOptnZYQiEQl5RCQME4V9zeCPL4ZPn5npnAtdSc8Zt0i3piSZT449W2r7fAnJX15OQr0ni+YAACAASURBVEnkFsWvKU7mezoq/mhNerxETa6WN7f2+XS6np0t8pKNhkVkq/1DXXdqeTKfFjSPhxWJL7zM3EhnXd2RqR1GKZGILro8BGs7UF9Pbiejyc1XMx7TaYH0vOQNO9R+mJblS4kb5hhBoCwzAsbHsUQisZTMbo4iL1WZjXn9puHTC/Oa3KlX3J0Wg9svgLn4Ga7OLr3sjCH85PKNCBMAwLzPuWCtu28lXKOyttpYtcZpHgnXpgpapnMuo4ea661EwUKVPkerzsn1dbTuOsRFJ2amayO/mnnhBkxjSr1cKlD5WqwedWB6hEuunDd1jNM2LIjRzJPejuq0vMUhSxbfFEKUlyWXShMVROPecaKL5Fycx46fIO13SrTqiJWZiv/TNK+rHMmyzOLYE8cOmj/fdvSm229NVxDRBCmVMYO9x2xRE8eCbyqQuaZyLqePHXFMnHLsev8LIgo+bDu9ePHVVnBRy5MTBvd37Lcv/SZv9mZF2Mz3c5FdQS9QsSzQBYgn4vn9X1lO4twOIt70ChE8Id/n95Nj0O627a6yE5GXx4v1fmXCwwXXQBAJPG4P0ZcqKSY6tfD8sUVEF18eQqBMM2RJ+xvqhokh4ojobG9sbvRQc7cozaAWEXEChuNYIhERx06lXxiGJi5b0wp5OkXYwrkOwcFBivCQOJlIFyNWRoTg3gsAAACQc5mzsNbdtyTWaKjR4haOjikSI8/riRKZmGvQnm23CCK1WYVazmlqbGwPW5tz4ZgP1to37GFb64aJ84ySxa1NFBBdeuU8j+VAw2gwCeTJuTrxvCmKwq88uBTp4psW0a5/GM15qbtbh9l5XeN47H1OkkmUyTfZBw/bB72kICJigmWLb5po2X9oQnjT7bLgg4F9R473jYlvLkxNEBKd7m9uON7nWKwhIvKzbs9pIoYRCEVERJx3/LQ7mJhgvuArjTlBREqOemhX7yH+BN10te/2XwvjZ8N8Ll9ZTuLSJHJ5hPiOMgylP3v9lRpBXdeANu+yE0VdZnkIEqjTNYebTe6ixDAha3OSVk7c6KHGTi45P0UeGDcZraAOO6tVC1j7ECnSGSLOOUphisskkJPiJMvVEbg+AAAAAMi5zDFY6+7bt1FUCfy65k6RJl9KrPWyuzLS6HBm6Ks5Ao/FzKUXFWlFRMRa6usszsTAlMOXWDlPpEkrSJEu4H/D/B//r+/tffIndxavuCtDJ7DO67/19HFz174z48QLjVanLZUQBYZSBUcuXkRfHJekx0jINdUKPjx0RqRcrAiTEJFUIRccP3ZkVBVGNHGy7cM9RESLlt15h4iI3L1ttb1EJIgvXLnkq8U0+ub0m080fOGfsz0+LlxO4nI5l4w1GTU1b1bw+cQTpxaW6hf8hC4ibW6mp6VxRzcjYAJTgIsvlnK59PIQRGJdaviO9n5tnia82zpKcq69vmNUJO9sHCYioSYzT6tLjWxqrLcw3ER0aq6YiBuynI7WReIOAwAAAADm27pF2Y7aik/sIplQKPI7KO+hW+3Ta91J0teVJEtO7Hmz2iRK+PJad+QxGStbPIvkEvLYbPw7NpbEdlf+sYUXKyOv3cHTrwvM51JtNJFMwiOXnVb8tCy2u6ayyS2RCSU8r0O+5v4VElNNRb1bpi8sy5aYjFv3OGb3WndDe3dYtWun5tBt2BFYt6juUHRhTgw30LDtcNzaQq3I2bWjS7Y278J1izRjza1WjhEwxAm1mVkaKfOlEzoP7eoIM0yvUMQNNO2y6QojO/fyDQVqxr5/W6u4cG2i2GOqa2byC7WCqVe/opzLrFm3CBYErFsEX+I2N7RTVoH2a+YBch6q7wq7/FrRWDYCYH5bqOsWwRyAD6D5AesWzaxrvW7RvMm5zCysdTdLzfWci/0fv/jNP04EHieU/tdPCjG4YFZDzgVwywsA3wByLoAPILimkHOZWVgr+lrAWndwY8i/86vffgdhmMssL//o70VvPL0MkQAAgDnRwJ6FOReO486cOSORzMyEhx6PJzg4OCQkhGVZv98fGhqK634ZQUFBCALAdbYwcy5Y6w4Artrh95/5a0vH4d7Dzwzd8v2XNt6CiAAAwOwWHBw8C99VIOcSETEzvX1ZluXxeKGhoRMTE+Pj4zOVygEAmLGqGCEAALgSy+59QONcevdSZ8QDDyDhAgAAAAAAX4uHEAAAXBnNdzf/IibCO0QYPQsAAAAAAF8PORcAgCskjIkRElEMIgEAAAAAAFcAY4sAAAAAAAAAAGYe+rkAXIRcxGBtRcDM/gAAAAAA8G3MmZwLj4f0EAAAAAAAAADMGRhbBAAAAAAAAAAw85BzAQAAAAAAAACYeci5AAAAAAAAAADMPORcAAAAAAAAAABmHnIuAAAAAAAAAAAzDzkXAAAAAAAAAICZhwWYAb4BX3flW47ijStk1/yVHHu2fLJoY5lurkaKHWhvPuzgWKfdI5JLBYwiOT/ctGtMvzaFuoxGU3Th3TkxDBERecx1H+znG35QEMea67YdokgRETGyZbnp8tH25k4HxxDHhS3LVY20XnDClBiGyNllrPNk35MlJyJizXVV+/n59xSoBYF30d/wQaMvq6xQK+hvqDrgk0sZjuVkybnpcaLZF7O+mi2m7I3Fymv+Qp62impaf3+GaI4WLqe56YDFy7rtTkYeKWKEmrQUT3NH+NoC9aULgHP/tsYRsVRAxAhVaXk68eihplarj2GIE2pydWxrp43j3HanQB4pYMKXZGepRcT2N2w7EldSqBUREdn3f7BrWFdSkiKdehddRqNJUXRPltzZZayziiNFHMvyNZl5ukgGVSUAAADAQoecC8A14zNVGX1lpcnX4twn9lT16MoMi2Z7DARx6YY4oqG9O6zawkBCpN8UeIoRycVj5iEuJo4hIrfFSnLpdCM1MjG/UBtoLpP7UOeYxlComfqV1BeekIho1DwcHk2mAU4exxARMfJIX5+NVWsERMTaLD752V3F2kxDipTY/oZdHfa4HPncLFzXsgC42qqa5GXF6tkeA6k2z6Alj6muhck3aAVE5Oyafu7SBUCgyjxXcFhzp1WeW5Qonj7OUJhIzq4dXbLCvLjpfWyWCQVjsbi1U7tJ5QKbeTQlPXKq5Ank04cz0cmGAjWRs2tHq0U1laQBAAAAgAUMOReAb8PRUVPb4yePw6MruX+FzFpf3TTI4xFJUksKJW31JhOvpsahL16RcK7x5Wl7s5LKH8oQEfUbt3SmbiyJ7a58vV2ilpHPdcKbULI+exHZ9rxnNPFkEh45vLSIiMjWUrW7j8jjIP268oTBun0mh7XGnZRXohd1G7e2OHh8H8UXr1+h5M+V2HEUrlGeNg+wcWoBOS3DYZpoduhiaZswodtidSq1UsElTzVkGpElZos6OwJnI+KEGtWExeLR6ETksfQzKiVjveC00kjG4uGIZmtnBF9ffXWLnfwOlzCvvCxZaGuprjMRj0dCXaGBd14BOD/v0l35B3vhTw2LiBx7ttTKNpbL69/cal+kFPk8Drcoe12JTkKOtqqqNq9EJhS6HD49EblMtcY2F/kdHvkd5cVy6yctpqOSGo8uoySd115dayK+zyPLLitJlsyd/8yvLwCBJEmYkLVY7dpE+SULl9tintBkLxlotowmpkQSEVG0VjZiGuJyYhhuyDym0ITbnF8+Rhwexo6wRMi5AAAAACDnAgDfnExfWq4n8vXVvN4+uCLdZOKllpfrp5qm+iT5oKz0Svq5+L2y1JISNZFjzxZjT+o6f21PfNnGFTLymSpf6iAiImV2WXk2ka+j4i2TI2NFhqrFtrLUsIh8pqrdtPKR+9V8V8ubVe36h7LnUMM4XKOyttpYtcZpHgnXpgpapnMuo4ea661EwUKVPkerzsn1dbTuOsRFJ2amayO/2jjmBkxjSr1cKlD5WqwedaB3gVCVENxscesSyWITaDOZ7i83uTmnbVgQo5nFoz/4CYbyBCJytWzZ2udJVlu7PbrS+7NlgaTa2QLwdbxuXkJ5SYaIfKaqt5psukJHbYuo+JEyNd/Xb3zlEyIiia64XEdEtto/NFmpTJehlvNTS0vU5NizpVtX/lCGxNdX8/onfcmlCXPof/NSBYC1HaivFxAFRy/LSYmJycpnOw7UGdlwbVrWxTIvTouFn2AQxwjDO832lEg5EZFAplWaDw1xMTFDltPKFNWo9cs5F3bIelqmFaN+BAAAAADkXAC+BU9/2+5OO/HINegXESkL16U21VZU+OXpxYXJVzHZC08cEciUyBbJXDaXy+uV6WRERPyI2MBpXH17mnrcxCOHwx/rO+9Q9wm7y9aytaqFyE/8BA/RHMq5kFijoUaLWzg6pkiMPK8jQmRirkF7tv0riNRmFWo5p6mxsT1s7fQEMOdauNa+YQ/bWjdMnGeULG5tooCISBCnFdZZRhU0HKbVMY5zF81yoGE0mATy5FzdLG4W+xzdTU1HvTye3+72JRHJsksNe+qrK7ySpJVrMq58shehUCIRERHx5bH+NofP7XBJVLH8wIYIPhH5TnQ07bN6eTxPv9evOv9Y+6DD7a2t6iMiL0/k9xHx51DhukQBECjTDOcGpREjVacb1Hp3f1N9s6jIoLkg6zJqtrjHRI11R4j1OE0D6fI4IiImUqPytg+4OSurShfT6NndRw43NFiIEalzs2IwmwsAAAAAIOcC8C3YdhtNqkfKk/m+7krTUSLiL0o2lCXTifottSZduZKILtJO5fH9Li+RiDwOhzuwye8YtPtIxidbn10SK5F4hQ67gxJk5Dtld5OSqO8To13/k9IEvqvN1ucKHOP1ExGJF8ll7rx1xUr+nAyhQJXAr2vuFGnypcRaL7srI40OZ4bYr2z3WMxcelGRVkRErKW+zuJMDEw5zMRowztbWwXKzBSGzuVcRJq0gun5T2dxyqXHuJvW/LR4EZ2o7zMSEZEsYUVpwgpX25tV7bqHZNMF4Mv4PAps9jnsbpIRkdfrOOEgnYw8NivJEvhikrisdtIriRx2t09OrvatbaLyhwwSX7+xp4mIiMcjn5+IKCJWJpOUlOnn6BCZSxSAi+4qlscIjrDcBZu5IdOwIr8kkKIZbd/RNcBOzbos1qh89c2Hw5YZROelXCh6WUGBGjUjAAAAACDnAvDtyXUJnk/eq+wRCkUkJqITbVU7TX4e+f3K9Aw+SXRJnuqKysHskuLzZsIQ6bKVlcaqU3IJeXziQKaEJ3J1bK3p8NodvIx1hSIJFSdVV73ZJ5PwyCUMvJLK/sl7lTKhhMeXyIlIpY+tN1ZU6QvLsosNpq0VFcQnEuoKy7KVcyuGgjhtWOvhOJWI6Lx0yuihxjoLBdYt0ow1t1o5RsAQJ0zMjLuw94DTYuEvMUxlBQSqJeG7THZd5HSbO7qlVayJJPLMtbLFVyfJWoyVdglPwhOKJESubuPWdheP5/dL9CUSEp4rAOdf8fjspJbaKqNSQn5HoHoXCv3W+qoqr8vhWXRHmZL4ysLsHuOblRIJj+fl8eUkVCXxjVWV/RKhhMQ8PhHJk9R245tVqYaS7BLd1so3O/l84smzS4p1krkVxIsWANbaWjc2vW6RcqSp2exlBAxxfE1ajujClIt5TJE43ScmUqfxtlo9U2MFRSqNoGtAGydAPQgAAAAAlxbk8/kQBZhPhoaGIiIihELhtzmJ3++fnJy8Xm/5+q08DVeX9+DPfOehyclJv99//f6GE/VbmtQb59RELAtBcHAww2DwEcC8xbLsyMiIUjkz34KMjo7yeLzw8HDE5/LxOX36tMfjiY6ORgkEtHfgqphMpqioqKioqGt0fvRzAbjWPP0ttW22qV9EOkNxMpIrMFNsbcaW/qnMOT/hglWMAvyIEgAAAADAjYGcC8C1JlJnl152igd+cvlGhAm+EWVGSWnGZZ5fZNhYhigBAAAAANwYwQgBAAAAAAAAAMCMQ84FAAAAAAAAAGDmIecCAAAAAAAAADDzMJ8LAAAAzBO3bnodQQAiyk1S/e+fFCMOgIoL5hCZRLTzhfsQh/kH/VwAAAAAAAAAAGYe+rkAXATDMAgCXAtBQUE8HirehW5ychJBAAAAAFgIcOsPcPGGMYIAKF2AMgAAAAAA3wbGFgEAAAAAAAAAzDzkXAAAAAAAAAAAZh5yLgAAAAAAAAAAMw85FwAAAAAAgPlDIJJoFBJxYOrO8x8DwHWHfz4AAACAy9wrRRQVRJs+/cKCUADAXKiUojKKKx+OjyYaadhW3pNU+eMl0UQjnxtL/mplET2A6w79XAAAAAAuSRCf9uS6pTp8SwUAc6NSYpZnqqKdRx7/f/9SXjWsy4yPPnP03579S3kVEi4ANwbuIAAAAGChiFqS/fyG5IwYhh06uvmVhpANP3o+fO89Lxyw8G5+9aXVmk//XmLk7npw9SZ9tMR3xtLR9PhOwbM/WhbNp/965SfPfm5c+dfh5asKnimKXxrKHTUdeOGNA20epujRh57l93zI16yPDz15tPO11tAN627WkKv+3Y9+3uYiXsRdG1ZvyoyW+MYONjb8fKtVkH/PB6uGX2iMePROyWevvve7o7gsAHCZ5lrEZSulU0UPrH5MH6Xkc0e79//HXw/adAWbknnEj3/+mfCdex3Lk3gUqnr26ZLq16peQW0DcCOgnwsAAAAsDCLNkz9Oz/AdffHPn73c+IVp9GL7xKduyoywGLdtfKOpumNk8KS1umeMaPjll/7+iNEmiM/5z7J4QU/T4+/2uuJzXtqgERMRkSRZE/35Z48bT0bp0p/JZ1979bOdY7I1pak6Is2q1c9kjr/7yt8ffNemXLN6UxJDRCExqc+sYlo/76wfwlUBgMu6bKVE5DrY2vnin7Y9+MYXdEvOpkyRy9pbbyVyHn35jT3Vrd07j/vJaX35jd3VqG0AbhD0cwEAAICFIUadEepve7fhf9o4IiISLP/qPsO2g87k20tu3/T5gdc+OkV+so1x5Bu3HT1p8pMmU6Gkk5u39tSPMaRPemmJeilZiYic1uq9tjbFUVupwrW3s/6oa/xowXf1AgmJlMnRIXz/o5vueZQohHiamFDyEdFY9Z8+/N1xXBIA+DqXrZRIpFyTn7ZeJ5EQIyAeiULY0eHeMT+Fug4eOWEiUo4RRblMR04MIpIANwhyLgAAALCA7nrGL9jIFwiIKFwk5hMR0dgXTzzvKLoz57GCla/rJD94vuWKzuwZdxEREUvEnvEHHpxzsvfxlw5YiIj87JhHcBsReQbP4HoAwBW4bKWkyc977Bam+qV3Xjge/+pLq2IRLoDZB2OLAAAAYGE4bjP5eLlrCr6XcfP31i2/TcSNeMYpSr0+R/O9kuSlgX0Umg360MG9+9/qHqcoiZJHrjGO+BG336YxLJFYevqPUtSGsqSinJwf6niuI/29X/OSnoPdIxQV/y+3RERLI5bfEq8LxWUAgKtx2UqJQhkiotAIw5rk5YgVwKyEnAsAAAAsDJ4vNr/R3Rt+87MP3/5YUjgR17Zzb/NYxPoNq9bzj+60+omI+BLDuuK3n/3ek/GunVWtzX4a/GfnZydD12xY/WSmRHC89edvf8EuyfuvDUslR9sfr7K4v+41LZ/W/luDQ3NnydtPFz+ZE00+XAYAuBqXrZRsDa07hyTrf7T20fAjH/b5ES2AWSjI58OHP8wrQ0NDERERQqEQoQAAWGhu3fQ6ggBElJuk+t8/Kb5Rr86y7MjIiFKpnJGzjY6O8ni88PDweXN1rlF8Tp8+7fF4oqOjUXHBHCWTiHa+cB/aO9efyWSKioqKioq6RudHPxcAAAAAAAAAgJmHnAsAAAAAAAAAwMxDzgUAAAAAAAAAYOYh5wIAAAAAAAAAMPOQcwEAAAAAAAAAmHnIuQAAAAAAAAAAzDzkXAAAAAAAAAAAZh5yLgAAAAAAAAAAM4+HEAAAAMA8MDk5+fJPixEHICI+j0EQYK5AxQUwvyHnAgAAAPNExs0xCAIQUVBQEIIAqLgAYDbA2CIAAAAAAAAAgJmHnAsAAAAAAAAAwMxDzgUAAAAAAAAAYOYh5wIAAAAAMJMYBpP4Xm9BQUHBwWjaAGoY+Ca1xzU9PyomAAAAAIAZMzk5OTExgThcZ36/H3MnwwLh8/mQdpnZSpvHu4aLCyHnAgAAAAAwY1iWFQqFiMN1Nj4+LhAIEAfyDvXua9jXccxLRKcCD08hKvMsQeDz+fh8PkIxIyYmJiYmJkJCQq7dSyDnAgAAAHDD9L66MnbZU/vO29KwMTY058VehGbOOnPmjFgsRhyucyuUZdmwsLAFH4ljr65JTFtz7933bm7orZh6+FzjeUmXoYq7Y2Mf2O5FnTNnud1uiUSCOMwUu91+TTu5EBEPUQYAAAC4qI6nbrnX+/LhVwqu3UssXf/y+/mK1LkQDdZ+qLm5Y2CMY8IiNZmGHKnZ+OEBR7Aqv8ygERBx/Q1Vu4/5wpPvvDs9kohotH3bR91j/MWrygriGCLWXPd+M5d7b5F2qi+Cff8HtVZV8T1Z8sDvAw1/+3RM/92SFJG57v1mW7Ai++4inZhooOm9el/ODxL639t97NyInXOvM7ucOnUqJCQEX0FfZ6OjoxEREQvjbz326sqchicH/37XxZ707mvoHE99dufWh1MjGjfe69Q9XFv77K0x54Um5q7fvL9UeCs6Yk3VQYdPn/2Vn7D6npjuqWrK02X88ICDr8q/26AREWupq9orLLxHY9726bBq9d05MYzbtGvbfsq628C0XPaQmM73m4fPvWZ0ZunaxG+Rkp2cnHS5XEqlEpdvRkxMTLjd7mudrkU/FwAAAFggvB1/fiAnXhYqi122cfupXWe/29331LLQZU/tIzq2fWNOvCxUJovPearBVPH9db839b9RHBp6d8Wpc8fe8v0X950iou3fl8Xf/cDdt8TKZPE5G597as0yWagsfs2L+7xENLTrqTXLYmWy2GVrnms4RbT9+7JlG198amV87Perzv+CmXrfebB43eZ9RMeqNubEymTxKzd3zs7ocbbOdiujLfxuSVFuqlYuCjRShMyQ2cYSEWvtszHnjajhhg6Z2cVpy0S2wxbP1d+h8oUC+/5mk/vcprice9aXFifLiJTZpaXri1JmYcJlbGwsODh4wTT+Z4VAEzQsLGzednI51fDUymUyWags/paN203bN655br/TeG9oaM6rx8jb8NzKZbGBeunVDu9Qxb2PGcep8xdr0h7c+MBj1eNk+v3daRs/Pr/OGap+rHjNUx9750Cdc83J9WvXl343U0EUnXZn6fq7p/O/Z5MwQsa6v+W8CkwQl5Wt4sytJic70N5hl+qzdeKvO0RjWF9aumpJGAkX55eWrjfovkXCxev1Hj9+PDY2Fv/4M8LpdJrN5vj4+Gv9QujnAgAAAAtD76uPPrY95Fc7D5VJT5Eionf7V+5n91VUdUrL3q/9VSqNK3SLn73vd8Z38msPvVIg7H0x57Ht0t/UH1rd+Vzxow88V3D4FSIa3ue978ChZ39nMPy+Kmvr3qNPPJ227vcV+55M9T794O+HH/588FnabDBs3Lz+cAFRf9U7w799+f38/It+wdzw4tPvDOe/tve3S7c/sKZxfBaGj4nWxAn3WjoPSZNTtHEiIpYoWKxUkdVs9WiUNtNQpErlMY8E9mYHDlsZTWFiosNmNFnc2qv9YlegStc59rY3m5SFUy1pRiASCTgRQ8GMUCwWXfboiYkJu91+feISFBQ0OTnJcZzP5wsJCQkNDXW73TN4/vHxcb/fP59W5PH7/X6//1tGKSgoiOO48fFxt9stFovn8wQ6ne+8s3989Wufv1wgHJfqFmc9mfrOU4r3B/9+l5CIpPf99v1/TV3c/5zBsPl3DT/76/svb4990PnyoZ33x9B2kt177Nf/3P2zxTQ365xrTyASCRgRE0wkEIlFgVrtnGCxNl1h3bu/xaLIPXuEOjs9Ztv+xl0CpyBxbaL06w9hBCKxQMQQkeBray6igYGBi5b2iYkJjuMmJyfDwsJGRkbwef4taw+WZcfHx4ODg7Va7XWoXZFzAQAAgIXhWOcxWvzwXbcuXkyLieirsxcI73r25fse+8UDadsXr//N+1vun95MRMdMx2jxE6v1i5cuXq17tNrUO0QRRKQrujUmQpqqoBBhQUFExDGdgraPe2nYdMxJx/68LvEdIq+QUgMdy1N/9puH74q5+Hs7dax/mHR33bV0cYT3VsXmxtkYP7HWcI9iwNzV2bytS5G/tkBKRCTVaMcazVY7ax6V61JFXebAvh7L4QHf6Ynadw8TEXlMo4npV5d04Sg8MVdvNbY3m9KvvvvC5OTk+Ph1bUQyDBMaGhpIkczsmQMNrev851xTHMcF0iXf5iSBZlJYWBjDMNd6LoYbrODZLf967KnHbktUrP71X9//mZqE09USeTuqf/fcnzudIXRqmLzeq4roXKhzbnxOJlqfq7PV7m+xppzdJtJm6g992OpJWKWPZK7skKvAsuyl0gTBwcEMw8ynquAG5lwYhomKigoPD78+r4icCwAAACwMi1MVtL1h+75jQumxYeGtwhAhHdu3r/fYcFVj/1QrRHjrr3Ye+tX2B9Ie3PznJ+5/WCok7/DwsaEh6dJUXUjVx9v3lVHvdhMpShbHkJOIhDS90sGXVjxQ6BZLyXnf27W/Log41XuMltL+P081ki4hYrFaQcbt23sLUj/eNzwr76lZu8XGhsuUiYl2W6PVOkrSQCZGpZW2dzW6WWWmSjDSFdjXaTbZRQkrC1OkRKy5eZf50JA+i4iI87jdbgExjEAkIiLiWI/b7Q50YvlKGkOakqu3GNvbR4lirjoDctNNN82PYjs6Osrj8a5b2+B6lCSW9fv9UVFRM3I2r9c7zyuuIa/6Z9v++WzDYznrNv+54We/IqJx57HeoSFFROfvnnrn2H31//y196mc4neu7rRzoM6ZFVkXeXruMlvt/g7+BKmmtknDejU8LAAAIABJREFUwoOJIqXMlR9yxa7DOBe4/jCfCwAAACwMSx9++VcFw78zJCYaHqs6Rrc+/MRq6ceP5hieHtZlhRARner83d1pkZEJGxsVJU8+vJSWrr4vX/jxg7fc9tjHIQ9vefku5+/XJOY8bUr91du/vvysusKi37z9xOKP702MDI1Ne/DPpitoFBY8+Zv10sZHcwxPmxRLQ2Zj+DjPQFfzDmPNh3uHRUty9HHT28UqrdxzmlNp4wTTTRC7yeRgFJo4qVQqlcq1CrHXeniAJSIaOfBRTU1NTfWurtFAg7lvd01NTU3NB80D3EVeU5qSq5dyvgkUXli4+t95MCc2Unnvdlr9xMO3Uszq+0rU+55OS7v3nWOpZfelOt9ZE294lVLVV3ve2V/nzA6MPD17icDnu7aHwLwW5ENpgPllaGgoIiJiPg/rBQCAi5mcnPT7/YgDEFFQUNC8GW8yL/u5jIyMzNTCK/MgPjPbHPN6vTR1H3zeQ5gjsOTZDTE4OCiTya7dPwvGFgEAAABcR71VT/3uYycREYXc+vBvH8airQAwY85rN049HNr+3C+2T61WrFv/myeLsK4WwHWFfi4w33ybfi63bnodAZzT9r3yCIIAsGChnwucu8FFP5dZDP1cLoDmGJyFfi43xLXu54L5XAAAAAAAAAAAZh5yLgAAAAAAAAAAM2/me10++9anH7ebEdkFDkM8AAAAAAAAYIFDPxcAAAAAAAAAgJmHnAsAAAAAAAAAwMzDWtEAAAAwTwQH48skICKanJxEEAAVFwDMBsi5AAAAwDwxMTGBIAARBQUFIQiAigvmHIZhEIT5B1lVgKsgiF/+6i8f+vzlh/6nfOn3Hv3B/zygEhNT9Ogj7b/M1l3tuSJVG3IWia/miKglSd9bIsJVAAAAAAAAmBOQcwG4ckzGqpzc8JHX3vj0hU/7TT3W+m4X+03PpSvI25SvkFzFEZI16/I2JIfiMgAAAAAAAMwJGFsEcKXE8UvXx/OILzHkqG1bT7IKiWYslMh1dofY/Hs+WDP2bnf4XbdFhZy0vrZzIGNNVm4UZ/n8059VWk+ed6oo/R0vrZGF0IqP/rii+c9v/Kwj9K4NqzdlRkt8YwcbG36+1aZcX/Z2Ib21ueoVSq18OkfQ8OFv+fmbEnghCd9vXzP84rMfvDuKCwIAAAAAADCrzdZ+LryIolU3a3B9YDYJ4THkI/J5TEdHTnoYjS7+dp1EcME+UUsM1PnEGz22mPgny+IPVtW+0E1LC7LWRH5pN9fRns+sREOd/7r575t7WM2q1c9kjr/7yt8ffNemXLN6UxId3NpQfVK2oTzvmbLMpWOHX/hooKux9yCRrfXjH2z+9EMkXAAAAAAAAGa9WZpzEcSnPbluqQ69cGA2OXmkZ+eQn8YGqnf1tI1dai/H9k+/ONhx9KCTxo/2VPfYPmsdGSdB1JeHBLFjDouP6MyY5fjJQY9oeXJ0CF/x6KZ73n7wZiWFaGJCyW97+d3DroTk9Tp2Z1VTm4fcQy6Xj+ikw3T8lBsXAwAAAIBoYmIC6/4AwGx2I7IavIi7NqzalKmQ0JneT3ds3OoxPLD6MX2Uks8d7d7/H389eDA86aUfLYvm03+98pNnPzeu/Ovw8lWr/uNOVfzZHUj5wx/d/n/pwiV8IqJx06cl/31UuargmaL4paHcUdOBF9440OZhih596ElP0yv81CeTHHUnE9bx23/wfIuJFj3xv763/uTukv/uOYnrDzOPZX1E5Cci8vjdRIIrPO5k7+MvHbAQEfnZMQ8RhYSHhhARMRIRJjAHAAAAuIiJiQk+n484AMCsdQOywppVq5+/TWIyfvzLd9v/p/sUS66DrZ0v/mnbg298QbfkbMoU0Ulrdc8Y0fDLL/39EaNNEJ/zn2WKwa3b7vnvvYPxK/7zzihNft5jOtfL/77lnpoR8vW/8KdeV3zOf5bFC3qaHn+31xWf89IGTWA5mOjb8jZFjny4s2fb3hGKUecqiG6Kz43yH2w9ioQL3FAc6/FTVNztek2Ggj3YPUJR8f9yS0S0NGL5LfG6UKLwm59Zp6Z/7tn8Ty63bGVROJF/nPWRJP5mg16lw+JFAAAAsOD5/f6JiYmQkJB5/nf6TnTU19a29DlcLg+uOsBMCwoKCgoKunbnv/79XETLk6NpqP3lXV+YpjYo1+SnrddJJMQIiEeiEPKfso1x5Bu3HT1p8pMmU6Gk0KiyuyuJiE8UI5sc5QLvXRBKRDROpFyiUNLJzVt76scY0ie9tES9lKxERGe++OV/f/a5nyhS0rlupSFZUs9Tx/uG/9KB+gpuLLa5sbf3geQnf6TY+fbff/5p7b9F3f7YnSVvh/pHrL2//Fxw24a820OHX6w6+D/ErfmPlU+WaZrfsFY3DmesSv/PcsWLv7GaUIQBAGZBS8hUU+26ozzj3Cp0nraKalp/f8ZCTY7bD9V32jjObXcK5JECJnxJdhbt3zGmX5tCXcYdNl1JkU5MRDTaXmdWGTSWXYcUhQVqARE3tHeXRVWU7q1vpPxCrXP/B/Wn00sMGhER0UBT3Zg+W9TVaj7NeUbtnFQuFvBVqQW6SJTBhW1sbCw8PHze/5m2uuqe2PXFCXzb7lr/yjK9BFf+bI1rqmuk7Klqhez7d5hURXkxDLH9DduOxJUUakWB7dsaR6SRIo5lGVVabqJcQMTaD+3vtHkZIpYLW5afI+raYdGszZITEZGza0eXbG1eXOA1zLuMA8vuKVAzRET9DVUHvHKpgGNZviY7TydlyHmo/lBYbo5aQETksdQbDynWrk0Uc/0N2zp9UhERE74sOyvGvb/RosrPikH/9YXnBowtumCohSY/77FbmOqX3nnhePyrL62KvfhBI+/+d221k4iI9Zw5SWeqV9397OaHxp2ndr7bVO8h5SVr4jMn/URENHp0+9G8J/Wp3+NFjx/9tHkMlx6+AW7Xa6/vmnp86i8v/PEvRER0bmPjB+mNgUcnXvi3P74QSK60fXRb20XOdbKjofyJhrO/7qr8cFfleU+/8Xb61KOejY/1BB61bf2gaCuuAgDADOk3VtlXlmV8m+YLX1dajkCeT55oKEwMNFgKpxos/VNPMaJIMjUfUhQlSqe3yFN03fVdo3Hpke5Dnae1uXEMmafPJJayXS0WxVTWhYjEmhyDhqi/Ycfp9MJEMWK94NntdolEIhQK5/sf6hq0kSyJzxPKdIXFdNl87ok9VT26MsOiBVMIRCoN02h16xLFRNyQeUSmTWeIiLVZJhSMxeLWTlUVAlWmIUtO5Oza0WrVFmpZU2OLc1lhYdzZcNov9RJui0WgYCxWVq0JNGPF2mxDipTIvt/YMaAtiLF22BTphYHn2P4OC0UGHnO+CUVqYZ767HtNUXU3m9wxqL2Qc7n2PAePjtGaZY8VnfpwTLCUbNtDGSKi0AjDmuTlRCOBqmWMI37E7bdp2KGT9UdsNkpds0rV+ukpUiiihzu3U3xu+Ej1n/d+5uHcJ8+wRJae/qOlqRvKklzdsg06nqunv5co98uvW/+57ckNS7/L97e93Y+BRXDd/9WUP/xxZu7UcGO2fmvtu0cRFACA63wP0ldf3TTI4xFJUovT3bu7+zyeGnuSoVhtM25tcfBE5OEllazLWMQ/UV+xm2R+q0OW94OV1FRdb+XxfX65YX1xwpcaPL7uyrccxRtXyBxtVVVtXolMKHQ5fHqE+mI4RpacSQeaDynXns26iLSpih2tZrvWZpWlFomJ2LO7C5Spy0Zbms3Rhdqrb6FMTk6yLDs/4ub3+4lo3vw5ROTz+SYmJr7ZXxQUFOT3+71er8vlkslkCyDhQq6+jp5TXurp7hdmUF2lo3jjCt+5Cup7qfZtdSbi8UioKzTw6vaZHNYad1Jeif78vEtfzZZ6Ui7ik+eEQ2JYX5wgcnTU1Pb4yePw6EruX6Gk7so/tksSZOQ5YSOlTuR3k+eEQ3LHD4rV/BMdVcY2r4h8PH1JWcZsS+eIVBpBvdWdmCjm7BZHtDaHISK3xTyhyV4y0GwZTUw5vzccx3qIH86Q22ImnSHuSvojjpqswiW5cUdaLB7Nl0b3sx4PIxIxrM3iVaQFKil2oL1PnJrAHThNRMSyxIR9+b2qmMB7xecBci7Xmmnnxy8qVj1asiqXxpqrrK80tO7U377+R2uXt7Z/2BcVSJQM/rPzs1UFazasXt7wUXPl3sffFTxzZ97vM3njzuF3X+sUnBmz+VLXP1yynohovPntqp/tbf3526HPr8v7Lz131NT+eJXFTRd22zrZ0du8QX27r38nBhbBDbhjsv3l1Q//gjgAANxADpOJl1pePtUx35Oq7PYXl2ZIfKaq3bTykfvVfHK1vFnVqXsog7yOQSr8yf1KPtmMfxhM/7/uTxZ5uivfajnx04t9g+zrrm0RFT9Spub7+o2vfIJIXyLpwjEx6ZmyHc1diqKzXZQjU5KFxl3tkXl3y79868aRSJ2l79vVYlYYrrpdPTk5OTIyMj/CNj4+Hhwc7PV6501BmJiYGB8f/2YXKDBdbkhIiEqluqbzL8wekoSMVLnJm7ciWeLrntp2roJytNR7dKX3Z8sC3+tlqFpsK0svUku5Rbo1Jcl8cuzZUtvnS0iW6UvL9US+vprX2wdXKGPJ7xEnlZQkkGPPHyr9639asohO1G9pspLctbNFXrLRsIhstX+o604tT55lExYLVBpBvcWZmOg2O6J1ciIip8XCTzCIY4ThnWZ7SqSciFjbgfp6cjsZTW6+miG7mxOqLsy4sNbWurGpLiputzCTiIjs5uFwrV4c6ePXm526FCkRuc2t9SOc0ylMMeTJyT3sEYaLiYg4e8cRQXJ+JLt3ug7jxkxNTSYfJ1KlpGsjGRKEh3FmNxFyLsi5XHueE+++9t67534/9fPnv/j51OODvwv8HO194t97z6VpGj/7YeNn079F/PCXOcrWbQWVNjcv6odPf/9RfZRgr8u097PyvZ+d/1F93jCQwOs6LCdp/GTvZ0i5AAAALEDKwnWpTbUVFX55enFh8tl2vPuEQ6KK5RMRSWIX+TsdREKhMFap5BORz37C4XAZq3qI/B5h7MXbvW6Ha+oMfHlsBJZQuVz7KCY9M9zY3CFSnN2i1imljEpzsXX+RJrsFPOOZlNK2FW+THBwsFKpnB8hGx0d5fF482nWEpZlR0ZG5s0FuhHOVlAkyy417KmvrvBKklauybh0SMWyQFaGJ+L5/USe/rbdnXbikWvQH0g98GRyWWAHoYQnISLi88jvJ8eg3W3bXWUnIi+PF+slmm01nECZIKy3jsqcY4pEORHRqNniHhM11h0h1uM0DaTL44gEyjRDlrS/oW6YGCISiBmvl71gzguBKrPwvPlciIi4AZPVMzZWX0fkcXvMoynpkURibaYhRWCub/RMf8fPEBE32tFNy/LlDA1MnU+aWFiUSETkMdfXd8jWpmP+KeRc5tKntVLEI75AIhKExCgyw/2W1lNf2zcx6iZNRmbq+pgz9VX9blx2AACAhYi/KNlQlkwn6rfUmnTrifx+IiLxIpmnz056JZFr8ARPLiPynL1H4ssWyeS6dWW6y7UzxDKJyxo4g8Pu9skR6cvdx8VlZZq3NVtEWs3UFoZhmEvNKinSZqeYd7TbpHqM2AK4WCNOlrCiNGGFq+3NqnbdQzLye/1ff7Btt9GkeqQ8me/rrjRdfrS7RC6PEN9RtkI2m+sUjfBwazcpMiOJiBsyDSvySwLJk9H2HV0D7PQYIoE6XXO42eQuSpSqNGxzh12VJRdc7szsgPm0rnBtipQC03ybhric6apJkyzbdcCiNSjFIu+Yh+I8lhF2bKyx/jB5Rke5lvbw3PTp12X4wYEajj19mpGik8tC/nedQ068VdmtK1v90Uu8caejrfXjxz899bXH6Fatel4/3rbz4809LK46AADAQnSirWqnyc8jv1+ZnsHn+1MllZWVtuzC0mJDn7Giknh+P09fsk4SyLlMURcW922tqGjhE/FUeesNCRdJvvCTC7N7jG9WSiQ8npfHR87la1pI6qysPmP7Fe4t1mWnmHdYEDaAi3B1G7e2u3g8v1+iL5GQUB9bb6yo0heWZV+uG5Fcl+D55L3KHqFQ9HXjXCQZazJqat6s4POJJ04tLNXPwvl5mTitsOVAZHYg5WKe7u9CRJE6jbfV6kk+V52khu9o79cWqBPzk/e31u3iBAIiUqYaEi9yXo+1z6fJnpp9ionRKQ4cGuJU0y8q1yfSro4hVbpG0Gh1JyamFxUFnhloqhvTp8cJhroaDo9QcPCEj6LTciKJWJuFVaUh57IABfl8vpk947NvffpxuxmRXeD2vfLIjXrpoaGhiIiIbzan2q2bXse1Q8EDgDlqcnIyMNsoQFBQEI/Hmx9/C8YWzXsz3hyD64ob7Wo0yXJz4gSX383e3mhR5mbFXHa3wIxFcP3bjzKZLCQk5Bqdn4cQAwAAAFwZT39LbZtt6heRzlCcLENQAGCWsbUZW/qnMjn8hAtWMYKZxUSmGHKuYDd5ugGdIBco5FwAAAAArpBInV2qRhgAYFZTZpSUZiAMALMDci4A5zS99EMEYe5aIGtGAgAAAADAXBGMEADA/DA5OYkgAAAAAADA7IGcCwAAAAAAAADAzJv5sUW/ftDw/P0FiOwCNzk5iYEeAAAAAAAAsJDNfM5lcnISPfwBAADg+kO6H1ASAMUVAGYVzKELAAAA8wS+9QEAVFwAMKtgPhcAAAAAAAAAgJmHfi4AV+VUb8M+kzdCl6qmfqfi1qURCAkAAAAAAABcDPq5wHzDMMw1O7d336actOIHn3rsqXeqf1FsePDPvUQNm+JDb3mu98rPsWtjfOzdFUPnbep47pbQ+E0NuHYAAAAAAADzCfq5wHzj9/uvWdrlWMP+fsr61ZaXy25d7F2tcy5eTDR8lecQFjz7/vteXcycCahnoL2xxWQ/zTFhkbrcwnSm44Paw6eFCavvyYthiDzmXR80D09EZ5eu1YmJiBto+uDTPm/YsuJ7suRE5OwyftgRvvJfCtRT5xto+NunY/rvlqRIiYiINde938zl3luk9XQZPzzg4Kvy7/7/2bvfoDbOPF/0X2iprQ4Scmto/oiRIqNrxTJcMRYmosBg1SrBuJZMTCrshtp4tjZ3xls7O5MXZ/5U3ZqaebGpeTO7sy9md7J1PDmeO4e5l8zBN7ZPqAMh1r0yBI412HigwDjyishokQXylSLUTCstNb4vBBiM/2ViO/z5fV4hqftp8aj16Onf8zy/dls4yCFv90WN55XS8d8Nr6njooNtR+1aOs0JIYQQQgghWwDNcyHbSjabVRRFrVY/icI//tc3f/kxMP7LN3/YPT7+r3997MQ7N9a8PPDdPWWHv/GNujKeL/vaN37847/4WtkzfFndD/o/XV/Mhz840vLm6Sjwaf8PDu/h+bK6nwwkN2+ViqHxyZi2qvnrrR6Xw2JgAQBqDSLBqAJADAXirEa92pLI4ethZu+BCoSmZpXPfzS1hgmP+EPS6hOsxf1qW9uf7S2A5tnGtrZX3TYKuBBCCCGEEEK2iJ0cc4l2vlxW9o3303eeoSUeW14qlSosLHxChT/3nd/8yIFdL/3iDx98//l7bpEcn3v+d59cfMsWOP3Ox+19U75vloy/885g+p4bf/zzH/5y3PaW7+J/fml3evNWqdZoKWFigfHALcVQuhxyyTcYS5hIMKogGQqKpaaS1XlFUigwq7XZ7XYLG7kWlj93g6S1Ovexs2ujLgzLabUcA4DVaLUcx9BZTgghhBBCCNkiNuPaonT/CftPbH0Xv//ckz1O6Us/+91zmuc12+BjnBn4Py/cWFp9WFj55y+bgu/1hU0tr9Ri5L2+a4sFFS+2NpSyEKd6zwVKjjYbxs8NJm1//rLTgPjoud6AvuHlA6J3eQ1I7F67uNnh/34lcefi2Nj4mseyua5/FxcXP/vss9LSL3HZzrPPNz6ree7ZZ3cBTc+X7tY7SoDP0mngHqfZjRtzeO71F6uffW73i7Zd45v27NLbm18xzgTHxn3vTVg8R+sYABCspluDwdmoNigZD5qYWHARAJAMBuaWEnP//f+6AiB/Kiha7J/zaGxRdb0t0jfiD1dR+0wIeQIy82NDozc5m2u/oNHpOKoQQgghhDxJX8Y8l+j7Pziyr+yZZ/g9h/9pDLjR+Rdf28Pzz/B7Dn/3/SjG/vXIX/92bvwnB54p+0Y/EO3/wZF9ZTxftu/Ijwc+xacDPz6yb8++fXv4Z555puzwv46tbPAMv+/wd7tvAPj4n77GH/nBP/3F18q+9ub/fpjnj7wTBdID393zzJ7vDqydThA9/WbLkR98mN4iSzwepLzulVfbWip5wOhqa3u1ucqw/nW1Rp4eHo3emXXAWQ46S6TAlaAkBa8EpNLagxbuIbvo7Z5X29rqTWoU7vuztrZXGk2bK+CSTCZFUfxSAy4A1gRXHhrMK3m2BB9/+OHYjY8HBgKfbdqTS4wGQ3FFb6qylTILcxEx9yxjsJq4yKXhoGKyla6eCbFAIMnve/HrX//617/+Z3u18UAgvnyNkxFFURQlaXm5kSJJucfyxvVHrOCs38eGR8ZiS9RCE0Iet4j39FXe6drPRy70BVJUH2tIAW9/QFxt0Ed6h6IKACV28b2eieSd58+91+vz+bz9/b6pmAwASjx40dvv9Xq9/f0DQRGIjfSOxFZ/nid6h2aX/5ZnBrq9Qen+RYnBgYHgynuQZ4feOzcaB4DYxZ5z/V6v1+u7GBKB5IRvaEaij4zsFNNnTvZFqBo+T8P18NYGcmxqyOv1+rze/v6LM9L9Gy5Iwf7ugZmVLuvMQPe5/lxZA4GkAgDJKd/FmZWLJink6+6dEgEoMwPv9Xi9Xq/XNzIrQYmN+EaiCn1mO9HTn+eSfv+HJ35546XfXPmH59PJXdUAXvzRyaaTjl3v/6X9b//p9PcvfPOtl37e8vvX/+cf3qpGuv8bf/3LuW/+z5s/wk/d7hM/ffUXyXcGS340deHF7roDv6x96zvP9X+j5Zc3XvrdxR/pf/uXL5848XzjB88Dnw2e/vB7P/vN95+vvhH9P0509tx43fbbnjnb699sutd1cG6Jx898JxtH3mz5cGYrfowMy3GswjHIZzRa7YZRu3yhqlY9MTw8amldnTugtbmqgj2jXi+S+uqXrVog+ZBdGI7TQqMGwGnvcZD1/vjHP6bTT2PBTH5+/tLSkiRJBQUFJSUlW+lTq/77n/1vH/71j93u7vZG267N+z4Xw2OjFxfSUBcI+1x2A8QgAMBgtWonryiVNoGRc88os1OhRc5qLdXrAegtJez1YCBq0QJLkeEzZwCgxPVqcwGAhWsfnrkGQLP3xZeFjeez4HTtDX94PaMGIYQ8VqmbEfD71SoNb/O04EE/ZanL3UNCe4t559QNZ7Iwg2HRZtcCSjR4i7c6GUCJBhaLtIvBeJVzeTyHNR101wpAcqL3UtjqMUWHhmfN7mbLnWxb94uGyJHQUgkTConW5VzodxVliU8EOXtz7jUlNnY9o1/ubsiKtsrttrIrJdn3wjsVNzsNdEoTsmKmpzt2uL1Gt7P+63s3XA9tbaxyYNCf3OfxlK/+DsTudwgxFGJLmFBYNltybZDW6nJX6YHYSM/YrLWpNDwWKXF6cq/JM2MhLK/FVzJLJQ5Pw+rPCFdlmhwOiKV0MwiKuTx5czcCyV2Ol156rlSDUgDR/l/+9Kcfzny2Kz33GUrSaWiwC9DoNQAwF7iRxI13jtl/C6Q1cMw1/f33at0/de97R//s6//wzecx986N5C7HSy8+96zmpcaSn5/+/QyeB6B/8UdvtTcBcHzn1d0vd77zzrPvf1r7o29W3/MdbZUlHl+Awhob65899/8Mjwi21Sf19oO2QN81pvLP7/XNv+cunysUwrLsU/jX8vLyGIYxGAx5eXlP/mil37zwx2/m/mz6l0/+CAB4bsMfeOm/Jpb/Ov7BH4/fXchL/23l1eZ/uXjzX3J/nty0J4/W6n7Zuu7HrfaVvwIAVLUeXw7I1bXnnmlqX/Pflta1H68DgNXNljX91fo6KT2eK5+tav2r5S2Z0rpXcjvnGGpfOV5L7TUh5ItGXKbHrn6axtXJGU0NvF2JlhPVgc6ehAmxsM55rCHb1zOeVamgqjjs4f3+wCe6M5KtptVlXhMAnvedOhsrNnKQEvMqZ3tbpQ6JsTN9V7OQEpKt9fghY/jMSZ/aaEQmFknzNh5iVkrMc672VpsO82PdPZfTHDKq6tb2muLNd+3C+sKi3a5VYqFEkbWOAeRwMG2sdkj+QFSpK107wVWRJagLGTl8fdFy0PIolxBiKLhkce2dHQ7F7esm5C4XhVgowVtzgXglPjaJffsKJyMAIKcz+eq1B2dKLQXjoTgMFHQhO6oJC/T1XE4hm5CEFzpaTAn/aW8AKhU0Nk9r2ScXJqcl6Uxsv7ulkr+zT2ay61ejOjOPTGpeNLW8dsiojvi7L0wDUgLVxzpq+MmufxvVVfCQ5iMw2risCGk+oXvhtRazOhPxn+4LQJ2ReFd7a+WmDOfcq+F6eGsjhoKwucsfZXlpPBDW7K0vv+4PSRbb2h1kSWI4jpEjoXTJgVwbKM+OTmsdFcqVRQCQZTAF69+ricm9VzqZKebyhJU8a9Z/Nt79/seO59M3Pi0p+fAnP/9Q/5+nPmjqeflrb65Otfg0cOPGDb2+xPasHsnXf9P3VtPuTz++gefSH/5y/LlvfnD2e7bdmt0aDdK250o+G3j/w48dJe8Pzu2yVeciiZqVWQOapu/8/XN1P/95AE2/eP3Z+72jErz/4Ydj7RgfCHwGx/b8pNnyOtez5y6MTKmX2OXZIIzeoAUYvfbRd3lkGo3mqQRBtoRPB/71h79dDuaVvPSjt156luqEEEK+BLqKGocQSDccqtRlJpefk2ZSxjePuzlIY50JwfOtMC+rAAAgAElEQVQ3LcZchKXGLKgdba0b5rmkRZW5vdWlgzTW2XU1VenS8dVtHdVAZvrMr0ZvHjICIrfnSEulWhrr/Lfw/v/UakbKf+rsdMZmu/qBX2g94S5GpO9t76Sjo3KTzeZjTRbWF0ra7WIwUWQTAEjhYMZUrxekoitTs0qpOTd+fMXng5hkLPWNZkaakLmNc1/l8CXvwvJIryhqDgJAMhRSV7i1pZrC8WCsyiBsLCqwyC73SZJT4/Le+lJmLPcxKUz+4vTFoVBGYY12p01gwWj1CIoKDJRYneykJszW0mEDEOl7eygMPjEp2dqOu/hcQ6JzGCezLW0b57lk01rHkVazGpG+k/6bh9rMRld7hwvIjHX+OpCocSErafe3tlYg8dHbXdlXv91ajHnfyaEwzLy/Z9LW8UaNLjN95lfnpyvbKjblNc6GhuvhrQ1ioqIxcY/QcCEWnCu0VmsNGbUvmLRV6QGIwUu+W0oyqalyNwgQ5yRNoRbIzc5jKxsN8sXlAA+UhcDQUCCjcKYqp9XAgC0sUIIiQDEXirk8aZqX/vEXr//lD08csKPkxX/s+92Lr7/4zo//1m6vff1Fh34cAJ5vf91x+l+Pfe3D1383dfJnv/ne3/7wL+2/TELv+ObvfD8qKSkZ/7m74ucA9I7vnfO99Q+/+d7fnjhR99v07tr2X/zi9VLcWH+8517/++d/+rfjL/39S7vv8462yhKPL9wimetcz567cCPDPsldyEa7m75zsomqgRBCNmVHyGjbwwEAV32sJX3hdKdXYzvc4rrvmiKNRsfrAIBTqbKZLCDNXL4wHoMKqZvZXA9ey/Pq3Aba3ToAUGnUmWwWiZsxMXKhOwYgrVKVpYHNtoKSNVZofOE4n1wosQsAxFAwLmHYG4YixReWZ9azxgPuWv3MgHcODMBxrCRKAHvXRdBBT21uxkpyoncCAOLBkLjADXqvQ5aSgVmnUH53UQoAhgEgBsaSFXVV7Opcf87SdNQCAPLskHe08GhdKRgGlPSL7DCZ+bGh34fTKpU0k86awLva3B/5TnemdfsPH6kx3r+R0wo6da4lArJAavqjoasiVEgksmUZACpe4AFAxWl0Kh0AqFXIZoHYzYSY7uueBpBWcdnM5muz7tlwPUJrA1bLpNPyXS3XPRouZTYQlhYWfF5AEqXlRZZa60F3FRv0DUpYjvoyWJmd1ygwWEkEo7d7mu0AIAV9vjH+KK2GpJjL0/Rs+8mL7XeWUjx37tp3lv9cXmbR9NbFm2+tvNz81rnmlQfp97+x533HbyLX2nd/OvDdupcHfj+H55veOnftrbVBlu//4Y/fX9nh0+iNwQ9vfGZ+/TvNG1K5lH7zg+V1IltiicdDae1Hj9+5SYywuhhjZSUIwJrXrf0Aa20+fmfViH51qYhw/13KG147Tl8bQggh25DO7Go1u6TJrk7/nhM2FTLZR+g7RS70BEzf6qhUZya7Ap88uHxB2K19of0Qv3mrgC23aK5dmkTJQQOAZCiscR1tMufiIF5/SLLYVrsHTsu14YDYbDdaWO/ErLXhwZP0lWhgrqSxNXc5Ex/tnZiVV3a4U1SBRo4kYWXD4cU0M+ybhpyMS4mLhvq6lbVLzMqyZSUZR0EJTXIhO0lq9OxlruMNty4z03N1CAD4ikNtFYdSl091j9recALZ7CMUM32+J1b9d20V6tTlyPSDE4nvLuN5XWt79Wa/wdv6huuRWhu9ySIPj8VMtcIDB5bl2eCizXO0Sg9AiV7sD0SVlaXvnKWS778SsrqNWi69IKFcCt2SFxYGfdcgxeOKf7Sw3rlyXEadn2ut5MXF+68wIBRz2SQ0te2v2t5888CeHwK7zI3/+I+vP3iRRvrDNw9848OSpp/91x89DwDR93/8k/fncq/ZXv3Z95t30xlACCGEEECa7js9lFCpslns9/AQ9ptjPae6He7WQxUPuuAQbBXS+Xe7rmo03MOmi+tqjtScOXOqU62GSuvwtFUXb75aYMqtGv8Vg8sAIBaIFNrsy3ENrcXK+EKirWhlS63NUdg7OmNtstYflPyDvZMMy4Dh99U7y+8VcgmujEADMNgs6UthqfLuohoshZPhOJx2z9HcGFJsxBu21lm08cDQeETJz1/KLBU6XKWAEg0tFtlozJjsKBrTfnVPd9eMTqODVqVGarLn7GhKpcpmddWtOqjNDl1XV1fE9ZC2RbCZYuff7eI1OpVaJzzwiMWuVtvZrlPjajVUgqu1xbZZ8/OubbgerbVpMtsbK0cuefsVlgVgdLjt9/pZCE9nLC798kFKbSVXpqKKaeWgQrUd/WNRk9PCDoZFu93Z3Jx7ZXbIu1DtLGejEwPXbiE/fymDogN1BkCOhGTTAYq57EB5mUzm8ZaoKMrSEk333OlUKtVWzOfy2L8O5ClTq+leR4TsXLdv384+0jgv2azE4MAoapusDxlWT075JgpcDeYHbJaXl6dSqbZHrcTjcZVKVVhYuG0+Z1mWb926ZTQa6ZSn/ud2oMQnBgN8fV35g5MxKLHRwZCxvraUpa7sphONRnme37XrSaUZoZgLeSIo5kK+FPRDRchO9kRiLomxPt/0ys2PjXfdxYhsWhRz2cwo5vIk+5+Ryz3+meXy1BUNrZtxQh2hruwmQzEXsiVRzIXQDxUh5CmjeS7kTgeXYi6bGMVcqP9JqCu7qTzpmIuKqpiQtV00qgRCCCGEEEIIIY8FxVwIueP27dtUCYQQQgghhBBCHot8qgJCCCGEEEIIIYSQx+6JzHPJz6dQzk53+/ZtWqdDCCGEEEIIIWQneyIxF8qhS7ZN4jpCCCGEEEIIIeRPQxNSCCGEEELItkKTbQkhhGwSFHMhhBBCCCHbCiXFJ4QQsklQzIUQQgghhBBCCCHk8aOkG4T8KVJj3ee5Y2029coTmcmuXydaThziN/XbVmYG+m9VHXUaAADJif4rWrfbwkKJXTzn13paq/S553u8Ya2BgyIrfGW9s5wDlHhw5EpwEQwURW2tbyoK9Y4VHm0yAwCkoHcYjR4rCzy8KHlmaHixym1KjoxOS0Amo7YcrLPqmeREry/MalkwapOjyWZQZgbOjWf0HMAU7nPVloojgyFTY20pQ2cfIYQQQgghZGugmAshjy51uXtIaG8xA7rq9rb1z2wJTLm1cDIUh8EAIBkOayo8LAAlGlgs0i4G41XL0RimqNLdZAbkoNcbTJZXcTNDw7Nmd7NFu1JS8j5HeGhRysQ17PXoAbaqwcwxQHy0dyJqbSiXJc5a786FagBAySyVODwNq1XLVZkmhwNiqV1LJyIhhBBCCCFkS6C1RYQ8qlTgvD9w9cKZM/6ZTMp/qnMss/aZ1a0mezpPdXZ1nur6KJLZdP8DU2opnAvGACAeDBdYylkAcjiYNlZX8rcCUWX95pKksBwLOXx90VJteYRgx0OLiofmNKZSBmA4LjdjRVHAMABkGSy7tigZzNrH4EwmJhwW6UQkhBBCtrK8vDyGoWmrhJCdgua5bBaxi71BS3NdbuGEFPQOyq5muxZSsL9ndt8rTWYGAOSg99wUBC2jyEqBzVVn0QLS7MTItbkMA8jgHW6nIeQdXFnmAcwM9C5UH72zzENyvVIr3KcoJTYyGLY02pWp0WtxJT+TWTI6Gu0CIwW9vQHoWYApqWysMswODS/YG6sMO+7HUmerMQtqR1urGUjdvOuZzOQQAGQCfRdw+FvHzeqU/1T3aPUbLt3m+ieYUis/HopBYEJzhdZqBoAUDmZM9XpBKroyNauUmhlAuTXp810X40pJfWMVh6Qkc1rurpKUW+Ne7/XlgEocdjxKUcqMCIP1zqmjxCfGF62uUkABI4VHh6JKhjHsdVaVcwqUhcDQUCCjcKYqp9XAgC0sUIIiQBNdCCGEkK2LYRhKckwIoZgLedoEa9GlQFQpLWcAKRyCpV4LQAyF2BImFJbNluURf4O90W1locwO9E7FLLXMhG9cPujxCKsTAuT7HSEenCssQmBWEcqZexXFBccXTfUCw8nWWncVC4hT/ZdCVrdVlhnTQXcuVAMA5uoS76WwzW1h6WPbQJyPpSL+s91+IAt1hQRsspgLGMHCXwlFY5grtFQzAMRQMC5h2BuGIsUXwrLZsrwgqDw20j8lMwA4jpVECVj3iTNFDs/afC6PVtQ6yeDQFamysUoLgCmvO1oOAEpspH9kRmgy2z3NuUBO0Ocb41eS0BBCCCFkS8vPz8/Pz//ss8927dpFtUEI2fa+hJhLyt/ZOc2bdcik5rO2tvYaHqlAX8/lFLIJSXiho6Ui5Tt1NlZs5jKJeVFnFJDNZhLzWUdbezWP1GTPWX9Cpc5gT8urh4zq7RV0mYoq5eWMGA7DUs8BiAfCmr315df9IcliWzfNQE5nWI5FLBAqqDwqPELwQ4kGbvF2Fzc+NiuXm9mNRUmREExuDgDL5V5WFOSrGUAWwRnXlqU1GeVLEdmy84IuKhUy2Qc+oy0WeLHhWMsmPjWZUmvR+JUr4B1OBkAyFNa4juZmUokBrz8kWUpWojNV9knfRNzsNBgtrHdi1tpQzj2o5EcpSqtFWFSgZyCGhi7FrfW1pXedRgzLMVha+4Q6PxetkRcXGT1NciGEfAHTZ04GXCdajFQTG0kB7yBczbZcMxsb6Q2YmhtKmfWZ0REbOTd4S2/gFFlmTAfq7QK7Icm6VRrpDVmOLo/VJCd6J/ijDeUAIM8MnLte3uqxcvcpSgwOjMLZZNUCgDw71HOJc7/sNCB2sWd4gdMyYAqsB+ssyoRvotDVYOboU9uytFptMpksLi6mqvhiAt0n519YewuHmZ6T444TrY8l0+BMX9eMs+NQ8QMOt8XI0dHh8YTCQFEK9rnrzMmR9/rnbK0r7RuSEz09gZLm5VUB65YIIDmx5vYRdz+Ug8vrDGYG3r3EulvrSlkAcsg3rNQfwMiVUFoWY0lGMHCMxnKgwaqnU5diLk/+Vz1bdqTVXYxMoPvXY/M17mKdraXDBiDS9/ZQGBW70yLM7S0uXSbQ/c+XTf+po1Kdmez69WSi2hXb5As3vgiDtWRhYlYpN4RDjKWRAxALzhVaq7WGjNoXTNpyrUF8atgXluJi4UF3nR6zEjjthtkD8alBb2i5rpOwAIAyG1gwVgt61pTxhyWzldtQVGxKKVgbRBGDV+aMDjsDgJEjY0NJZBRthbParGWgLSyQ5iTsvJiLsN8c6znV7XC3Vt/9TEvu50dta3EHznZ2Qg1obJ5212bs2AsWXgwrDoEBEAtECm325XNIa7EyvpBYsrIhZ3GUTF0JiB6btf6g5B/snWRYBgy/r955j9DHoxVlKVmciirl2oBvKILS9LD3GsAYD7hNCxcvheT8/KWlJY3tYBWrRCeGrt1Cfv5SBkUH6gyAHAnJpgMUcyGEPGnzH3VftbW7d9rFIGeyMINh0WbXAko0eIu3Opl7ZEYHuzz3NTnReyls9ZiidydZh3S/y51IaKmECYVE63I29LuKssQngpy9OfeaEhu7ntEvr2uVFW2V221d7XbY98I7FTfTBMit65lnnslms/F43GCgT3HTMrd0mLfVPyQGxxcsbs/aKxi9wEZW27d4cI4VVpuyDUsEHo1eu3BpZLa5oXzlKHprg9sKKeD1M41rmjFCMZcnfVCe5wFAreGQzgKZ+bGh34fTKpU0k86aAGg0PK/LbcDrdGoAarUKyGyBhRtfMOiyODYbXwyzFjcHKLOBsLSw4PMCkiittAYGe73bKk30X8owDMBxkEQFd6VWMdjX5XMBIIen5yT5kncOihRHSLTa2buLAnAnnZk0M+SPVtQ3GBgAgrO5GQCQnOr3BwXP8owbZQd+X9TmlhPfzv1Z8cbx5Z+j1WdOAAB0ttbjts0eO6p95ZXVP5uFOy+wFnczABxtWjmXnEc9ub54aZW7tGpNGVWr2wCc1eMBYH2kouz74A8k3fbWv7KvP23r3Ja1j0urmkrXPFRiE6ECRz2NCxBCHoPMtO+0P4ZsIqVp6Giv1ET8p70BqFTQ2Dxulff3gUT4jLi/obV6bdxl+sxJH4zFakjzCZ371ZYKLjF2pu9qFlJCsrUeP2TEZNe/jeoqeEjzERhtXFaENJ/QvfBai1k9P9bdcznNIaOqbm2v2ZzhHM5kYX1h0W7XKrFQoshax6xkRndI/kBUWc45t9IqyxLUhYwcvr5oOfgoSdYhhoJLFtfe2eFQ3F5l2FgUYqEEb839kCjxsUns21c4GQEAOZ3JV689OFNqKRhfuQsf2aIKCwsXFhZu3bpVWFjIsnQl+iARf/eFaUBKoPpYR00xUpNnuodEjtdo0jHsASBN93Wdj3C8TpVNZHUOIDPZ1fmJSZf4BPuPtJturmt/EmPdPeNZlQqqisPHHOmh00M3VSpA52htrVx3ZbUyMXDD4bYqtkAjhsJJo1V/53wrsvK3cu2bEg0ulFgKI7l7c95/icCDMZzlgDE8PDIr5Kb3EYLNkc8lNXr2MtfxhluXmem5OvTAN7YFFm58EXqrKe2/EtZY3SwgzwYXbZ5c+lslerE/EFXqVroWelulxjs2a6krtZQsXAkky+36B8ZfpVBQcTY3WzkAcsjnDSXttruL0uuZxQUZAgtp9uJwuPwec3ZZlslFWsSFRc5A8w3In9apNze4/4TdGMHpFqj2CCGPhbrC3VEBIOU/eXZaqjSHJyVb23EXn+td1Jj8kcNt95jnInK2I62VaiQ+Otk3namo5KvbOqqBzPSZX43ePGQsQ1bS7m9trUDio7e7sq9+u7UY876TQ2EIqQ/8QusJdzEifW97Jx0dlZuyH8OaLKwvlLTbxWCiyCbgnpnRIUeu+HwQk4ylvtHMSBP3SLIOOXzJu7C8UFkUNQcBIBkKqSvc2lJN4XgwVmUQNhYVWGSXF5Amp8blvfWlzNhkrgwmf3H64lAoo7BGu9MmsGC0egQ3DjqRrRd2kSQpmUwuLS3l5eVls9kdWAkMwzx0so/R1d7hAjJjnb8OJGqKUxcuZA9967hNjYTv7S4A8/6+WPXxN2p0SF0+9aubAIDszYSu/fhxHaSxzrNr259j2fGE4Pmb5cupSF9A5ejoqH7AMPbM3YfbujEXc119ZuxS/5RSZD/otBpYACxvNQanokppaTS0aKwyxcNJ4N5LBB6NAq3NZQ95L84Y6ug7TjZPzEVj2q/u6e6a0Wl00Koe2AvZEgs3vkjQxWSUJ+L7GllACk9nLK7lQX2m1FZyZSqqrDbIbHm1dXJwKlle5Wy0jVzq7wfLAmrLwYZ7NQnJUEi9182t9Kj2FvYHYjbDXUUdtZiUSxHZWhIeHgxLhkW/NwgwfGWjXRkbub6A/PylJcZ0oI4DxHCENdXTgAQhhJAtKZOYHBr6JK1SZWNiZj/Au9rcH/lOd6Z1+w8fqbl/10LL56IyKk6VzQLSzOUL4zGokLqZzf3GqniBz22g0al0AKBWIZtF4mZMjFzojgFIq1RlaWBzjh2xxgqNLxznkwsldgH3yozOAqzxgLtWPzPgnQNznyTrYE0HPWvyuQBAPBgSF7hB73XIUjIw6xTK7y5KwfKMWzEwlqyoq2IRWy6OszQdtQCAPDvkHS08WlcKZn3mL7JlcRzHcZyiKEtLS0tLO/FDzc/Pf9gmqemPhq6KUCGRyJZlICUSqjJBDQC8kVfNA5/GINh0AKATirW5mItK2GPWAdjQ/nDVx1rSF053ejW2wy0us+eYY6ivszMrOFs8lfw9mqaNh9vKUReDtdZjVZKBwcHRgqN1DADGYDGlR2dFJSybnFrEAdxricDnGmzW2ly2oHckbL+7bSQUc3ladK7lRRmAufWEGQAOHT9xaO0m7hPt6zcAbO0nbMDWWLjxRYIuVa2vLf8EWd2eNS8YnEcbAMDjWf0uNx/N7WKp81jWlmH1rNnR3HQUAJrvLAMBU95wtPxeRWkrCwYnYian5zXr+nflbFo7N06enZgrcTRS4jpCCCFbM+RytecCjny7pRjzvukeAABfcait4lDq8qnuUdsbPLLpRxhuj1zoCZi+lcs5F/jkwV0fQditfaF98yeeZMstmmuXJlFy0IB7ZkZf6YKxZqfl2nBAbLY/WpJ1JRqYK2lszcVh4qO9E7Pyyg53iirQyJEkrGw4vJhmhn3TkJNxKXHRUF+3snaJWVmBoiTjKCihSS7bBsMwDLNzP89MJvOgl6fP98Sq/66tQp26HJlOARyvzU4nMuDVSMynsgB2C4jFJBg5SIlE+uHtj9nVanZJk12d/j0n3MWV7vZKzPtO9gVs95qDt/FwW/980xcVMlEZyLVCWosp4xu+VrDPzS2HXO6xRKDqc17T2V22oHdMMtTS15vQvaLJ2vantNZd+igdsjo3rU8khBCyVanN+3l/T1dMp9KpNJwOSE32nB1NqVTZrK66VQdNdZmvp7O7+iHTaQVbhXT+3a6rGg2Hh4yA6mqO1Jw5c6pTrYZK6/C0VW/a/LxMuVXjv2JwGXDvzOi2opUttTZHYe/ojLVpQ5L18nuFXILLU2cAwGCzpC+Fpcq7i2qwFE6G43DaPUdzCb9iI96wtc6ijQeGxiNKfv5SZqnQ4SoFlGhoschGyVzIziDYTLHz73bxGp1KrRMAmF84fLm7s9Ov06iy0JiAYleLcLqr86pOo8pKGt2D2x+b2Hd6KKFSZbPY7+HnL3d/EMiqkM0anTX3noC34XBbVnzKdymsMCwDRWM/WM4sR1jAmSzsxKx1NevtvZYIVNmg3Br3eq8DYIwOt3Hdw3vM/zfY663B3gSdvwRA3kMCq59fbnIg1ewOp1Kp8vLyttzbfuxfB/K0r6TUaqoEQnas27dv78x8ENuHGBwYRW3Tw1InJKd8EwUPvld0Xl6eSrVNRhbj8bhKpSosLKQTZLui/iehruyXKxqN8jy/a9euJ3VpTFVMCCGEELJB5HKPf2b5UkhdcdddjMiToLU2NT3CZnq7u4EqixBq9AjZGmieC3kiaJ4L+VLQ4AAhOxnNcyF3Org0z4VQ/5NQV5Y8GprnQsjT8wip48mmvtyiSiCEEEIIIYRsHhRzIeQOmqJFCCGEEEIIIeRxoVF9QgghhBBCCCGEkMfv8c9zycvLowUahBBCCCGEEEII2eEef8zl9u3btECDUNyNEEIIIYQQQsgOR/lcCCGEELJNbMVb5hE6EwidrlQJhGxjFHMhhBBCyDZB9y8jhFDDRQjZVGgBCCGEEEIIIYQQQsjjR/NcCPlTJD46eb74RLvtT9w9NdZ9njvWZlPff5NM4Mzp1AsdNbptVnPJ4NCVUFoWY0lGMHCMxnKgShr0hjg9B4AxOuoLpnxzdk+twECeGRpcMJmT0zPrtm+w6ukEJIQQQgghhGwBFHMh5Eugq25vu+cLmUB3T6a9rRJQ29o6tuO/rrc2uK2QAl4/0+i2sgCSE0yRw9NkXtlCawsNT8XdNmn0OudwmwXGvHfd9oQQQgghhBCyNVDMhZBHl4l89G5PQMXrVEikUQwA82PdPZfTHDKq6tb2Gi7Qc9afUqmAMtcxd4Vq/vLZnrG0Wg2h4bWG2Ls9CRNiYZ3z2GGx+6zm+PGyoVNnY8VGLiMlRM51rNWUGPIFAqozZxLVLS7p7K8TLScOaaZ9Z31hcJCw54VXD5kx2fWrUZ2ZRyY1L5paXjtkVG+zWuYsTovPP3QLXKVbYOisI4QQQgghhGxVFHMh5JGlxvuu7mk/cYhHJtD1z2MApLEP/ELrCXcxIn1veycdrsCMtuFv2iq43PaXey6XtZ44VJx7FJNmUsY3j7s5IOXPlZgWVRUdrTUcMoHuXw9FTrRU7xdu8m1tlUBmEgAw4+2L1XzruE0NabKrc2j+RAOyaa3jSKtZjUjfSf/NQ23mLV+xyq1Jn28ayC+oqK01c9CaLMzIaIGHIi6EEEIIIYSQrexLiLmk/KfOao4fr37yg/MzPSfHHSdat+oVqTw7OnwtocjJmMQJepYpqWy0LfoG0eixJkfe65+ztbZWLee1SE709ARKml+pFZITPWtSY7jt3MyI/9oCGCjgHQcNoSvBRUWKxxS9oGXVJkeTzQAkJ3q8kuuVWuFOWUWel+tKc9e7UtD73oja/VpT+cxA95WMoGcUWeEr653l3I77uqRiad7GA4B6dxkPAImbMTFyoTsGIK1SlaUrWo6lLvR0DsHkanHbUrE0byte83Uz2vasrzWNRqfjAEAtlGUvJzK4u1IziYSqTFADACeUYTwGQKUVdGoAUGmA7HaoWKao0n1nbRGU6FiwoNa+OB5IeuyUu4UQQgghhBCyVW3WeS53slo8ATM93bHD7Zs+Nylb7nSXA9GLvWGrJxcQkYMrL+oFNhKMVzkNABAPzrGCdvXydU1qjNjIpLyv2VO+Ml2g1G0BZgZ6F50e+8oO8eBcYRECs4qQ24zhBO1CMKqUljMAxFAYgn55f631oLtKD3lmoH8sVl4n7LSvi47XJGIJVPDIfBoTYQR0grBb+0L7If7ONtUt7dWZmZ5fnZ+2vSBoEpEEKvj7lphOJ+YTsPGQImHwFblAZDYDrIQk1YKAQCwDXg0pdhNl+4HYNq9lJTY2qexrtJZLcv+VoMlt1VJDTQj58q3kPg+fORlwnWgxbr//UAp4B+FqtmmXOxC9AVNzQymjxC6e82s9K8M8sZFzg7f0Bk6RZcZ0oN4usFDiwZErwUUwUBS1tb7JKo30hixHV4dyeif4ow3lACDPDJy7Xt7qsXL3KUoMDozC2WSc8/YGoGcBpqSysaqUkaMTw5O38hkFJQca7AZxwjdR6Gowc3Rekh1qpq9rxtlxqJhq4imKjZwbTuh5FhlZ0dhcDRYtZgZ6F6qPVq0OECrJUK41ZBQFhXsP1pq1kIPec1OMUAhkZJQ46qtKKTshxVyepoi/+8I0ICVQfaxjXSKMloqZ1awWhyrW/KLO+972Ct/uqAQQ6D4ZOXzCzfk7u6Z5ow5SIqFytLZV89J0X4er5l8AACAASURBVNf5CMfrVNlEVucAkJn2nfbHkE2kNA0dx/irFyanJelMbL+7pTKzLhnHVmq4iqz8rUBUqStllGhwocRSGEneYytOzybCs2KpWXu/RRpKNHCLt7u48bFZudzMAlBQaDEuBnMPk6G5AkuRHF0fDdIbmJCkADtt5YfO2bL/dPepaV6nQkoDALqaIzVnzpzqVKuh0jo8bXyg60IYKmSz+xvKoDO11pw9c6pTDQiHXm24R4kaTTbs6+5OpxJS8QvtRgC2/dLpzq6brlZPbgvj4Zays+92XVZlJexpOVa8LWMuyq1xr/c6AMbocCjjorXeyQKs7UCh91LI6LZQr5oQ8uX/Atwv9/m2wZkszGBYtNm1gBIN3uKtTgZQooHFIu3i6jAPwJoOumsFIDnReyls9ZiiQ8OzZnez5U6AXLrPEeRIaKmECYVE6/K4z11FWeITQc7erEUyzCy/kpMMjMcr3G4zK88MDAZNHpt9L7xTcfPKWyJkpzG3dGycyJ+63D0ktLeYqXqeFNZ4wF0rAMrsUO9EzHL38LMSGx0OCo2eOi0AiAHv4Kj2qFMLGOz1bisLiFP9/rC11EodW4q5PEVGV3uHC8iMdf46kKgxTq5NhMGvZrV4KClbdqTVXQxE+t4+H9h/ONIXqz7+Ro0OqcunfnUTANQV7o4KACn/ybPT2eMOh3Ey29JWo4M01rkuGUdH5dbJRsryVmNwKqqUlkZDi8YqUzycXLl8XZsaw9boCowO944zJY6DTrN+Q5BEmQ0sGKsFPWvK+MOSebkNKLSYwpcistmSDN4qtDpY/7qYi5KMzLGllp2YakNtPNRx4tC6p4qr296oXvOw4/i6V2va36hZffTG6ms61xvHAcwDZa62toq1exx649vLR+g4kftZPbS+zMrl54Fi94mtegXA2Tzulb/1Va2vVK15zdO0/AcjOJvdG7cnhJA/3frE5/xk17+N6ip4SPMRGG1cVoQ0n9C98FqLWb1uwKa9Essro7d30IX1hUW7XavEQokiax0DyOFg2ljtkPy5YZ61nQFZgrqQkcPXFy0HLY8yI1EMBZcsrr2zw6G4vcqwsSjEQgneKgCQRXBrZhLJiVtMuZUFwAqlGLml2CylloLxUBwGCrqQnWD6zEkfjMXqTGpeLHvhVbeZm16ecCdN950+HwGn1uw/VD3jD3yiOyPZajyq86fR8UYNt5ppoWyyq/MTky7xCfYfaXdk/af7AlBnJN7V3lqpowr+vJSMwuk3zlaJB+cK9zlXWkOtdW9BbyjurFrX1GkKaZYLxVyeqtT0R0NXRaiQSGTLMlifCOPz/As6Prd0gxc0qUT60xgEmw4AdEKx9iaATGJyaOiTtEqVjYmZ/Wt3vTsZx50VHVsAY7CY0qOzohKWTU4t4qvPr0+NwQq2umabHJvwDY9pj949IiSHp+ck+ZJ3DooUx52RJ63FgsGQqIkvlNgNTHg1vhW6MhDPBytU1ttowcfjkaUqIISQp+XuxOevIitp97e2ViDx0dtd2Ve/3VqMed/JoTDMFesGbKTKih1QPazJwvpCSbtdDCaKbAIAKRzMmOr1glR0ZWpWKTUzAOTIFZ8PYpKx1DeaGWlC5rQbBm3l8CXvQu7KQhFFzUEASIZC6gq3tlRTOB6MVRmEjUUFFll9rnfByJGxoSQyirbCWW1mZIVhc6UxLJNRZIDT6hEUFRgo1zrZEUTOdqS1Ug1prLPrcuKNlfG/GW9fyvU3b9hyX0HBLKgdba1mSJfv0eG8mdC1Hz+uAxIfnZy0dbxRo8tMn/nV+enKtgqq30ckR8YHBtRL6QWJP+DZmHFQksFxd9okhuMgSQCQDAwPzOZnFhYYW2M1NVoUc3maps/3xKr/rq1CnbocmU4B4IxrEmG4sT6rxTK1SpXNPZ1KJJYvVrOJmzFUG5G5OSPqKjW7JcRiEowcpEQiDSBztecCjny7pRjzvume3P+cze27MRnHlqK1mDK+4WsF+9zcnZDLfbpRhqJChJQNTUMoqDibm60cADnk84aS9qqVfleF2js8zlka9ZBXYy6c5UBTFeU0fXyK3SfaqRYIIeRp2TDWolLxAg8AKk6jU+lyXQ1ksw8asNnOQRdjhcYXjvPJhRK7AEAMBeMShr1hKFJ8ISybLezy7Hr9zIB3DgzAcawkSgB7V/TmoGdNPhcAiAdD4gI36L0OWUoGZp1C+d1FKQAYBgAEZ3Nzbuepfn9QcLOMosgABygr4ReGwRKd0GTH0PJ87oYKPJ+eTqx25BMJVZnwaAtVVMIec25GS+xmQkz3dU8DSKu4e1xvkfs3kY6mWgFQ4hPewaDBY13/MsdBWpN8QZEkhuOANPS2+iYrC8gzA95R/mitQFVJMZenRbCZYuff7eI1OpVaJwAzH61NhMFrV7JatKyd8cZXujRn3j0TFtRIQbNyvsb83d3ZdCKhOdxuU/OmFuF0V+dVnUaVlTQ6QG3ez/t7umI6lU6l4XSA2uzQdXV1RVyetruScVRvsUxUnMnCTsxay9d1dNamxnDz4f7xWwzLMgoKKl13f8GToZB6r5tb6R/tLewPxKqW5xix5daCS9fKTRwg0/eEEELIdnD3WEtm8n5bbhiw2SFXFOUWzbVLkyg5aACQDIU1rqNNZgaAGPD6Q5JlZSIya3Zarg0HxGa70cJ6J2atDQ++m6ESDcyVNLbmLjXio70Ts/LKDneKKtDIkSSsa3orLMtAAVNUgrGYbDWzciyKEicDKMk4CkpovJjsFOLyiHLqZkQlNAC5sAvH89nlOy0AgEqFTG5YWaXOptIABymREO8ua3cZz+ta26spqcifjGEZyPKGwWyDpWRhPCSW527/IAavp00HDCsfFgAwDCPLdGFFMZen0+HJZbJAZduJdela1ifC4O5ktViLr25/Y91a6hRUvKO1fc2dp7mKluPr58jVdJyoWReqqO749koh65NxbEaldUdLV/seVo8HAIRajwAAnNXzinXdVnenxhCaSzeUaG46mvtDb29uWtN8lDccLQcgeOpyD5teKc9tVnW0Yd1+hBBCyJaMudw11nL/+SsbBmx2yqVEuVXjv2JwGQDEApFCm33lzoUWK+MLibailS21Nkdh7+iMtclaf1DyD/ZOMiwDht9X7yy/V8gluDx1BgAMNkv6UliqvLuoBkvhZDgOgZsdHbm+gPz8pSXGdKCOA2NzGIYGfSFGWSpy1GsBJRpaLLJRMheyY2ikQF93IJ1KZG0tr/Grl/Hmwy9cPdt5yq+GZn9ru2O/OdZzqtvhbq1xGbt6uj8VdJAy2rtnsRS7Wm1nu06Nq9VQCa7WFhsldHlUcuSKz8cCsgzjgXotEIcY9HvnGIApsB6sszjrrSP+/hDD5u5bVF9rAGQgPjXsCwOKrGiqXeVUjztQXiaTebwlKoqytPTYpnumAr7zkyvRQeGuuxgBQGo5px1NittcVCpVXl7elnvbj/3rQJ4ytZqaAkJ2rtu3b2ezlCVrKxODA6OobXrYXT2SU76JggffKzovL0+lUm2PWonH4yqVqrCwkE6Q7eph/c/pbXuLekJd2c0hGo3yPL9r164ndWm8yf9/nc3d9sCEuiuzZgghhBBCyFamtTY1PcJmeru7gSqLEELI1qCiKiCEEEIIIYSQTami7QTdW4iQLYxiLoTcsRXXQxFCCCGEEEII2Zwo5kLImu+Dir4RhBBCCCGEEEIej3yqAkIIIYQQQgghhJDH7vHHXG7fvk3VSgghhBBCCCGEkB3u8a+koNUZhBBCCCGEEEIIIRQfIYQQQsh2cPv27fx8WjRNCNliqOEiZHujmAshhBBCtoO8vDxFUageCOhGhGRLWVpaokogOQzDUCVsPxRVJYQQQgghhBBCCHn8KOZCCCGEEEIIIYQQ8vhRzIUQQgghhBBCCCHk8aOYCyGEEEIIIZtUXl4epachhJCti2IuhBBCCCGEbFLZbJbua0MIIVsXteCEEEIIIYRsUp999hnLslQPhBCyRTE/+clPqBYIIYQQsg386bdcnek5OaipselXn0h8dLInXVP5lcfxtuY/6hrE//q/6B9wuC1GiU99NHjl30OhT/795u0Ss0Ga6Pm/P4oX276qzY3mSUHvf+v/j69UPVsIAEhO9PyPG7y9vAAA5KDXl/hqhWH5hqj3eRgfee9/XOcqLLvVADA75J01FC+ODl/+OHj18u+nZudmw/+RLXz2K9x93mBeXt72mBsiy3ImkyksLKRvNzVcX6DxeWay678Evlpj5rZd3UkB7//7/xVbv5KLSsZGev/AVJi1+ZBnBt67lK2oMKhzz5/7YDw6NxsMBGbkQqNQwABybOrixfHrM598Evj3ebXxq/Ifeq+ye3OtFJITvZcze82Fy+1Z/9kJ9b5n9fkAMDPQ7fs4Fg0HA4H/UIq++hVNPpJTvj9Ixq9iqveDyzOzM5/MLLdO0uzIwMj1/5gJ/YfCmw3q2MjAVcZUrn1gy0T3iv5SiKLIcZxKpXpC5auoigkhhBBCnqDiQx0t2+ofkkPjYaG+2a5deSLJcIJ2IRhVSssZAGIoDEG/euUQD84VFiEwqwjln+NqQquXJ/yhErdl5TJRa6lzW4CZgd5Fp+fOsbe3Tz/9lOd5+g6RL9b4ZLbtP8iZLMxgWLTZtYASDd7irU4GgBwJLZUwoZBoXW4qWNNBd60AJCd6L4WtHqscGPQn93k85athqNh9L8dDIbaECYVlsyUX2dFaXe4qPRAb6RmbtTaVhsciJU4Pi5jEWevdVaux9NjEJBwet8BIAd9IyNRkqTJNDgfE0p3SepE7KOZCCCGEkJ0i4u++MA1ICVQf66gplqb7us5HOF6nyiayOgeQiXz0bk9AxetUSKRRDGD6TOcYrxXD6T2ejkOqse6ey2kOGVV1a3sNF+g560+pVECZ65i77Kbv9NBNlQrQOVpbK3VrjjrvO3nBfKK9YsPhtiqmQCOHwjGrXVhZ8qKg0GJcDM7K5WYWydBcgaVIji6/FA3c4u0ubnws9+qjYo2OfXH/cLDIY92RVyjZbDYWiwmC8OSGXslWMb+u5SlO+Ts7pwWzLpuan9cYjepsNpOaT1e0dLiMSAX6ei6nkE1IwgsdLRWpXONj2r51w5ksrC8s2u1aJRZKFFnrcmHf4JLFtXd2OBS3VxnWbK3IEtSFDMRQEDZ3+aPM+4kHwpq99eXX/SHJYlu7gyxJDMcxciSULjmgBSDLWLsKULyV0JQ4GQBcUVE6EIel1GRicu+VzmmKuRBCCCGEbEtGV3uHC8iMdf46kKjBWF+s+vgbNTqkLp/61U0gNd53dU/7iUM8MoGufx5bjtPEVCdOHOcBaazTL7SecBcj0ve2d9LhCsxoG/6mrSLXC48EAipHR0e17v7XTf67Drd1Yy6ltY3y2BVvj1xoPVC7HHkptJjClyKy2ZIM3iq0Olh/LuaizAYWjNWCnjVl/GHJbH3kxQ0KOHNt9XS/P1ji1nzed3j79m1RFLdo9SqKIkmSoihFRUUUcCGQxj5Y1/J0mCFly5yt7mJEev65T/jWGzU6TJ85OR5xGY06W0uHDUCk7+2hMCp2b//qYU0W1hdK2u1iMFFkEwAgGQqpK9zaUk3heDBWZRAAyJErPh/EJGOpbzQziImKxnR3YySHL3kXckETRRQ1BwEAseBcobVaa8iofcGkrUoPQAxe8t1SkklNlbtBgDgnaQq1ABQwUnh0KKpkGMNeZ1W5ooBlc1P7WAayDIAtLFCCIkAxF4q5EEIIIYRsS6npj4auilAhkciWZfBpDIJNBwA6oVh7E0jF0ryNBwD17rKVBR28uSL3Z+JmTIxc6I4BSKtUZemKlmOpCz2dQzC5Wtw2o+eYY6ivszMrOFs8lbx649E3HG4rR130ZqfbXC3ODPmGuWY3DwBaiwWDIVETXyixG5jwylXM9JwkX/LOQZHiCIlW++fJBstZXFXB3uFAVcHnj7l89tlnW7JmGSY/P3/37t0ajYa+seReLQ8A1fKKM5VWq9PpAEDFIZsFMvNjQ78Pp1UqaSadNe2M+mGNFRpfOM4nF0rsAgDEgyFxgRv0XocsJQOzTqEcYI0H3LX6mQHvHBgArJZJp2WAXR+9OeipFQAAyYneCQBQZgNhaWHB5wUkUQrGq5wGQGs96K5ig75BCcurJRkAYMrrjpYDgBIb6R+ZEZwMZFkBGECWwNISQYq5EEIIIYRsd9Pne2LVf9dWoU5djkyngN0CYjEJRg5SIpEGoOM1iVgCFTwyn8ZEGNfvrhOE3doX2g/d6TrrqlvaqzMzPb86P21rqyiudLdXYt53si9g66jcGHTZcLgtj9EKpex1WVm9YqlQe4fHOUujHnIu5iKFgoqzudnKAZBDPm8oabd9rkNwVldVsHc0oq+u/jy75efnf+UrX6FTnmwHG1qe1H03TY2evcx1vOHWZWZ6rg7tlApiyy2aa5cmUXLQAECJBuZKGltzwZP4aO/ErLyyhog1Oy3XhgNis11vssjDYzFTrfDAILA8G1y0eY5W6QEo0Yv9gahSt9I0WSr5/ishq9uo5dILEsrvzF1hWI7BErRFfDoUV8wCI91KsIIdgLy4yOhpkssORDEXQgghhOwMgs0UO/9uF6/RqdQ6ASh2tQinuzqv6jSqrKTRATpny/7T3aemeZ0KqQ2zDHQ1R2rOnDnVqVZDpXV42vhA14UwVMhm9zeUYf5y9weBrArZrNFZo77X4TccbssSg0PDwTTDMlDUlgN1HMSVSx9rwaVr5SYOkAHkpvjvda9c75j2FvYHYjYD4lOD3hAAht9XX4W7H95Fa3NVBXtDdPqSnerulqf6/gv0NKb96p7urhmdRgetSr1Taogpt2r8VwyuXMgluDLfBYDBZklfCkuVd5oTR2Hv6Iy1yWxvrBy55O1XWBaA0eG236NcKTydsbiWc+IypbaSK1NRZWX2ECNU29E/FjU5LexgWLTbEbp4KSTn5y8tLWlsB6tYoLoyPOzzAUq+6UADB8iRkGw6QDGXHSgvk8lQLRBCCCFkq7t9+3Y2m6V6IADy8vIoEwrZKuhybGtT4hODAb6+rvzBCyeV2OhgyFhfW/rAzdRqNdXo0xeNRnme37Vr15P6SaIvOSGEEEK2gU0Uc0mM9fmmpeUHxppWl5l60U8XxVzIFkKXY2QVxVy+FBRzIYQQQgh5OJrnQu50cCnmQrYOuhwjqyjm8qV40jGXfKpiQgghhBBCCCGEkMeOYi6EEEIIIYQQQgghjx/FXAghhBBCCCGEEEIeP4q5EEIIIYQQQgghhDx+FHMhhBBCCCGEEEIIefwoozshhBBCton8fBpMIgBw+/ZtqgRCDRchZDOgmAshhBBCtomlpSWqBAIgLy+PKoFQw0W2HIZhqBK2H4qqEkIIIYQQQgghhDx+FHMhhBBCCCGEEEIIefwo5kIIIYQQQgghhBDy+FHMhRBCCCGEEEIIITvRk04BRjEXQgghhBBCCCGE7ESKojzRsAvFXAghhBBCCCGEELITLS0tqdXqJ1c+xVwIIYQQQgghhBCy40iS9MwzzzzReS4qqmVCCCGEkDUygTOnUy901OioKu4nOdHjDWuLCrCUlvMtBxv+//bu77eJO98b+CeMZ+QRdtxxM/nh1F5jH+bBJIqFQx6jBKglVzRIlg5ZNdLmgotWKtLuxbk4f8D+CefmSHskVqIXuQiS0ZJK1pOUB+sYQvLgzQ822fzoDnUY2Rvnx7CZTWzOWGMPPBdOArRAe3q8bX68X1d4frofph/8ffs7Y8nJEBVXZqYWNOIY0zSPe892+R0MERmb8uSjXIlhGNM81nSqq72VJ1InRxTv5S5x53Dq5JdjT20Ojoixus/0SA4i0jN3EiunfnnRwxARGZk78aWGy5dDToaIikvJ2fpoTyv+IgB+jMJs/C5/pU96+cW+9uD63cZr/dIRLYixMjPxtWYaW6rOiw6OaWq7UC/f2Q5ebneok39IPQvFIl6eiGhlPLkdvHB8JrkeuNQlMkSGcj+12R5xPBqjC1E/l71/c4qLxM41c0RkKKkJs/sMTT5SSkZR3WJEJ89YvWd6/A5cg/vI9vb2+++//w89BTIXAAAAAKKyHE+U+/vaiFipbwD1+B5MQ1vkooeINicT8yv+i57i0sQCdzYadTJEpGfvpyaPXzrXbK5MptfckaiHJyJzcz45ITuiku07h+PcZ6N7EQwRUVFRuCZGyRkeL1fdwsmtp2fVSyGRQfUBnartf3IMe7C/D5V8tQG1hiKtRGsPR3L+nU6UlXdX2hzGfFpp2kldiIjzBL1fp+XipQCvzi7RqaiTcnuHcti2pyZXLvW0crsL/D0RP+lyMs1ciPg5FHsfefHixerqamNjo8Xyj01FkLkAAADAUZFPx+8tE+kaBa8MdDaW8w9ujcoVlrWcON9TScmy5fZtLdgb1oe/0M53Pvm/ldhnYYFIe3A9Yb96VVpN3UrlLGy5IkY+6fXxKCcRkWmYHM8ztJVTOKkauBAR7wk0zMlrJJoZram9Z6dWjFPyUypXlALfe9hNOWc92d36OK3oXqm6+3Ep7FyamFEvv5bNABx2+nLq1viqxUJk74hF7dMvO5VtcTgxW+LZckUIx2JtwkZq8B4JlZwm9PyqV5QTw2nNwpbpRO8n512vPauikL4xbL16NUj5BzcTskWwW0grUSNq/Uacq+PUZnoi0xD178bFDqmjfmRGaRBlzRvu4sjY25jhvWdcuYnJFfHHTcQzDAMV/wlUKpVSqfRf//VfP0HgQshcAAAA4OhwhfsHwkTl2cEvZK2TXUjI0sBnO/cQaafFVaGvr42ovEBEttMhfnBhI3y+cWN2UQh/yue/Gl0NfXq1jdcXhr5Ib/wmcsQHKE+/vn9feV7aLh5vj4hEatG0NrzyFS5vY8plwzDLnO2VdIqzWo3NNw0pjPyjVIojOtZw6lx7M6dm1uv9QZuzzKYyW1K7g4hMOuYIhF0jYzNrlwO4lOHo0GTZ0jEwENy52TG426kK0zemW/qunReINlLXRxekAbGkrVL011ddLJXl+D368POrHraQvhGfCX4WfsO9koW50cUT/dfOC1SWh/5tFqV+M5N4T1dw+U460xSx7ixjmoPS3Jd3ZG805vj21jYpHFCSD7POcz+msT59ior/o7EsW1dXZ7VanU7nT3NGZC4AAABwRBSWH4wvFslCmlZpKZO6WnH1vPWhLbwUFr+YyYc75mSxs4ctL25oWiERXySq6NaW0pEvZsOpixc9RFSUkxNLwiWXjSmVDKLd2EUvmqzAcQZrbOlEu7GLUSpxNo5I//bRONeZyN78FXNFzunb26kkkV7UM5vtoZ3PxYwzGHYlJmacflzMcGS4olc6xkcHBytiqDfaJrzsZ2pJlKovG0V7QdVItFpbXNUZLcUNtZBPD8fTRBVifTrRmzIXtSRUj8C+1yKg0u/Ae8PtmZEJuf343hL/KZf8VGp+072ONiksZZKTucDLjviD/7ZdLlT78EHmAgAAAEfD8t2EGvx1n48tTOeXC0TviRZ1tUCul2ORSplobwo+6+t0pWbS+oYn3MsSCY2CKF3pl1gU8jUcxxiqSQ6310jLm+726vNclKWnDVKIGNMvLMxn9Ys7z3ORM+Tttr0hc3mVsZJ5JkUvV2e3rD28I6+Z53a/jGTEULgpMTZvui6g9HBEsI1tkf422khdH5WlAddupxJa7GpeI59AtKEW7KL91cGdrVEUij1Xel3valh2waqpGvkEKv9dLRIG++/C+8PtmZGZvCMY3GlGDPP2Z0s5AmEpk5zVnV2oHCBzAQAAgKNClNzq3ZtDgtVuYe0iUWO498Rw/MYiS3Tio6vnpdP6rcGh1XAsuruD53/7Ev+x2PFrFxGRJ9q7PDw4mGaJLO6eTyK+ox2+mE8XUqllItMw6890O4ko0H1qZiqZJI4xTTru7e5qZoiY1q7ws8mJ5OOd3y3q6N55gK6Rm0pu7/5QkfDqy0BzvuwN78zXZ5qlpkdLa+bLCeBMc+isKz9m4nqGI2JjOv6VXLFQpeIKdbJk3+tUvbHw7cTgkMVSqVh7YhGeNl7uxEq9EXl4cJBYIqsU7Q+/KVCxh3pP34rfWBbsFipYUenvYZPC7ZkR5Qdu7Qx0+zMjGsoGRFRXLpdRBQAAADjoXrx4UalUUAcgorq6up/gsYgANYHhGOxhWUylPITwrxEAAAAAAMChVZBTdxd251yIwd7z+OE1gJ8O5rkAAADAYYB5LvDyAy7mucDBgeEY7ME8l0PpGEoAAAAAAAAAAFBzyFwAAAAAAAAAAGoPmQsAAAAAAAAAQO0hcwEAAAAAAAAAqD08XQwAAAAOibq6OhQBcCUALlcA2D+QuQAAAMAh8eLFCxQBANC4AGD/wL1FAAAAAAAAAAC1h8wFAAAAAAAAAKD2kLkAAAAAAAAAANQeMhcAAAAAAAAAgNpD5gIAAAAAAAAAUHvIXAAAAAAAAAAAag+ZCwAAAAAAAABA7VlQAgAAAIAayyauz3Vci3kO5X+cOvnlhOZwcGSaJuvqOBcQueoKI3v/y8etsaifJ2NlZuJrzTS2VJ0XHRzT1HahXv7Do5LTxhAxx/1n/frUXN40i+oWJzo5pv5k2LueUryXuxyZZHySvfDLix5u96B/GCt39Uf9XPZ+/JUjnPPacKEB7CnMxu/yV/okFqV4d+8SOCobplUK93htROaWMvko84wYxjSp/uTZLo+NiMhYm3+4sF5mGMY0WVdHV0DkiLL3R7aDl9sdu33+DR1paz6R1MO/7BKJiIzMnfhSw+XLISdDRMWl5Gx9tKcVfw9HDjIXAAAAgO8Zy0zHx8X+3hokKNlEXP2wv9N+wAvCuc5EukQiMtTJ5Jh8ISrZiMjIK8+bGEUp+gM2rjUUaSVaeziS80erw4+sbPOHo3vDFYpEA7Q1PzIv7AxC1PWdFYzoLC/nDY+Xqx60LIq7+7x+BAB42Z3s6FyoFwAAHvlJREFUwf4+1OMH9i5zZXxkXvWec6ozExnxQvScjYioKCfHZmyXQ049M/ZIb4tGmzkiMtYeJh8q0Yte7juH+05H2sys1zeQvGKKrQwREefk1tOz6qWQyKD4RxcyFwAAADgiyhvTw4nZEsuS2POrHvVmQnOTmrOHrsR8aupWKmdhyxUx8kmvj9dmb48uVkjXdCl2NVi8m5af2G/rUmcsLOZe3/K1E+jLo0N387xgt1S0ir2DiPLp+L1lIl2j4JWBjkr63sKyrt9WT0d6PfnEcFqzsGU60fvJedcB/WqaE4MSJXNFKWCjopJ57g2fXJlQNgPtzv/BQU2r1/1cUXSvxJOuZBm3i8nh6oWj67U20tlI+vLorbt54lnr6fPB7F53Or06OGztPZG+Z786EOSJsonfpaXPY5bxt7eso8ssm7yDq2Ykp0K2vQjl5PERZTPEa4rpDTfvZCxcc8D96FHe8Hq/96hr8lMhEObnZleM1upMveNS2Lk0MaNe7hJR9SMLmQsAAAAcDYW5xHRL7Nr5xuorVc8WXP9yNcIT5RODq6FPr7bx+sLQF+mN30Qag30DQaLy8u3fz6yej3V6RLajL+YhyidGv7XlKyfYSI+qwaufddqpMH3j96tERK5w/0CYqDw7+IWsdZ7v6HAtVHr7Ou1lOX6PPvz8qoctpG/EZ4KfhQ/q1BfOajU3dSLblqKwvoit2Vo/l1HbnW8aXxQzU6mnDB075mq/KL0rlbG6fccmlKIUICXP+c8yC7n/7hEADo/X20hjITlaCH/6mVSNT8S97lRYJSIxGNSHFwvBTuvydN4TjqnJ3729ZR1BRn7u/n32eWlbF85EHURZg3j+5RQUhudJ18nQDc72SjzF85yhG9/b08wVedsVFB2cu5zO6R4/T2TSMUcg7BoZm1m7HMCljMwFAAAA4FBnLmpJkF4ZcFhc0gmeiKisbmhaIRFfJKro1pYS6dnpe3MqWaiwWnnta+HvbPmav6skSnYiIrvYaFslosLyg/HFIllI0yotZSLr3if1DbWQTw/H00QVYn060UHNXPRnJc7GE21mlOI2P5Z8TIa+Ja+EdmbWv8bmPxv5YXcGca1+a1LZbKL1436J0X7EEQAOTed6vY3ommZpEd86X8Xe0WkZWtQ6hGlV+tBTXr37jpZ1BHGujotdIpG5OZ8cyzij9Tzpukm0065MXWd4nvgSZ+g60e78F103OBv3hsO91pGM3PK6bkwl18nUN0kp+gPVXRhnMOxKTMw4/biYjyhkLgAAAHA02EWrltfIJ3x7BSs0CqJ0pX/32ZP50d/J7s8H2tjywpD8hIgsFipX3rTl694TSVV1cvGka1qJiJbvJtTgr/t8bGE6v1yofvCqVIiIbI2iUOy50us64I+71FdmM+SP2My1h+tNF2LV2fObMyPzezPrfySm2V8/NzXFuc62M6Th4oWj69tthBeEiqyWSag2j73utIs/3WkfTKf5wuneRmJL72pZRxjDMWQYJjm9TdtzSrHVX32eS+ZxyX3GSRzvZVJLa/6unee5LOWO+6Lf19B0JWOGLl3y80RkKKmkshWQds8mhsJNibF503UBpT+KkLkAAADA0WDviHUO374xyBKJ5z/peWWNJ9q7PDw4mGaJLO6eT3okn3735tCi1cpXv+cUT3vUxI14RyR2/vUtI75XRzKN4V7x1tDgot1qqehWO5EoudW7N4cEq93C2kUiYj0d9qGhoXw42tcbkYcHB4klskrR/rDrQJXSyD9KpTgyDdPqPXvBz5srM9tNgd3biZyStzS1M7P+NcVMOrn+A391iGn2N6SnbF4nkf7jjgBwKHynjXg+/GhxePBGmiXr6Vh/x153Cu7swJ4IC4nB4of/Iny3ub3eso6gnd5FhkGuM902Ymyhbv9k+o7CcNXfLeruchIR7+8+o0+OJb9mGDJN1n323E6G/FoLOvbqy//lUNiTkZ2mx7lP1t+R1Zc3QDLNobOu/JiJ6/lIqiuXy6gCAAAAHHQvXryoVCqoAxBRXV2dxYJvFuFgwHAM9rAsZiQdQvjXCAAAAODHyU8n0tmd4RLr64kFG1ETAAAAeAnzXAAAAOAwwDwXePkBF/Nc4ODAcAz2YJ7LoXQMJQAAAAAAAAAAqDlkLgAAAAAAAAAAtYfMBQAAAAAAAACg9pC5AAAAAAAAAADUHjIXAAAAAAAAAIDaQ+YCAAAAAIdKXV0digAAAPsBMhcAAAAAOFRevHiBIgAAwH6AzAUAAAAAAAAAoPaQuQAAAAAAAAAA1B4yFwAAAAAAAACA2kPmAgAAAAAAAABQe8hcAAAAAAAAAABqD5kLAAAAAAAAAEDtMb/97W9RBQAAADgEnj9//s71y7evpx2d/2T/h78RfXrw5qoUdLEHupxbmfGHjx7Lf/7jzDfra7ns6gvBkf/PP5ZO/sJhZJI37/z1PekXDoaIiIzs/XjiG/6Uz8lk78dTf1lbUZ48yW4ca/jAXlx6MPboG0V58s3qiyZ+feLhXOabP/9x5sn6Wjb7N0tTq4MlI3v/D1MVn89ZLVf2/s3EX7iT/verL0314fDwn8l3UtTnE/9nOr++kpHlv5rCB+/zb//qsK6u7tgxfLMIh6NxwTt6rZz8z781+t/niIhInRz5E+Pz2I59q6uok19+Nbe2vpKR5axR7xKPM0SGuvTw4dzj7JMn8jcbrOsD408ji9zJ1uPV5jc/Ml0+6amvniNzZ3iePfULx7Fqg4qn/qKu5TKy/Fez4YP3rcdoayn1J931gYMx1KWxr9KbTVILX+2Mm/LDiT8rf135W53YYvv75P1Fxt1qe2dnYhgGf6uHjwUlAAAAANiz8SC+KPVHGv8Rxy5Mx8fF/l7PwaiEw98T8ZMuJ9PMhYifI6Kt+b2BgegsL+cNj5cjIiOvlEVxd5XNH462O6p/NjKpnNh9KWDbXRmJBmhrfmReiPa07iwy8srzJkZRiv6dzRinSDmlKAVsRGSuZZ45xJ1RCNPQFrnoIdqaH5lS3FE/j8sV4Ejj3V5mLFftFuZa5qngDzFv6iqc+2ykS6z2jpw/6jfksfTWqWi0da+JqG87RVFRuCZGye20OyKbPxxpdxCpk4nZFf/F5txsvikU5UhXZmTO7eL1nR3Nlcm06o5GPNzOe213L0zIxeaX/RCOCmQuAAAAcLSUl1O30ipVtIK1Z6C/zZpP30rKZLGQVYpGLMk/ylrudvF0Tyz4au6yMPQ7NfqbSCOR9uD6qHBtQEzdGFYbXXxZ14p8+EpMspM2HY9Pl+yC1VrQykEiKsijiekCVTRd/GigV8zdTctP7Ld1qTMWsszcGpWJLetCuD/WZj9oNTStXvdzRdG9Ek+6kmXcLib3hs2Y41ZDyan+gMi9fUCTee4Nn1yZUDYD7c7qXm6/NadsBdodZKwohtttVczX9rHVHzeeGkTIXOAo+E7z8S2nbo2vWixE9o5YrM2ynLqVylnYckWMfNLr45dvD84KtmKudCIarYwOq40unnRtwxLq72uzkzZ7e3SxQrqmS7Gr512529dTrMtFZTVfEiSBihVd2+DD/THJThuz8cR0iaeyJRjr72zcl8Xh3V4ulSsGAjZTVbQG/znmzV1lp3EZOrH1DBWVDEmR1h/SQTblnPVkd+vjdLXdvWToOsPzjJFXSk1nbETEe8/1kDqpbO2ca03Zbgh4uFffq5upvldc1MhcAAAAAA4x1hcZ8BFRIX19eFlv8+QWdKnvalio3svS6U7nP+z7AfNcSkWLbyDWyVNZjn8xnpei2mia7/2838OWs4l/v0tEZJd6ByQiyo/+bjxH/VKnR2Q7+mIe0h5cX5AGPuu0l5dv//7ucluf78BV0er2HZtQilKAlDznP8ss7GYuxcxU6ilDx4652i9KzV0XjNlHyYRR7z/T9abkZUtRWF/E1mytn8uo7c7qbBmmyV8/kdlsD9nyiunpsmYzz17dx1jLPRP8GLbAUaXJsqVjYCBYzWrzidHV0KdX23h9YeiL9MZvIkR51XLt2lWBaGO0aPH0x8J20mcHhxYLbWG7EOwbCBKVl2//fmb1vIuoyJ/4uLeN1WcH/yN3+l9jHiqkbwwvlyVp8au0GLsWaaT86O+SCx0DbfvyZknO7eVSylYgUMxoDZL4lq5i5B+lUlTcYrzdFzwMqUXT6v524mLkppLb1R5lFovWs0REpGbW6/1Bm7PMpjJbUrtjt8WZW1vW9kiPSMV13Vr/pm5kPHvGmOuTD5cMgxxSqL2ZJ67+uJkpEqF5IXMBAAAAOMTK2sL4+JOSxVJRi+XTREK4L/IgdWuwZD/94cedrh8eOljtdp6IiBVbKtNauagV7O4WtrrgPZaIyhuz43/MlSwWPVuquF/dV13ViqXR+DIRlSx8pUx08B79wrX6rUlls4nWj/slRttbbvOfjezeW0TEODyhiCdYzI6nJvhLEe+3UpfNjFLc5seSj8nQt+SVkNjKEBExol+Yk9eKToXxX+DM7O7mT7++f18hhvd0dzXjqQdwVLmiVzrGRwcHK2KoNyqpG5pWSMQXiSq6taVERCR4fMJemxLsRES8xVIpV4j07PS9OZUsVFitVEMHmyCw1Q1s79mJiCxWtlypkLaqFvP34ioRlSyWltJ+7VKcy2dN5TaFre2mgPjmrkLEuc5EuhzZ+8l1YoiIszGlkkHEvZ7enI12VWPfrfmReSIic0XO6dvbqSSRXtQzm+0h506L4zKpMZ1273p8y1szuKZQKMCY6uSd2bXL55px6SJzAQAAADgCkcti4h59/JveRtpILSeIiEjwne/znS9M34jPSJ8JVClVvrsba6Hq4rKmFkkgolJJ29BIEkjP50jwsTayF3IqBV1Emlosi1SYGZ7mBz6L2MvZxOI4EZHFQuUKEdF7LYJgj/UHD/TNMUyzv35uaopznW1nSHv3pjaxmXtsmN9abK7J600XYtVhzubMyPyK0Vp92A0jSq5H6Yln9R0RhlnZ26Hh1MWLHlzDcLR8t/mwjW2R/jbaSF0flaWeRkGUrvRLe4nI8juGe/l7Cdn9+UAbW14Ykp+887R2UXzP9lH/eWG/14dr9Vq/nlqgprPOt3SVnUbLeULeryfk4qWAw+01JmZVd9fb73okIjJWMs+k6OV2BxGZaw/vyGvmuZ1VvLdNuPNI8UdcNr60rVPrd+au8A0NNoMYImJ2H4xrPHvGODDJBZkLAAAAwOEev3hOC+nEkGq32C1W3k5UWEgMzxQslkrFHozZyRpsSSUG48Fof/jVOS8nwqfTo/GEy04VrfrxyWqt5FLxeKmg6Y0f9buIdUXDi4kbQ3a7xVKysCJZ3afZRHwoa7fayWZhiUg87VETN+IdkVg4Jg0P3ZhjWbKI4VivZD+IpWSa/Q3pKZvXSaS/XFrMpJPrDBFz3H+23ZydyJQYjiGT9Z45x387csnsfjNNRE7JW5rK6Z6dkaPD6zYzRT+ms8CR953mszEd/0quWKhScYU6WY+vd3l4cDDNElncPZ9E3nmjoij59Ls3hxatVv777nCxd37cefv2jUGWJYutI9oXbNy3najVb00/coadb+sqbbtb2qSO+pGZrP+iJ3ChbXIqecfkOCJydUQCbziunlsue8OO3XYnNT1aWjN3ZywyYjBAd2bX3CEvN/bGh7Q429vWH6ZSRGbZKoWbiYy8YrjPIHM5gurK5TKqAAAAAAfdixcvKpXKT3e+jdT1cc+1A/ggliPxAbeuzmLBN4twMGA4drCZm/NjstB9rpV792bqzJji6u5qfudmLMuioocP/jUCAAAA+K78dCKd3RkKsb5v/YpRVQVVAgA42hhne+TcD9hMDEVEVOtowjwXAAAAOAx+6nkusJ8/4GKeCxwcGI7BHsxzOZSOoQQAAAAAAAAAADWHzAUAAAAAAAAAoPaQuQAAAAAAAAAA1B4yFwAAAAAAAACA2kPmAgAAAAAAAABQe3iiOwAAABwG+KkaADigvQtFADjE8NEEAAAAMHQBAPh5vHjxAkUAOMRwbxEAAAAAAAAAQO0hcwEAAAAAAAAAqD1kLgAAAAAAAAAAtYfMBQAAAAAAAACg9pC5AAAAAAAAAADUHjIXAAAAAAAAAIDaY37729+iCgAAAAAAAD+958+f79e3pk8P3lyVgi52375BOfmff2v0v88REZE6OfInxuexHSMje/8PUxWfz8lWl3/51dza+kpGlrNGvUs8zhAZ6tLDh3OPs0+eyN9ssK4PjD+NLHInW48TEdHW/Mh0+aSnvnqOzJ3hefbULxzHiIiy9+Opv6hruYws/9Vs+OB96zHaWkr9SXd94GCIiHQlNfz/9F+cFDnSVybvTz7+a1b5qyl4nKw6eX+Rcbfa3jnngWEY/B9x+FhQAgAAAAAAADhgeLeXGcsVpYCNyFzLPBX8IYaIjLzyvIlRlKI/YCMiIs59NtIlEm3Nj0zl/FG/IY+lt05Fo6387pHUt52iqChcE6PkDI+3muzY/OFIu4NInUzMrvgvNudm802haHWdkZ1VyLmTAM0vUEc0IjK6nJpU3Be97e6FCbnYvPOW4AhB5gIAAAAAALA/Ld++niJXI1subBRbPvok4uEpn47fWybSNQpeGejk5cRwumCxELWEr0RaVlO3xlctFiJ7R++JubjWe+28UEhf/7fZ4L9eC9s3UtfvuT698t7ccGK2xLPlihCOxdqEjdTgPRIqOU3o+VWvMBePT5fsgtVa0MrBfV0c3u3lUrliIGAzVUVr8J9jiKioZJ57wydXJpTNQLvzla1NQye2nqGikiEp8jJweYdNOWc92d36OK3oXunVHQxdZ3ieMfJKqelMNUYxVmaWbR0+89EzIio+1axNIYaI+IaGkrxJ3ma3m6m+V1zURwwyFwAAAAAAgP2qyEsfx9pY0mcHh6a1z84LrnD/QJioPDv4hax1uhaytp5P+3zVRCAvy5aOgYGgnYhIL/FDy4Xz0qJsP83LciEsPVm2S+HS3NB0S9+18wLRRur66II0IJa0VYr++qqLpfLCUJrv/bzfw5aziX+/u89rw7m9XErZCgSKGa1BEomIthSF9UVszdb6uYza7hSJyMg/SqWouMV4uy94GFKLptX97cTFyE0lt6tTVMxi0XqWiIjUzHq9P2hzltlUZktqdxBRMTOVempubVnbIz0iFdd1a72NiMhUZx9zbRecxsPqMUziuOqNQhxDhkFEXP1xM1MkQuZy1CBzAQAAAAAA2K9sgsASEfGCUFrWiCzLD8YXi2QhTau0lMnXe6VwLzE4Tu5wb0RyRa90jI8ODlbEUG+0zSfRaHajIls7YtJcQt6wyKx0hS+Ml0RJICKiRtFeUDUSrdYWV/W5LUWtYHe3sETEii3vsfu9OJzLZ03lNoWt7aaASES0mVGK2/xY8jEZ+pa8EhJbiTjXmUiXI3s/uU4MEXE2plQyiLjXDuQ+G+0SiYhoa35knojIXJFz+vZ2KkmkF/XMZnvISWTzn420c5nUmE47z15hiMjcnF2gUxdEhlZ2FjJkGCYRQ2ToxAm4jI8w/G4RAAAAAADAflVUVZ2IqLCat4gCLd9NqNLHvb29PVJ1xgTvCvb2X/1VuHj37jIR29gW6b96NWodH5XLwgmfPpeUraclQZIsi8m58gmfnYQWu5rXiIhoQy3YRTsR7X0ZbxPshdXq4000tVje99XhWr3W/NTCsyavk4jMNXm96UIsGo1Go5cj3u3MirG3oSfk1R7JRSKH22vIs6rxPUc2VjLPpOjl6rG6G9blNXN3Fe9tE3KPFJ14G1/a1ok2lafG9tdjqVRqbn0zk55ZYRqE0vqmSUT6U40THURkPHvGODDJ5QjCPBcAAAAAAID9yqrLo3G5VNAqUu+vBCpJbvXuzSHBarewdpEo+2DoXo4sVKmc7mmhjen4V3LFQpWKK9TJkl1qXB0vfPwJS6wklRPjvqhARMFY+HZicMhiqVSsPbEITxsvz8a2RcOLiRtDdrvFUrKw4r4vD9Pqt6YfOcPVyCWzO9+FiJyStzSV09t2t7RJHfUjM1n/RU/gQtvkVPKOyXFE5OqIBN5wXD23XPaGHTsnaZaaHi2tme7dk4rBAN2ZXXOHvNxYrhgIhC5dqq5ZGU9uB0OtPIltuYlUisg85j7TwxMZecVwn0HmcgTVlctlVAEAAAAAAOCn933DseXb1+XwtV4XKrU/mZvzY7LQfa6Ve/dm6syY4uruan7nZizLoqKHD+a5AAAAAAAAAPz3Mc72yLkfsJkYioio1tGEeS4AAAAAAAA/DwzHYA/muRxKeIYuAAAAAAAAAEDtIXMBAAAAAAAAAKg9ZC4AAAAAAAAAALWHzAUAAAAAAAAAoPaQuQAAAAAAAAAA1B5+KxoAAAAAAODncewYvgUHOMyQuQAAAAAAAPw8nj9/jiJAFcMwKMLhg1QVAAAAAAAAAKD2kLkAAAAAAAAAANQeMhcAAAAAAAAAgNpD5gIAAAAAAAAAUHvIXAAAAAAAAAAAag+ZCwAAAAAAAABA7eG3ogEAAAAAAPan5dvX5fC1Xtc//kzag+t3G6/1Swe7XupSai5vmkV1ixOdHFN/MuxdTyney13i1nwiITdE//lcc/UHmfVM8g+TbORXF1uNTPLLJXLyRMQIp7pD4ubMxJxmMmSax091u59Ofa2Zxpaq86KDY5raLrQ3M6Rn7iRWTv3yoochIsrevzlWCv3yksQTEZGpPvzyjhb458sBmzr55YTmcHCmYR6Xwue8NlzSRw4yFwAAAAAAgIMsm4irH/Z32v8Bhy5Mx8fF/l7PAamEGIhEA7Q1PzIvRHtaiYjU9Z1VDC/atjNrZnMrQ0RFJUeig9lZ5wxciPq56p+LS3Pb3kjUu/OSPJFWorWHIzl/tEvcWVZUFK6JUXKGp7oZ4xQppxSlgI2IzLXMM4e4e2jOdSbSJZK59nBkJuveCWngCEHmAgAAAAAAsL8V5NHEdIEqmi5+NNDr1tK3kjJZLGSVorGWJ/cWlnX9tno60tsmvNxHn74xRAOfdfJE2cT1uY5rscrt6ylyNbLlwkax5aNPIh6+nH9wMyFbBLuFtBI1EpE2e3t0sUK6pkuxq8Hi3bT8xH5blzpjYTGXupXKWdhyRYx80uvjD1gJTar3up5lVoxWD0dbyvpxb4Ox9obtuOPWopLbcvkd3NsOtSnnrCe7Wx+nFd1bndvCuP3WnLIVaHeQsaIYbrdVMV/bhXGKfKlkEPG4mI8YZC4AAAAAAAD7m13qHZCIKD/6u/EcCdqCLvVdDQtsdWWHa6HS2/dD5rkUeenjWBtL+uzg0LT2WXB5dPFE/7XzApXloX+bJSISgn0DQaLy8u3fz6yej3V6RLajL+YhyidGV0OfXm3j9YWhL9Ibv4k0Hrgq1nvduam84fFuZZ7W+zu49G7msrk0kcoRHbO6g+f8nnPd5dmpO0tmQ+BsyO/8bvKiZtbr/UGbs8ymMltSu4OIiGny109kNttDtrxierqs2cyz1wufy5kNHQhcjiBkLgAAAAAAAPtaeWN2/I+5ksWiZ0sVNwnhvsiD1K3Bkv30hx93/nce9mITqjkNLwilZY0KakmQBCIi9r0WgYhIz07fm1PJQoXVymsJQVnd0LRCIr5IVNGtLaUDWUeb10tjStG6ud0UcDK5veXOQHfEvxeucE5/V9RvbsljYzPHL+8+AGaXuSLn9O3tVJJIL+qZzfaQk4iIEf3CnLxWdCqM/wJnZnc3N/Jz9++zxDh93UEnruQjCJkLAAAAAADAflaYGZ7mBz6L2MvZxOI4EZHgO9/nO1+YvhGfkT4LEVUqbxrssZVCiYgnXdOK1UVFVdXJxVNhNW8Re8guWDVVI59A5b+rRXJR/l5Cdn8+0MaWF4bkJ0RksVC5QkTECo2CKF3pl9iDXEnO7WOTE3O894KDjNw7N2UcDfXMmvHtxcZK5pkUvdzuICJz7eEdec08V91elFyP0hPP6jsiDLPy8oyujot7z4GBIwiZCwAAAAAAwH5mdZ9mE/GhrN1qJ5uFpcJCYnimYLFUKvZgzE6sp8M+NDSUD0f7gq/c8MNLYddQIv530U562VaNSqy6PBqXSwWtIvX+SiA21Hv6VvzGsmC3UMFKRKLk0+/eHFq0WnmyERGJpz1q4ka8IxI7H+1dHh4cTLNEFnfPJxHfgQxfuFb/8amvW9080StxyubSWFKh6u8WebcnpnImwzFkWgNnW7/1zFs9t1z2hh3VF0yz1PRoac10V186vG4zU/Q34zG58Iq6crmMKgAAAAAAAPz0ftrh2E/3y9PwI7AsiyIcPpjnAgAAAAAAcAjkpxPp7E6Gw/p6YsFG1ATgZ4Z5LgAAAAAAAD8PDMdgD+a5HErHUAIAAAAAAAAAgJpD5gIAAAAAAAAAUHvIXAAAAAAAAAAAag+ZCwAAAAAAAABA7SFzAQAAAAAAAACoPfxWNAAAAAAAwM+jrq4ORQBcCYcYMhcAAAAAAICfaTxmwYgM4DDDvUUAAAAAAAAAALWHzAUAAAAAAAAAoPaQuQAAAAAAAAAA1B4yFwAAAAAAAACA2kPmAgAAAAAAAABQe8hcAAAAAAAAAABqD5kLAAAAAAAAAEDtIXMBAAAAAAAAAKi9/w+CX1AOfXMSTgAAAABJRU5ErkJggg==;clipPath=inset(0% 51.33% 53.36% 17.67%);" vertex="1" parent="1">
          <mxGeometry x="10" y="70" width="470" height="351.23" as="geometry" />
        </mxCell>
        <mxCell id="PggwrddvNXkIzDLoVm9X-295" value="&lt;div style=&quot;text-align: justify;&quot;&gt;&lt;span style=&quot;background-color: initial;&quot;&gt;&lt;font style=&quot;font-size: 24px;&quot;&gt;Special Features&lt;/font&gt;&lt;/span&gt;&lt;/div&gt;&lt;div style=&quot;text-align: justify;&quot;&gt;&lt;br&gt;&lt;/div&gt;&lt;div style=&quot;text-align: justify;&quot;&gt;&lt;b&gt;&lt;font style=&quot;font-size: 18px;&quot;&gt;Special_feature_id&lt;/font&gt;&lt;/b&gt;&lt;/div&gt;&lt;div style=&quot;text-align: justify;&quot;&gt;&lt;font style=&quot;font-size: 18px;&quot;&gt;Name&lt;/font&gt;&lt;/div&gt;&lt;div&gt;&lt;br&gt;&lt;/div&gt;" style="whiteSpace=wrap;html=1;" vertex="1" parent="1">
          <mxGeometry x="560" y="80" width="210" height="150" as="geometry" />
        </mxCell>
        <mxCell id="PggwrddvNXkIzDLoVm9X-296" value="Text" style="text;strokeColor=none;align=center;fillColor=none;html=1;verticalAlign=middle;whiteSpace=wrap;rounded=0;" vertex="1" parent="1">
          <mxGeometry x="380" y="350" width="60" height="30" as="geometry" />
        </mxCell>
        <mxCell id="PggwrddvNXkIzDLoVm9X-297" value="" style="edgeStyle=none;orthogonalLoop=1;jettySize=auto;html=1;rounded=0;entryX=1.027;entryY=0.378;entryDx=0;entryDy=0;entryPerimeter=0;" edge="1" parent="1" target="PggwrddvNXkIzDLoVm9X-295">
          <mxGeometry width="80" relative="1" as="geometry">
            <mxPoint x="560" y="140" as="sourcePoint" />
            <mxPoint x="771" y="145" as="targetPoint" />
            <Array as="points" />
          </mxGeometry>
        </mxCell>
        <mxCell id="PggwrddvNXkIzDLoVm9X-299" style="edgeStyle=orthogonalEdgeStyle;rounded=0;orthogonalLoop=1;jettySize=auto;html=1;exitX=1;exitY=0.25;exitDx=0;exitDy=0;entryX=-0.009;entryY=0.817;entryDx=0;entryDy=0;entryPerimeter=0;" edge="1" parent="1" source="PggwrddvNXkIzDLoVm9X-275" target="PggwrddvNXkIzDLoVm9X-295">
          <mxGeometry relative="1" as="geometry" />
        </mxCell>
      </root>
    </mxGraphModel>
  </diagram>
</mxfile>
